<?xml version="1.0" encoding="utf-8"?>
<!-- Generator: Adobe Illustrator 22.0.1, SVG Export Plug-In . SVG Version: 6.00 Build 0)  -->
<svg version="1.1" id="Calque_1" xmlns="http://www.w3.org/2000/svg" xmlns:xlink="http://www.w3.org/1999/xlink" x="0px" y="0px"
	 viewBox="0 0 500 500" style="enable-background:new 0 0 500 500;" xml:space="preserve">
<path d="M339.6,249.1c-3,0-5.4,2.4-5.4,5.4v95.9h-57.8v-60.2c0-3-2.4-5.4-5.4-5.4h-42.2c-3,0-5.4,2.4-5.4,5.4v47.7
	c0,3,2.4,5.4,5.4,5.4c3,0,5.4-2.4,5.4-5.4v-42.3h31.4v54.8h-99.9V218.6l84.2-67.5l86.2,69.1c2.3,1.9,5.7,1.5,7.6-0.8
	c1.9-2.3,1.5-5.7-0.8-7.6l-89.6-71.8c-2-1.6-4.8-1.6-6.7,0L157,211.9c-1.3,1-2,2.6-2,4.2v139.7c0,3,2.4,5.4,5.4,5.4h179.2
	c3,0,5.4-2.4,5.4-5.4V254.5C345,251.5,342.6,249.1,339.6,249.1L339.6,249.1z M339.6,249.1"/>
</svg>
