<?xml version="1.0" encoding="utf-8"?>
<!-- Generator: Adobe Illustrator 22.0.1, SVG Export Plug-In . SVG Version: 6.00 Build 0)  -->
<svg version="1.1" id="Calque_1" xmlns="http://www.w3.org/2000/svg" xmlns:xlink="http://www.w3.org/1999/xlink" x="0px" y="0px"
	 viewBox="0 0 500 500" style="enable-background:new 0 0 500 500;" xml:space="preserve">
<g>
	<path d="M265.9,183.4l39,39c1.1,1.1,2.5,1.6,3.9,1.6c1.4,0,2.8-0.5,3.9-1.6c2.2-2.2,2.2-5.7,0-7.8l-39.1-39.1c-2-2-5.6-2.1-7.7-0.1
		c-1.1,1-1.7,2.4-1.8,3.8s0.5,2.9,1.5,4C265.7,183.3,265.8,183.4,265.9,183.4z"/>
	<path d="M344.2,246.1c-0.9-0.9-2.1-1.4-3.3-1.5c-0.4-0.1-0.7-0.1-1.1-0.1c-0.2,0-0.3,0-0.3,0H159.7c-3,0-5.5,2.5-5.5,5.5
		s2.5,5.5,5.5,5.5h167.2l-61.2,61.2c-2.2,2.2-2.2,5.7,0,7.8c1.1,1.1,2.5,1.6,3.9,1.6c1.4,0,2.8-0.5,3.9-1.6l70.6-70.6
		C346.3,251.7,346.3,248.2,344.2,246.1z"/>
</g>
</svg>
