<svg width="500" height="324" xmlns="http://www.w3.org/2000/svg">

 <g>
  <title>background</title>
  <rect fill="none" id="canvas_background" height="326" width="502" y="-1" x="-1"/>
 </g>
 <g>
  <title>Layer 1</title>
  <g stroke="null" id="svg_1">
   <g stroke="null" id="svg_2">
    <path stroke="null" id="svg_3" d="m41.650003,192.8l0,0c-1.2,-2.6 -2.6,-4 -4.1,-4.4l0,-1.2l15.4,0l0,1.2c-0.9,0.3 -1.4,0.6 -1.7,0.9c-0.3,0.3 -0.4,0.7 -0.4,1.2c0,0.3 0,0.6 0.1,0.8c0.1,0.3 0.1,0.5 0.3,0.7l9.9,20.7l9.5,-20.7c0.1,-0.2 0.2,-0.5 0.3,-0.7c0.1,-0.3 0.1,-0.5 0.1,-0.8c0,-0.5 -0.1,-0.9 -0.4,-1.2c-0.3,-0.3 -0.9,-0.6 -1.7,-0.9l0,-1.2l14.5,0l0,1.2c-1.7,0.5 -3,1.8 -4,4c-0.1,0.2 -0.2,0.4 -0.2,0.5l-12.6,27.4c-0.1,0.3 -0.2,0.6 -0.2,0.8c0,0.2 0,0.4 0,0.7c0,0.5 0.2,0.9 0.5,1.2c0.3,0.3 0.9,0.6 1.8,0.9l0,1.2l-15.9,0l0,-1.2c0.8,-0.3 1.4,-0.5 1.7,-0.8c0.3,-0.3 0.5,-0.7 0.5,-1.2c0,-0.2 0,-0.4 -0.1,-0.6c-0.1,-0.2 -0.2,-0.5 -0.3,-0.9l-13,-27.6z"/>
    <path stroke="null" id="svg_4" d="m102.950003,221.3c0,0.8 0.1,1.4 0.4,1.8s0.9,0.6 1.7,0.8l0,1.2l-13.3,0l0,-1.2c0.8,-0.2 1.4,-0.4 1.7,-0.7c0.3,-0.3 0.4,-0.9 0.4,-1.8l0,-30.5c0,-0.9 -0.1,-1.4 -0.4,-1.8c-0.3,-0.3 -0.8,-0.6 -1.7,-0.7l0,-1.2l13.4,0l0,1.2c-0.9,0.2 -1.4,0.4 -1.7,0.8s-0.4,0.9 -0.4,1.8l0,30.3l-0.1,0z"/>
    <path stroke="null" id="svg_5" d="m153.550003,187.2c0.9,0 1.5,-0.1 1.8,-0.4c0.3,-0.3 0.5,-0.8 0.7,-1.6l1.2,0l0,11.8l-1.2,0c-0.2,-0.9 -0.4,-1.4 -0.7,-1.7c-0.3,-0.3 -0.9,-0.4 -1.8,-0.4l-23.1,0l0,7.6l14.2,0c0.9,0 1.5,-0.1 1.8,-0.4c0.3,-0.3 0.5,-0.8 0.7,-1.7l1.2,0l0,10.8l-1.2,0c-0.2,-0.8 -0.4,-1.4 -0.7,-1.7c-0.3,-0.3 -0.9,-0.4 -1.8,-0.4l-14.2,0l0,8.5l24.1,0c0.9,0 1.5,-0.1 1.8,-0.4c0.3,-0.3 0.5,-0.8 0.8,-1.7l1.1,0l0,11.8l-1.1,0c-0.2,-0.9 -0.4,-1.4 -0.8,-1.7c-0.3,-0.3 -0.9,-0.4 -1.8,-0.4l-35.4,0l0,-1.2c0.9,-0.2 1.4,-0.4 1.7,-0.8c0.3,-0.3 0.4,-0.9 0.4,-1.8l0,-30.5c0,-0.8 -0.2,-1.4 -0.4,-1.8c-0.3,-0.3 -0.9,-0.6 -1.7,-0.8l0,-1.2l34.4,0l0,0.1z"/>
    <path stroke="null" id="svg_6" d="m209.350003,187.2l0,1.2c-0.9,0.3 -1.4,0.6 -1.8,0.9c-0.3,0.3 -0.5,0.8 -0.5,1.3c0,0.2 0,0.4 0.1,0.6c0,0.2 0.1,0.5 0.2,0.7l7.1,20.1l7.3,-20.1c0.1,-0.3 0.2,-0.5 0.3,-0.7c0.1,-0.2 0.1,-0.4 0.1,-0.6c0,-0.5 -0.2,-1 -0.6,-1.4c-0.4,-0.4 -1,-0.7 -1.8,-0.9l0,-1.2l14.4,0l0,1.2c-1,0.3 -1.8,0.7 -2.4,1.3c-0.6,0.6 -1.2,1.6 -1.8,3.2l-10.6,27.4c-0.1,0.2 -0.1,0.4 -0.1,0.6c0,0.2 0,0.5 0,0.7c0,0.6 0.1,1.1 0.4,1.4c0.3,0.3 0.9,0.6 1.8,0.9l0,1.2l-14.5,0l0,-1.2c0.9,-0.3 1.5,-0.6 1.8,-0.9c0.3,-0.3 0.4,-0.8 0.4,-1.4c0,-0.3 0,-0.5 0,-0.7c0,-0.2 -0.1,-0.4 -0.1,-0.6l-8.6,-23.3l-8.2,23.3c-0.1,0.2 -0.1,0.4 -0.1,0.6c0,0.2 0,0.5 0,0.7c0,0.7 0.1,1.1 0.4,1.4c0.3,0.3 0.9,0.6 1.8,0.9l0,1.2l-14.5,0l0,-1.2c0.9,-0.3 1.5,-0.6 1.8,-0.9c0.3,-0.3 0.4,-0.8 0.4,-1.4c0,-0.3 0,-0.6 -0.1,-0.8c0,-0.3 -0.1,-0.4 -0.1,-0.5l-10.8,-27.4c-0.6,-1.6 -1.2,-2.7 -1.7,-3.2c-0.6,-0.5 -1.3,-1 -2.4,-1.2l0,-1.2l14.8,0l0,1.2c-0.9,0.3 -1.5,0.6 -1.8,0.8c-0.3,0.3 -0.4,0.6 -0.4,1c0,0.3 0,0.5 0.1,0.8c0.1,0.3 0.2,0.6 0.3,0.9l7.6,20.1l7.3,-20.1c0.1,-0.3 0.1,-0.5 0.2,-0.7c0,-0.2 0.1,-0.4 0.1,-0.6c0,-0.6 -0.2,-1 -0.5,-1.3c-0.3,-0.3 -0.9,-0.6 -1.8,-1l0,-1.1l16.5,0z"/>
    <path stroke="null" id="svg_7" d="m261.850003,186.4c6.5,0 11.9,1.9 16.1,5.6c4.2,3.7 6.3,8.4 6.3,14.1c0,5.6 -2.1,10.3 -6.3,14.1s-9.6,5.6 -16.1,5.6c-6.4,0 -11.7,-1.9 -15.9,-5.6c-4.2,-3.7 -6.3,-8.4 -6.3,-14c0,-5.6 2.1,-10.3 6.3,-14.1c4.1,-3.9 9.5,-5.7 15.9,-5.7zm-12.9,19.7c0,3.6 1.2,6.5 3.6,8.8c2.4,2.2 5.5,3.4 9.4,3.4s7,-1.1 9.4,-3.4c2.4,-2.3 3.6,-5.2 3.6,-8.7c0,-3.6 -1.2,-6.6 -3.6,-8.8c-2.4,-2.3 -5.6,-3.4 -9.5,-3.4c-3.8,0 -6.9,1.1 -9.3,3.4c-2.4,2.2 -3.6,5.1 -3.6,8.7z"/>
    <path stroke="null" id="svg_8" d="m306.550003,221.3c0,0.8 0.2,1.4 0.5,1.8c0.3,0.3 0.9,0.6 1.7,0.8l0,1.2l-13.4,0l0,-1.2c0.8,-0.2 1.4,-0.4 1.7,-0.7c0.3,-0.3 0.4,-0.9 0.4,-1.8l0,-30.5c0,-0.9 -0.1,-1.4 -0.4,-1.8c-0.3,-0.3 -0.8,-0.6 -1.7,-0.7l0,-1.2l24.5,0c5,0 9,1 11.8,2.9c2.8,1.9 4.2,4.6 4.2,8.1c0,3.5 -1.3,6.3 -4,8.3c-2.7,2.1 -6.3,3.1 -10.9,3.1l-14.4,0l0,11.7zm10,-27.2l-10,0l0,8.6l10.3,0c3.3,0 5.8,-0.4 7.4,-1.1c1.6,-0.7 2.4,-1.8 2.4,-3.3c0,-1.5 -0.8,-2.6 -2.3,-3.2c-1.6,-0.7 -4.2,-1 -7.8,-1z"/>
    <path stroke="null" id="svg_9" d="m347.950003,194.7c-0.9,0 -1.4,0.1 -1.8,0.4c-0.3,0.3 -0.6,0.8 -0.8,1.7l-1.1,0l0,-11.8l1.2,0c0.2,0.9 0.4,1.4 0.8,1.7c0.3,0.3 0.9,0.4 1.8,0.4l31.2,0c0.9,0 1.5,-0.1 1.9,-0.4c0.3,-0.3 0.6,-0.8 0.8,-1.7l1.2,0l0,11.9l-1.2,0c-0.2,-0.8 -0.4,-1.4 -0.8,-1.7c-0.3,-0.3 -1,-0.4 -1.9,-0.4l-10.9,0l0,26.6c0,0.9 0.1,1.4 0.4,1.8c0.3,0.3 0.9,0.6 1.7,0.7l0,1.2l-13.4,0l0,-1.2c0.9,-0.2 1.4,-0.4 1.7,-0.7c0.3,-0.3 0.4,-0.9 0.4,-1.8l0,-26.6l-11.2,0l0,-0.1z"/>
    <path stroke="null" id="svg_10" d="m405.450003,221.3c0,0.8 0.1,1.4 0.4,1.8c0.3,0.3 0.9,0.6 1.7,0.8l0,1.2l-13.4,0l0,-1.2c0.8,-0.2 1.4,-0.4 1.7,-0.7c0.3,-0.3 0.4,-0.9 0.4,-1.8l0,-30.5c0,-0.9 -0.1,-1.4 -0.4,-1.8c-0.3,-0.3 -0.8,-0.6 -1.7,-0.7l0,-1.2l13.4,0l0,1.2c-0.9,0.2 -1.4,0.4 -1.7,0.8c-0.3,0.3 -0.4,0.9 -0.4,1.8l0,30.3z"/>
    <path stroke="null" id="svg_11" d="m455.350003,199.1l-0.9,-0.5c0,-0.1 0,-0.1 0.1,-0.1c0,0 0,-0.1 0,-0.2c0,-1 -1.3,-2 -4,-3.1c-2.7,-1.1 -5.5,-1.6 -8.5,-1.6c-4.2,0 -7.5,1.2 -10.1,3.5c-2.6,2.3 -3.9,5.4 -3.9,9.1c0,3.7 1.3,6.7 3.8,9c2.6,2.2 6,3.4 10.2,3.4c3.2,0 6.4,-0.7 9.4,-2c3,-1.3 4.5,-2.5 4.5,-3.3c0,-0.1 0,-0.2 -0.1,-0.4c-0.1,-0.2 -0.1,-0.5 -0.2,-0.7l1,-0.4l5.8,8.3l-0.9,0.5c-0.3,-0.2 -0.5,-0.3 -0.6,-0.4c-0.1,-0.1 -0.3,-0.1 -0.4,-0.1c-0.3,0 -1.2,0.4 -2.6,1.2c-5.8,3.3 -11.5,5 -17,5c-6.4,0 -11.7,-1.9 -15.9,-5.7c-4.2,-3.8 -6.4,-8.5 -6.4,-14.1c0,-5.8 2.2,-10.5 6.5,-14.3c4.3,-3.7 9.9,-5.6 16.8,-5.6c3.5,0 7.1,0.6 10.7,1.7c3.6,1.1 5.6,1.7 5.9,1.7c0.3,0 0.6,0 0.9,-0.1c0.3,0 0.7,-0.1 1.1,-0.2l1,0.5l-6.2,8.9z"/>
   </g>
   <g stroke="null" id="svg_12">
    <path stroke="null" id="svg_13" d="m122.650003,251.8l0.9,0l0,6.5l11.2,0l0,-6.5l0.9,0l0,14.6l-0.9,0l0,-7.3l-11.2,0l0,7.3l-0.9,0l0,-14.6z"/>
    <path stroke="null" id="svg_14" d="m163.950003,251.8l1.1,0l6.7,14.6l-1.1,0l-2.1,-4.7l-8.1,0l-2.1,4.7l-1.1,0l6.7,-14.6zm-3.2,9.1l7.3,0l-3.7,-8l-3.6,8z"/>
    <path stroke="null" id="svg_15" d="m193.250003,251.8l1.4,0l7.1,13.4l7.1,-13.4l1.4,0l0,14.6l-0.9,0l0,-13.3l0,0l-7.1,13.3l-0.9,0l-7.1,-13.3l0,0l0,13.3l-0.9,0l0,-14.6l-0.1,0z"/>
    <path stroke="null" id="svg_16" d="m233.250003,251.8l7.5,0c2.8,0 4.9,0.8 4.9,3.9c0,1.6 -0.9,3.1 -3,3.6l0,0c1.8,0.2 2.7,1.5 2.7,3c0.1,2.7 0.1,3.5 0.4,4l-0.8,0c-0.3,-0.2 -0.3,-1.2 -0.4,-3.4c-0.1,-2.5 -0.9,-3.3 -3.8,-3.3l-6.5,0l0,6.6l-0.9,0l0,-14.4l-0.1,0zm1,7.1l6.4,0c0.9,0 4.1,0 4.1,-3.3c0,-2.4 -1.8,-3 -3.9,-3l-6.6,0l0,6.3z"/>
    <path stroke="null" id="svg_17" d="m275.250003,251.5c5.9,0 7.7,4.8 7.7,7.6c0,2.8 -1.8,7.6 -7.7,7.6s-7.7,-4.8 -7.7,-7.6c0,-2.9 1.8,-7.6 7.7,-7.6zm0,14.4c4.4,0 6.8,-3.3 6.8,-6.8s-2.4,-6.8 -6.8,-6.8s-6.8,3.3 -6.8,6.8s2.4,6.8 6.8,6.8z"/>
    <path stroke="null" id="svg_18" d="m305.150003,251.8l0.9,0l0,9.2c0,3.1 1.5,4.9 5.5,4.9c4,0 5.5,-1.8 5.5,-4.9l0,-9.2l0.9,0l0,9.2c0,3.8 -2.1,5.7 -6.5,5.7c-4.3,0 -6.5,-1.9 -6.5,-5.7l0,-9.2l0.2,0z"/>
    <path stroke="null" id="svg_19" d="m340.950003,251.8l1.2,0l10.9,13.3l0,0l0,-13.3l0.9,0l0,14.6l-1.2,0l-10.9,-13.3l0,0l0,13.3l-0.9,0l0,-14.6z"/>
    <path stroke="null" id="svg_20" d="m376.850003,251.8l0.9,0l0,14.6l-0.9,0l0,-14.6z"/>
   </g>
   <g stroke="null" id="svg_21">
    <path stroke="null" id="svg_22" d="m199.250003,52.8c0,0 0,0.1 0,0.1c0,-0.1 0,-0.2 0,-0.1z"/>
    <path stroke="null" id="svg_23" d="m230.750003,45.2c0.4,0 1,0.1 0.9,0.1c-0.4,-0.1 -0.7,-0.1 -0.9,-0.1z"/>
    <path stroke="null" id="svg_24" d="m230.350003,45.2c0.1,0 0.2,0 0.3,0c-0.1,0 -0.2,0 -0.3,0z"/>
    <path stroke="null" id="svg_25" d="m221.750003,44.9c0,0 -0.2,0.1 -0.2,0.1c0.3,-0.1 0.4,-0.1 0.2,-0.1z"/>
    <path stroke="null" id="svg_26" d="m266.850003,69.6c-0.4,-0.4 -0.8,-0.8 -0.8,-0.8c0.3,0.4 0.9,0.9 1.4,1.7c0.1,0 -0.2,-0.5 -0.6,-0.9z"/>
    <path stroke="null" id="svg_27" d="m272.450003,68.5c-1.4,-1.8 -0.8,-1 -1,-1.1c0,0 0.2,0.3 0.5,0.5c0.3,0.3 0.5,0.6 0.5,0.6z"/>
    <path stroke="null" id="svg_28" d="m247.550003,99.4c0.1,0.1 0.2,0.3 0.3,0.4c0.1,0 0,-0.1 -0.3,-0.4z"/>
    <path stroke="null" id="svg_29" d="m253.150003,110.8c0.1,0.1 0.4,0.2 0.7,0.5c0,0 -0.1,-0.1 -0.2,-0.1c-0.3,-0.3 -0.6,-0.4 -0.5,-0.4z"/>
    <path stroke="null" id="svg_30" d="m239.850003,78.5c0,-0.1 0,-0.1 0,-0.1c0,0 -0.1,0.1 0,0.1l0,0z"/>
    <path stroke="null" id="svg_31" d="m239.050003,79.8c0,0 0,0.7 0,1.3c0,0.3 0.1,0.6 0.1,0.9c0,0.3 0.1,0.4 0.1,0.4c0,-0.9 0,-1.5 0.1,-2.1c0.2,-0.6 0.3,-1.2 0.4,-1.8c0,0 -0.2,0.3 -0.3,0.6c-0.2,0.3 -0.4,0.7 -0.4,0.7z"/>
    <path stroke="null" id="svg_32" d="m226.550003,45.1c0.1,0 0.3,0 0.5,0c0,0.1 -0.2,0 -0.5,0z"/>
    <path stroke="null" id="svg_33" d="m267.650003,70.6c-0.1,-0.2 -0.1,-0.3 -0.1,-0.3c-0.2,-0.3 -0.3,-0.3 0.1,0.3z"/>
    <path stroke="null" id="svg_34" d="m271.250003,67.3l0.1,0.1c0.1,0.1 0.1,0.1 0.1,0.1l-0.2,-0.2z"/>
    <path stroke="null" id="svg_35" d="m253.150003,66.2c-0.2,0 -0.5,0 -0.7,-0.1c-0.2,-0.1 -0.3,-0.1 -0.4,-0.2c-0.4,-0.2 -0.4,-0.2 -0.1,0.2c0.2,0.1 0.5,0.3 0.8,0.3c0.1,0 0.2,0 0.4,0c0.1,0 0.1,0 0.2,0c0.2,0 0.4,0.1 0.5,0.1c0.2,0.1 0.3,0.1 0.4,0.1c0.1,0 0.1,0 0.4,0.1c0.1,0 0.2,0.1 0.4,0.2c0.2,0.1 0.5,0.3 0.9,0.5c0.4,0.2 -0.2,-0.2 -0.8,-0.5c-0.5,-0.3 -1.1,-0.5 -0.7,-0.4c-0.5,-0.2 -0.9,-0.3 -1.3,-0.3z"/>
    <path stroke="null" id="svg_36" d="m254.350003,66.5c0.3,0.1 0.6,0.2 1,0.4c-0.6,-0.3 -0.8,-0.3 -1,-0.4z"/>
    <path stroke="null" id="svg_37" d="m223.650003,48.5c0.1,0 0.2,0 0.2,0l0.2,0c-0.3,-0.1 -0.7,-0.1 -1.8,-0.1c0,0 0.4,0 0.9,0c0.1,0.1 0.3,0.1 0.5,0.1z"/>
    <polygon stroke="null" id="svg_38" points="233.75001525878906,45.599998474121094 233.34999084472656,45.29999542236328 232.8500213623047,45.29999542236328 "/>
    <path stroke="null" id="svg_39" d="m255.750003,52.7c-0.1,-0.1 -0.3,-0.2 -0.5,-0.2c0.2,0 0.4,0.1 0.5,0.2z"/>
    <path stroke="null" id="svg_40" d="m255.250003,52.4c-0.2,-0.1 -0.4,-0.1 -0.4,-0.1c0.1,0 0.2,0.1 0.4,0.1z"/>
    <path stroke="null" id="svg_41" d="m255.250003,52.4c0,0 0,0 0,0c0,0 0,0 0,0c0,0 0,0 0,0z"/>
    <path stroke="null" id="svg_42" d="m255.850003,52.7c0,0 0,0 0,0c-0.1,0 0,0 0,0c0.4,0.3 0.5,0.4 0.7,0.5c0.3,0.3 0.6,0.5 0.8,0.7c0.5,0.3 0.7,0.5 0.6,0.3c-0.4,-0.3 -0.9,-0.6 -1.3,-0.9c-0.3,-0.2 -0.5,-0.4 -0.8,-0.6z"/>
    <path stroke="null" id="svg_43" d="m219.450003,107.4c0.1,0 -0.7,-0.5 0.4,0.7c0,-0.1 0.3,0 -0.4,-0.7z"/>
    <polygon stroke="null" id="svg_44" points="208.34999084472656,93.40000915527344 209.55001831054688,95.40000915527344 209.4499969482422,95.09999084472656 "/>
    <path stroke="null" id="svg_45" d="m205.850003,89.4c-0.7,-1.1 -1.5,-2.6 -2.1,-3.9c-0.6,-1.4 -1.1,-2.6 -1.5,-3.2c0.2,0.5 0.5,1.1 0.8,1.8c0.3,0.7 0.6,1.5 1,2.2c0.8,1.5 1.7,3.2 2.5,4.6l-0.4,-1.1l-0.3,-0.4z"/>
    <path stroke="null" id="svg_46" d="m199.150003,75c-0.1,-0.3 -0.1,-0.3 -0.1,-0.3c0,0 0.1,0.5 0,0.2c0.2,0.7 0.3,1.2 0.4,1.5c0,0.1 0.1,0.1 0.1,0.3c-0.2,-0.9 -0.3,-1.4 -0.4,-1.7z"/>
    <path stroke="null" id="svg_47" d="m199.450003,76.3c-0.4,-0.9 0.6,1.5 0,0l0,0z"/>
    <path stroke="null" id="svg_48" d="m197.950003,69.2c-0.3,-1.2 -0.4,-1.6 -0.1,0.5c-0.1,-0.7 0.2,1.1 0.3,1.6l-0.2,-2.1z"/>
    <path stroke="null" id="svg_49" d="m197.950003,68.3c0,0 -0.1,-1.1 -0.1,-1.1c0,0.6 0.1,0.9 0.1,1.1z"/>
    <path stroke="null" id="svg_50" d="m198.150003,69.3c0,-0.7 -0.1,-0.7 -0.1,-1l0.3,2.3c-0.2,-1 -0.2,-1.5 -0.2,-1.3z"/>
    <path stroke="null" id="svg_51" d="m198.750003,72.4c0.4,2 0,0.6 -0.3,-0.5c1,3.8 1.2,4.3 0.3,0.5z"/>
    <path stroke="null" id="svg_52" d="m202.750003,82.8l-0.7,-1.4c-0.1,-0.1 0.9,2 1.2,2.6l-0.5,-1.2z"/>
    <path stroke="null" id="svg_53" d="m198.050003,67.4c0,-0.3 0,-0.6 0,-0.6l0,-0.7c0,0 0,0.3 0,0.7c0,0.4 0.1,1 0.1,1.5c0.1,1.1 0.3,2.2 0.3,2.2s-0.1,-0.9 -0.2,-1.9c-0.1,-0.4 -0.1,-0.8 -0.2,-1.2z"/>
    <path stroke="null" id="svg_54" d="m203.450003,60c0.1,-0.6 0.2,-1.2 0.3,-1.8c0.1,-0.6 0.3,-1.3 0.4,-2.1c-0.3,0.9 0.2,-1.2 -0.1,-0.3c-0.1,0.8 -0.2,1.6 -0.3,2.3c-0.2,0.6 -0.3,1.3 -0.3,1.9z"/>
    <path stroke="null" id="svg_55" d="m203.450003,57.9c0.2,-1.4 0.1,-0.9 0,-0.7c-0.1,0.3 -0.1,0.7 -0.2,1l-0.1,1c0,0.7 -0.1,1.4 -0.1,2c0,-0.6 0.1,-1.2 0.1,-1.8c0.1,-0.4 0.1,-1 0.3,-1.5z"/>
    <path stroke="null" id="svg_56" d="m204.450003,73.3l0,0c0,0.1 0,0.2 0.1,0.2l-0.1,-0.2z"/>
    <path stroke="null" id="svg_57" d="m203.850003,54.9c-0.2,0.6 -0.4,1.1 -0.5,2.1c-0.1,0.3 0,0.3 0,0.2c0.1,-0.4 0.1,-0.8 0.2,-1.2c0.2,-0.4 0.3,-0.8 0.3,-1.1z"/>
    <path stroke="null" id="svg_58" d="m203.050003,63.6c0,0.6 0.1,1.2 0.2,1.7c0,-0.1 -0.1,-1.1 -0.2,-1.7z"/>
    <path stroke="null" id="svg_59" d="m203.350003,68.1l0.1,0.9l0,-0.3c0,0 0.1,0.3 0.1,0.7c0.1,0.4 0.1,1 0.3,1.6c0.3,1.2 0.6,2.3 0.6,2.3c0,-0.1 0,-0.5 -0.4,-2c-0.3,-1.4 -0.4,-2.1 -0.7,-3.2z"/>
    <path stroke="null" id="svg_60" d="m203.150003,65.8c0,-0.6 -0.1,-1.1 -0.1,-1.6c0,-0.4 0,-0.7 0,-0.7c0,0 0,0.1 0,0.1c0,-0.7 0,-1.5 0,-2.4c0,0.8 0,1.6 -0.1,2.5c0,-3.3 -0.2,2.6 -0.1,-2c0,0.8 -0.1,1.1 -0.1,1.4c0,0.2 0,0.4 0,0.7c0,0.3 0,0.8 0.1,1.5c0.2,1.4 0.1,-0.9 0.2,-1.7c0,-0.1 0,-0.2 0.1,-0.2c0,0 0,-0.1 0,-0.1c0,-0.2 0,-0.2 0,0c0,0 0,0 0,0.1c0,0.4 0.1,1.5 -0.1,0.2c0.2,2.1 0.2,3.3 0.4,4.3c0,0 0,-0.3 -0.1,-0.7c-0.1,-0.3 -0.1,-0.8 -0.2,-1.4z"/>
    <path stroke="null" id="svg_61" d="m198.750003,57c0.1,-0.6 0.1,-0.4 0,-0.2c0,0 0,0 0,0.2z"/>
    <path stroke="null" id="svg_62" d="m203.350003,55.4l0,-0.1c0,0 -0.1,0.5 -0.2,1c-0.1,0.5 -0.1,1 -0.1,1s0,-0.2 0.1,-0.6c0.1,-0.5 0.2,-0.9 0.2,-1.3c0.3,-1 0.6,-1.9 0.6,-1.9c-0.1,0.1 -0.1,0.1 -0.2,0.2c0,0.2 -0.2,0.6 -0.4,1.7z"/>
    <path stroke="null" id="svg_63" d="m204.750003,73.5l0,0.5c0,0 0.1,0.4 0.2,0.8c0.1,0.4 0.3,0.8 0.3,0.8s0,-0.1 -0.1,-0.3c0,-0.2 -0.1,-0.5 -0.2,-0.7c-0.2,-0.6 -0.2,-1.1 -0.2,-1.1z"/>
    <path stroke="null" id="svg_64" d="m206.750003,79.7c0,0 -0.1,-0.3 -0.2,-0.6c-0.1,-0.3 -0.2,-0.6 -0.2,-0.6l0,0.2c0,0 0.1,0.3 0.2,0.5c0,0.2 0.2,0.5 0.2,0.5z"/>
    <path stroke="null" id="svg_65" d="m244.350003,122.4c-0.5,-0.5 -1.1,-0.9 -1.6,-1.3c-0.5,-0.4 -1.1,-0.8 -1.6,-1.2c1,0.8 1.8,1.5 2.6,2.1c0.2,0.2 0.4,0.3 0.6,0.4z"/>
    <path stroke="null" id="svg_66" d="m231.650003,118.7c-0.5,-0.5 -1.1,-1 -1.4,-1.3c0.7,0.7 1.1,1.1 1.4,1.3z"/>
    <path stroke="null" id="svg_67" d="m216.450003,95.8c-0.1,-0.2 -0.7,-0.9 0,0l0,0z"/>
    <path stroke="null" id="svg_68" d="m213.150003,92.3c0,0 -0.1,-0.2 -0.2,-0.4c0.1,0.2 0.2,0.3 0.2,0.4z"/>
    <path stroke="null" id="svg_69" d="m215.350003,94.6c0.5,0.6 0.7,0.9 0.9,1c-0.3,-0.4 -0.6,-0.7 -0.9,-1z"/>
    <path stroke="null" id="svg_70" d="m214.950003,94c0.2,0.2 0.4,0.4 0.6,0.7c-0.5,-0.8 -0.6,-0.8 -0.6,-0.7z"/>
    <path stroke="null" id="svg_71" d="m216.450003,95.8c0,0 0,0 -0.2,-0.2c0.3,0.4 0.7,0.9 1.1,1.3c-0.5,-0.5 -0.7,-0.9 -0.9,-1.1z"/>
    <path stroke="null" id="svg_72" d="m210.350003,87c0.3,0.4 0.4,0.7 0.8,1.3c-0.1,-0.2 -0.2,-0.4 -0.3,-0.6c-0.3,-0.5 -0.5,-1 -0.5,-1c0.3,0.7 0.1,0.3 0,0.3z"/>
    <path stroke="null" id="svg_73" d="m211.450003,88.7c-0.1,-0.2 -0.2,-0.3 -0.3,-0.4c0,0 0.1,0.1 0.1,0.1c0.1,0.2 0.2,0.3 0.2,0.3z"/>
    <path stroke="null" id="svg_74" d="m207.450003,82.5l-0.1,-0.3c0.6,1.5 1.3,2.8 1.5,2.9c-0.8,-1.4 -1.4,-3.1 -1.4,-2.6z"/>
    <path stroke="null" id="svg_75" d="m207.250003,81.9c-0.3,-0.8 -0.6,-1.6 -0.6,-1.4c0.2,0.5 0.4,1 0.6,1.4z"/>
    <path stroke="null" id="svg_76" d="m219.050003,99.1c-0.5,-0.7 -1.3,-1.7 -1.1,-1.3c0.3,0.3 0,0.2 0.5,0.8c1.4,1.5 1.2,1.1 0.6,0.5z"/>
    <path stroke="null" id="svg_77" d="m213.250003,92.8c0,0 0.4,0.5 0.7,1.1c0.4,0.5 0.8,1 0.8,1c0,0 -0.2,-0.3 -0.6,-0.8c-0.4,-0.5 -0.8,-1.2 -1.3,-1.8c0.3,0.3 0.5,0.5 0.4,0.5z"/>
    <path stroke="null" id="svg_78" d="m212.950003,92.2c-0.4,-0.6 -0.9,-1.4 -1.1,-1.7c0.2,0.4 0.6,1 1.1,1.7z"/>
    <path stroke="null" id="svg_79" d="m235.050003,115.7c0.8,0.7 1.4,1.2 1.2,1l-2.1,-1.9c-0.4,-0.3 0.4,0.4 0.9,0.9z"/>
    <polygon stroke="null" id="svg_80" points="222.65000915527344,110.70001220703125 224.25,112.09999084472656 223.75001525878906,111.59999084472656 "/>
    <path stroke="null" id="svg_81" d="m220.150003,107.8l0.8,1l0.5,0.2c-0.3,-0.1 -0.9,-0.8 -1.3,-1.2z"/>
    <path stroke="null" id="svg_82" d="m250.250003,72c0,0 0,0.1 0,0.1c0,0 0.1,-0.1 0,-0.1z"/>
    <path stroke="null" id="svg_83" d="m252.450003,72.7l0,0c0.2,0.1 0,0 0,0c0,0 0,0 0,0z"/>
    <path stroke="null" id="svg_84" d="m252.850003,72.7c0,0 -0.1,0 -0.1,0l0.1,0.1c0.1,0 0.1,-0.1 0,-0.1z"/>
    <path stroke="null" id="svg_85" d="m252.850003,72.9l-0.1,-0.1c0.1,0.1 0.1,0.2 0.1,0.1c0,0.1 0,0.1 0,0z"/>
    <path stroke="null" id="svg_86" d="m252.650003,73c-0.1,-0.1 0,-0.1 0.1,-0.1c-0.3,-0.2 -0.4,0 -0.1,0.1z"/>
    <path stroke="null" id="svg_87" d="m253.450003,73l0,0c0.1,0 0.2,0 0.2,-0.1c-0.1,0.1 -0.2,0.1 -0.2,0.1z"/>
    <path stroke="null" id="svg_88" d="m253.650003,73.2l-0.1,-0.1c-0.1,0 0,0.1 0.1,0.1z"/>
    <polygon stroke="null" id="svg_89" points="252.84999084472656,73.20001220703125 252.9499969482422,73.20001220703125 252.75001525878906,73.00001525878906 "/>
    <polygon stroke="null" id="svg_90" points="254.15000915527344,73.20001220703125 254.0500030517578,73.00001525878906 254.15000915527344,73.09999084472656 "/>
    <path stroke="null" id="svg_91" d="m254.450003,73.2c0.1,0 0.2,0 0.3,0c-0.1,-0.1 -0.1,-0.2 -0.2,-0.2c0,0.1 -0.2,0.2 -0.1,0.2z"/>
    <path stroke="null" id="svg_92" d="m253.950003,73.2c-0.1,0 -0.1,0.1 -0.1,0.1l0.1,-0.1l0,0z"/>
    <path stroke="null" id="svg_93" d="m253.250003,73.2c0.1,0.1 0,0.1 0,0.2c0.2,0 0.1,-0.1 0,-0.2z"/>
    <path stroke="null" id="svg_94" d="m253.650003,73.2c0,0.1 -0.1,0.1 0,0l0.1,0.1l-0.1,-0.1z"/>
    <polygon stroke="null" id="svg_95" points="253.75001525878906,73.40000915527344 253.75001525878906,73.40000915527344 253.75001525878906,73.40000915527344 "/>
    <path stroke="null" id="svg_96" d="m254.450003,73.5c0.1,0 0.2,0 0.2,0c0,0 -0.1,0 -0.2,0c0,-0.1 0,0 0,0z"/>
    <polygon stroke="null" id="svg_97" points="255.4499969482422,73.80000305175781 255.4499969482422,73.80000305175781 255.4499969482422,73.80000305175781 "/>
    <path stroke="null" id="svg_98" d="m254.450003,73.5c0,0 0,0 0,0c0,0 -0.1,0 -0.1,-0.1c0,0.1 0,0.1 0.1,0.1z"/>
    <path stroke="null" id="svg_99" d="m254.250003,73.4c0,0 0,0 0,0c0,0 0,0 0,0l0,0z"/>
    <path stroke="null" id="svg_100" d="m255.050003,73.7l0,0l0,0l0.3,0.1c0,0 0,-0.1 -0.1,-0.2c0,0.1 -0.1,0.1 -0.2,0.1z"/>
    <path stroke="null" id="svg_101" d="m254.850003,73.5c-0.1,0 -0.1,0 -0.1,0c0,0.1 0,0.1 0.1,0c-0.2,0.1 0.1,0.3 -0.2,0.2c0.1,0.1 0,0.1 0.2,0.2c0.1,-0.1 0,-0.2 0,-0.4l0,0l0,0c0,0.1 0,0 0,0l0,0c0,0.1 0.1,0.1 0,0c0.1,0.1 0.2,0.1 0.2,0.1l-0.2,-0.1l0,0z"/>
    <polygon stroke="null" id="svg_102" points="255.5500030517578,73.80000305175781 255.4499969482422,73.59999084472656 255.4499969482422,73.70001220703125 "/>
    <polygon stroke="null" id="svg_103" points="255.75001525878906,73.70001220703125 255.75001525878906,73.80000305175781 255.84999084472656,73.80000305175781 "/>
    <path stroke="null" id="svg_104" d="m258.450003,79.8c0.1,0.1 0,-0.1 -0.1,-0.2c0.1,0 0.1,0 0.1,0.2l0,0z"/>
    <path stroke="null" id="svg_105" d="m259.150003,75c-0.1,-0.1 -0.2,-0.1 -0.3,-0.1c0,0.1 0.1,0.1 0.3,0.1z"/>
    <path stroke="null" id="svg_106" d="m259.150003,75c0.1,0.1 0.1,0.2 0.2,0.3c0,0 0,0 0.1,0c-0.1,-0.1 -0.2,-0.2 -0.3,-0.3z"/>
    <path stroke="null" id="svg_107" d="m256.950003,74.2c0,0 0,0 0,0c0,0 0,0 0,0c0,0 0,0 0,0z"/>
    <path stroke="null" id="svg_108" d="m259.650003,75.9l-0.1,0c-0.1,-0.2 -0.1,-0.4 -0.2,-0.5c-0.5,-0.4 -0.5,-0.3 -0.6,-0.4c-0.2,-0.1 -0.4,-0.2 -0.5,-0.2l0,0l-0.3,-0.2c0,0.1 0,-0.1 -0.1,-0.1c-0.1,-0.1 -0.2,-0.1 -0.4,-0.1l-0.2,-0.1c0.2,0.1 -0.1,0.1 -0.1,0.2l-0.1,-0.1c-0.1,0 0,0.1 0,0.1c-0.1,-0.1 -0.3,-0.1 -0.3,-0.3c0,0 0.1,0 0.1,0c0,0 0,0 0,0l0,0l0,0l0,0c-0.2,0 -0.1,-0.1 -0.1,-0.1c-0.2,0.1 -0.3,0 -0.5,0.1c0.2,-0.2 -0.4,-0.1 -0.2,-0.3c-0.2,0.1 -0.1,0 -0.2,0.1c0.2,0 0.3,0.2 0.4,0.3l-0.2,0.1c0,0.2 0.3,0 0.4,0.1c0,-0.1 -0.2,-0.1 -0.2,0l0.1,-0.1c0.2,0 0.3,0.2 0.4,0.3c-0.1,0 0,0.1 0,0.2l-0.2,-0.1l0,0c0,0 -0.1,0 -0.2,-0.1c0,0 0,0 0,0l-0.5,-0.2l0,0l0,0l-0.4,-0.1c0,-0.1 -0.1,-0.1 0,-0.2c-0.1,0 -0.1,0.1 -0.3,0c-0.1,-0.1 0.2,-0.1 0.2,-0.1c-0.1,-0.1 -0.1,-0.1 -0.1,-0.2c-0.1,0.1 -0.2,0.2 -0.2,0.4l-0.9,-0.3l0.1,0l-0.2,-0.1c0,0 0,0.1 0.1,0.1l0,0l-0.7,-0.2c0,0 0.1,-0.1 0.1,-0.1c0,0 -0.1,0.1 -0.2,0.1l-1.6,-0.6c0,0 0.1,0 0.1,0c-0.1,0 -0.4,-0.2 -0.5,-0.2l0,0.1l-0.3,-0.1l-0.1,-0.1l0,0l0,0l-0.6,-0.2c-0.3,-0.1 -0.7,0 -0.9,0.3c-0.1,0 -0.1,0.3 -0.3,0.3l0,0.3l0,0.1c-0.1,0 -0.1,0 -0.1,-0.1c0,0.1 -0.1,0.1 -0.1,0c0,0.9 -0.7,1.6 -0.8,2.5c0,0 -0.1,0 -0.1,0c0.1,0.2 -0.1,0.1 -0.2,0.2l0.1,0.3c-0.1,0.1 -0.1,0 -0.2,0c-0.2,0.4 -0.2,0.9 -0.4,1.1c0,0.1 0.2,0 0.1,0.2c-0.1,-0.3 -0.3,0.4 -0.4,0.2c0.2,0.2 -0.2,0.5 0.2,0.6c0,0.2 -0.2,0.1 -0.2,0c-0.1,0.2 -0.1,0.3 -0.3,0.5c0,0.1 -0.4,0.8 -0.3,1.1c-0.1,-0.2 -0.1,0 -0.2,0.1l-0.1,-0.2l-0.1,0.3c0,0 0,0.1 0,0.1c0,0 0.1,0 0.1,0.1c-0.1,0.2 -0.1,0.1 -0.2,0.2l0,0l-0.1,0.1c0,0.1 0.3,-0.2 0.2,0.1c0,0 -0.3,0.1 -0.2,0.3c0.1,-0.2 0.2,-0.1 0.2,-0.1c0,0 -0.1,0.3 -0.1,0.3l-0.2,-0.1c-0.1,0.5 0,1 0.4,1.3c0.2,0.1 0.4,0.2 0.6,0.3c0.2,0.1 0.3,0.1 0.5,0.2c0,-0.1 0.4,0.2 0.5,-0.1l0,0c-0.1,-0.1 0.1,-0.2 0.2,-0.1c-0.2,0 0.1,0.3 -0.2,0.2l0.2,0.2c0,0.5 0.7,0.2 1,0.5c0,0 0,-0.1 0,-0.1c0.3,0.3 0.8,0.2 0.8,0.2l0.1,-0.1c0.2,0.3 0.2,0.3 0.6,0.4c0,0 0,-0.1 0,-0.1c0,0.1 0.1,0.2 0.3,0.3l0,0l0.3,0.1c0.1,-0.4 0.5,0.4 0.8,0.1c0,0.1 0.3,0.3 0.4,0.3c0,0 0,0 0,0c0.1,0.2 0.4,0.1 0.6,0.2c0.1,0.1 0,0.1 0,0.2c0.2,-0.1 0.5,0.4 0.6,0.3c0.2,0 0.1,-0.1 0.2,-0.2c0.2,0.1 -0.2,0.3 0.2,0.3c0,0 -0.1,-0.1 0,-0.1c0.1,0 0.5,-0.3 0.5,-0.2l-0.1,0c0.2,0.2 0.6,-0.1 0.6,0.1l0,0.1c0.5,0 0.2,0.1 0.6,0.1l0,0c0.1,0.1 0.2,0 0.3,0.1c0,0 0,0 0.1,0l0,0.1c0.1,-0.2 0.1,-0.3 0.2,-0.5c0,0 0.1,-0.1 0.1,-0.2c0.1,0.1 0.3,-0.6 0.3,-0.6c-0.1,0.1 -0.1,0 -0.2,0c0.2,0 0.2,-0.1 0.1,-0.3c0.2,0.1 0.4,0.1 0.5,-0.1c0,0 -0.1,0.1 -0.1,0c0,0 0,-0.1 0.1,-0.1c0,0 -0.1,0 -0.1,0c0.2,-0.1 0.1,-0.3 0.3,-0.5c-0.1,0.1 -0.1,0 -0.2,-0.1c0.2,0.1 -0.1,-0.4 0.2,-0.2c0,-0.5 0.4,-1.2 0.3,-1.4c-0.1,-0.1 0.1,-0.2 0.1,-0.2l-0.1,0c0.3,-0.2 0.1,-0.2 0.4,-0.4c-0.2,0.1 -0.2,0 -0.2,-0.1l0.3,-0.1l-0.1,-0.1c0.1,-0.1 0.1,-0.1 0.1,-0.2c0,0 0,0 0,0c0.2,0 0.3,-0.3 0.4,-0.3c-0.2,-0.2 0.1,-0.2 0,-0.3c0,0 0.1,0 0.1,-0.1c0.1,0.1 0.2,0.1 0.1,0l0,0l-0.1,-0.1c0.1,-0.1 0.1,-0.1 0.1,-0.2c0,0 0,0.1 0,0.1l0,-0.1l0,0l0,0c0,-0.1 0,-0.1 0.1,-0.2c-0.1,-0.3 0.5,-0.5 0.3,-0.9c0,0.1 0,0.1 0,0.1c0.1,-0.2 0,-0.5 0.2,-0.7l0.1,0.1c0.1,-0.2 0.2,-0.3 0.2,-0.4l0.1,0c0,-0.2 0.3,-0.5 0.2,-0.9l0,0c0.1,-0.6 0,-1 0,-1.2zm-13.2,4.3l0,0c0,-0.1 0.1,-0.1 0,0zm5,-7.4l0,0c0.1,0 0.2,0 0.2,0.1l-0.2,-0.1zm4.7,11.4c0,0 0,-0.1 -0.1,-0.1l0,-0.1l0.1,0l0,0l0,-0.1c0,0 0.1,0 0.1,0.1l-0.1,0c0.1,0 0.1,0 0.2,0l-0.2,0.2zm1.4,-9.7l0,0c0.1,0 0.1,-0.1 0,0zm-0.3,6.4l0.1,-0.2c0.1,0 0.2,0.1 0.2,0.1l-0.3,0.1zm0.6,-5.8c0,0 0,0 0,0c0,0 0,0 0,0c-0.1,0 -0.1,0 -0.1,0c0,0 -0.1,0 -0.1,-0.1l0.2,0c-0.1,0 -0.3,0.1 -0.4,-0.1c0.1,-0.1 0,-0.3 0.1,-0.3c0.4,0 0.2,0.3 0.6,0.4c0,0 0,-0.2 0.2,-0.1c0.2,0.1 0.3,0.3 0.3,0.5c-0.1,0 -0.1,-0.1 -0.2,-0.1l-0.6,-0.2zm0.5,3.5l0,0c0,0.2 -0.2,0.2 -0.4,0.3l0.1,-0.3c0.2,-0.1 0.3,-0.1 0.4,-0.1l-0.1,0.1zm0.1,-1.1l0.1,-0.2l0.2,0l-0.2,-0.1l0.1,-0.2c0,0 0,0 0.1,0c0.1,0.1 0.1,0.5 0.1,0.5c-0.1,0.1 -0.2,0.1 -0.4,0zm0.5,-1.1c-0.1,0.1 -0.1,0.1 0,0l0,0c0,-0.1 0,-0.1 0,-0.2c0,0 0.1,0.1 0.1,0.1c0,0.1 -0.1,0.1 -0.1,0.1z"/>
    <path stroke="null" id="svg_109" d="m256.450003,74l-0.1,-0.1c0,0 0,0 0,0.1c0,0 0,-0.1 0.1,0z"/>
    <path stroke="null" id="svg_110" d="m256.050003,74.2c-0.1,-0.1 -0.2,-0.1 -0.2,0c0,0 0,0 0,0c0.1,0.1 0.2,0.1 0.2,0z"/>
    <path stroke="null" id="svg_111" d="m255.750003,74.2c0,0 0.1,0 0,0c0,0 0,-0.1 0,0z"/>
    <path stroke="null" id="svg_112" d="m257.050003,74.2c0.1,0 0,0.1 0,0c0.3,0.2 0,-0.1 0,0z"/>
    <path stroke="null" id="svg_113" d="m258.250003,75.3c0.1,0 0.1,0 0.1,0l-0.2,-0.1c0.1,0 0.1,0 0.1,0.1z"/>
    <polygon stroke="null" id="svg_114" points="249.34999084472656,72.59999084472656 249.34999084472656,72.80000305175781 249.4499969482422,72.70001220703125 "/>
    <path stroke="null" id="svg_115" d="m249.650003,72.5l-0.2,0l0.1,0.1c0.1,0 0.1,-0.1 0.1,-0.1z"/>
    <polygon stroke="null" id="svg_116" points="186.15000915527344,69.70001220703125 187.0500030517578,68.40000915527344 186.25,69.50001525878906 "/>
    <path stroke="null" id="svg_117" d="m189.250003,66.3l-0.3,0.1l-0.3,0.8c1.4,-1.5 3.1,-3.5 4.2,-4.5c-0.9,0.4 -2.3,2.5 -3.6,3.6z"/>
    <path stroke="null" id="svg_118" d="m196.250003,60.7c0.1,-0.1 0.1,-0.1 0.2,-0.1c0.1,-0.1 0.3,-0.3 0.7,-0.7c-0.4,0.1 0.7,-0.9 -0.9,0.8z"/>
    <path stroke="null" id="svg_119" d="m196.450003,60.5c-0.7,0.8 0.6,-0.3 0,0l0,0z"/>
    <path stroke="null" id="svg_120" d="m191.650003,63.4c0.2,-0.4 1.4,-1.3 1.3,-1.3l-0.8,0.6l-0.5,0.7z"/>
    <polygon stroke="null" id="svg_121" points="220.0500030517578,36.39999771118164 219.95001220703125,36.39999771118164 219.95001220703125,36.50000762939453 "/>
    <path stroke="null" id="svg_122" d="m216.450003,40.4c-0.3,0.2 -0.6,0.5 -0.9,0.7c0.2,-0.2 0.8,-0.6 0.9,-0.7z"/>
    <path stroke="null" id="svg_123" d="m217.850003,38.5l-0.4,0.5c0.5,-0.5 1,-0.8 1.8,-1.3c0.7,-0.8 0.7,-1 0.7,-1.1l-2.2,2.2l0.1,-0.3z"/>
    <path stroke="null" id="svg_124" d="m215.450003,40.9c0.6,-0.6 0.1,0 0,0.2c0,0 0,0 0,0.1l0,0l2,-2.2c-0.5,0.4 -1,0.9 -2,1.9z"/>
    <path stroke="null" id="svg_125" d="m203.950003,50.5c0.1,0 0.1,0 0.1,0c0.1,-0.1 0.2,-0.2 -0.1,0z"/>
    <polygon stroke="null" id="svg_126" points="220.34999084472656,36.70000457763672 221.0500030517578,35.39999771118164 220.34999084472656,36.299991607666016 "/>
    <polygon stroke="null" id="svg_127" points="222.65000915527344,34.20000457763672 223.15000915527344,33.50000762939453 222.65000915527344,34.00000762939453 "/>
    <path stroke="null" id="svg_128" d="m274.650003,38.7l0,-0.4c-0.6,-0.5 -0.9,-0.9 -1.2,-1.3c0.5,0.9 1.1,2 1.2,1.7z"/>
    <path stroke="null" id="svg_129" d="m242.950003,13.5c0.7,-0.6 1.3,-1.1 1.7,-1.5c-0.9,0.7 -1.7,1.2 -1.7,1.5z"/>
    <path stroke="null" id="svg_130" d="m244.650003,12c0.6,-0.4 1.6,-1.3 1.5,-1.5c0,0 -0.1,0 -0.1,0.1c0,0 -0.3,0.3 -0.5,0.6c-0.3,0.3 -0.6,0.5 -0.9,0.8z"/>
    <path stroke="null" id="svg_131" d="m185.150003,81.7c0.2,0.2 0.6,0.5 0.9,0.9c-0.2,-0.2 -0.4,-0.4 -0.9,-0.9z"/>
    <path stroke="null" id="svg_132" d="m231.850003,24.9c-0.5,0.5 -0.1,0.1 0,0l0,0z"/>
    <path stroke="null" id="svg_133" d="m228.750003,26.5c0.1,-0.1 0.1,-0.2 0.1,-0.3c0,0.1 0,0.2 -0.1,0.3z"/>
    <path stroke="null" id="svg_134" d="m231.050003,25.5c0.2,-0.2 0.4,-0.3 0.7,-0.6c-0.2,0.2 -0.4,0.3 -0.7,0.6z"/>
    <path stroke="null" id="svg_135" d="m231.250003,25.5c-0.2,0.2 -0.3,0.3 -0.4,0.4c-0.1,0.1 0,0.1 0.4,-0.4z"/>
    <path stroke="null" id="svg_136" d="m232.450003,24.2c-0.3,0.3 -0.5,0.5 -0.8,0.8c0.1,-0.1 0.2,-0.1 0.1,-0.1c0.2,-0.1 0.4,-0.3 0.7,-0.7z"/>
    <path stroke="null" id="svg_137" d="m179.650003,76.4l0.1,-0.5l-0.8,-0.3c0.1,0.2 0.6,0.6 0.7,0.8z"/>
    <path stroke="null" id="svg_138" d="m275.850003,128.4c-0.1,0 -0.3,0 -0.4,-0.1l0,0c-0.2,0 -0.3,0 -0.5,-0.1c-2.5,0.8 -4.6,1.3 -6.7,1.8l-0.2,-0.1c-0.4,0.1 -0.9,0.2 -1.5,0.3c-0.6,0.1 -1.2,0.2 -1.8,0.4c-1.2,0.2 -2.5,0.3 -3.8,0.2c-2.5,-0.3 -4.8,-1.3 -5.8,-1.6c-0.4,-0.2 -1.5,-0.8 -2.7,-1.4c-1.2,-0.7 -2.6,-1.5 -3.4,-2.1l-0.5,-0.2c-1.1,-0.8 -2,-1.4 -2.8,-2c-0.8,-0.6 -1.4,-1.1 -2,-1.6c-1.1,-0.8 -2.2,-1.6 -3.2,-2.5c-0.4,-0.3 -0.8,-0.7 -1.2,-1.1c0.5,0.4 1.2,0.9 1.9,1.4c-0.8,-0.6 -1.7,-1.3 -2.8,-2.2c0,0.1 0.1,0.1 0.2,0.2c-0.3,-0.3 -0.7,-0.6 -1.1,-0.9c-1,-0.9 -1.9,-1.7 -2.8,-2.5c-0.9,-0.8 -1.8,-1.7 -2.7,-2.5l-0.1,0c0,0 -0.9,-0.8 -1.8,-1.7c-0.9,-0.9 -1.7,-1.7 -1.7,-1.7c0.9,1 -0.7,-0.7 -1.7,-1.7c-1.1,-1.1 -3,-2.8 -4.2,-4.2l-2.1,-2.3c2.3,2.6 -0.3,-0.1 -0.5,-0.1c0,0 -0.3,-0.4 -0.6,-0.8c-0.2,-0.2 -0.3,-0.4 -0.4,-0.5c-0.1,-0.1 -0.2,-0.2 -0.2,-0.2c-0.6,-0.6 0.7,1.1 -0.2,-0.1c-0.8,-1.1 -3.2,-4.2 -3.9,-5.2c0.1,0.1 0.5,0.5 0.8,0.9c0.1,0.1 0.1,0.1 0,0c0,0 0.1,0.1 0.1,0.1c0,0 -0.1,-0.1 -0.1,-0.1c-0.1,-0.1 -0.2,-0.4 -0.3,-0.5c-1.5,-2 -0.9,-1.3 -0.8,-1.2c-0.9,-1.1 -1.5,-2 -2.1,-2.8c-0.6,-0.8 -1.1,-1.6 -1.7,-2.5c1.7,2.4 -3.2,-5.6 -2,-4.2c-1,-1.8 -0.6,-1.3 -1.3,-2.4c1.2,2.7 2.5,5.3 3.6,7.4l-1.2,-2c0.3,0.7 0.9,1.9 1.6,2.9c0.8,1.1 1.5,2.1 1.9,2.7c-0.5,-0.8 -1.7,-2.5 -1.8,-2.6l0.5,0.4c1,1.4 1.8,2.6 2.5,3.8c0.8,1.1 1.6,2.1 2.3,3.1c-1.4,-1.7 1.6,2.2 0.5,1l-1.1,-1.4c-0.4,-0.4 -0.1,0.1 0.4,0.6c-2.1,-2.6 -3.9,-5.2 -5.5,-7.7c0.1,0.2 0.2,0.3 0.2,0.3s-0.1,-0.2 -0.3,-0.4c-0.1,-0.1 -0.2,-0.3 -0.3,-0.4c-0.2,-0.4 -0.4,-0.7 -0.4,-0.7l-0.3,-0.5c-0.5,-0.9 -1,-1.9 -1.5,-2.8l0.5,0.8l-0.3,-0.8l-0.4,-0.4c-0.8,-1.5 -1.5,-3 -2,-4.4c0,-0.4 -1.3,-4.3 -0.8,-3.3c-0.5,-1.4 -0.6,-0.8 -1.2,-3.9c-0.2,-1 0,-0.4 0.3,0.5c0.1,0.5 0.3,1 0.4,1.5c0.1,0.5 0.3,0.9 0.4,1.1c-0.4,-1.1 -0.4,-1.7 -0.5,-2c0,-0.3 0,-0.3 0,-0.4c-0.7,-1.9 -1.4,-3.3 -1,-1c0.2,0.6 0.3,1.1 0.5,1.7c0.1,0.6 0.3,1.1 0.5,1.6c0.2,0.6 0.3,1.1 0.4,1.4c-1.1,-3 -1.7,-5.8 -2.1,-8.4c0.2,1.2 0.1,0.2 -0.1,-1.1l-0.1,-0.1c-0.9,-7.4 0.5,-12.6 1.2,-14.7c-0.1,-0.2 -0.1,-0.4 -0.2,-0.6c0.3,-0.4 0.4,-0.6 -0.1,-0.3c0,-0.1 0,-0.1 0,-0.2c0,-0.1 0,-0.1 0,-0.2l-0.4,-0.2l2.3,-2.3c-0.1,-1 -0.1,-1.9 -0.2,-2.9c0,-0.5 -0.1,-1 -0.1,-1.5c-0.5,0.8 -1,1.6 -1.5,2.3c-0.1,0.2 -0.2,0.4 -0.4,0.5c-0.4,0.5 -0.7,1.1 -1.1,1.6c-0.2,0.3 -0.5,0.7 -0.7,1c-0.3,0.4 -0.6,0.8 -0.9,1.2c-5,6.7 -11.5,13.5 -18.6,18.2c-0.1,0.1 -0.2,0.1 -0.2,0.2c-0.6,0.4 -1.1,0.7 -1.7,1.1c-0.2,0.1 -0.3,0.2 -0.5,0.3c-0.5,0.3 -0.9,0.5 -1.4,0.8c-1.1,0.6 -2.2,1.1 -3.3,1.6c-1,1 -2,2 -3,2.9c2.8,2.9 5.6,5.7 8.3,8.5l-0.2,-0.9l1.7,1.7c0.4,0.5 0.4,0.9 -0.9,-0.4c0.5,0.8 2.2,1.9 2.3,1.9c2.3,2.5 -1.3,-0.6 -0.6,0.2l1,1l-0.2,-0.3c0.9,0.7 1.1,0.6 2.6,2.1c0.9,1 0.3,0.7 0.6,1.1c0,0 0.1,0.2 0.5,0.6l2.1,2.2l-0.6,-1.1c1.1,0.8 2,2 1.3,0.8c0.8,1.5 5.3,5.8 7.5,8c1.7,1.3 3.4,2.5 5.1,3.7l0,0c0.4,0.3 0.7,0.5 1.1,0.8c1.5,1.1 3,2.2 4.5,3.4c0,0 0,0 0,0c5.2,4 10,8.5 14.8,13c2.5,1.8 4.9,3.7 7.1,5.7c1.3,1.2 2.6,2.4 3.8,3.6c1.2,1.2 2.3,2.5 3.5,3.7c0.9,1 1.9,2 2.8,3c0.4,0.5 0.9,0.9 1.3,1.4c4.1,4.5 8.2,9.4 11.6,14.3c0.8,-0.8 1.7,-1.6 2.5,-2.4c0.1,-0.1 0.2,-0.2 0.3,-0.3c0.7,-0.7 1.4,-1.3 2.1,-1.9c0.3,-0.2 0.5,-0.5 0.8,-0.7c1.8,-1.6 3.8,-3.1 5.8,-4.4c0.7,-0.7 1.5,-1.4 2.3,-2.1c3.5,-5 7.2,-10.3 11.5,-14.4c-0.3,0 -0.5,0.1 -0.8,0.1c-0.7,0.5 -1.2,0.6 -1.7,0.6zm-9.2,2.8c0.6,-0.2 2.2,-0.6 3.7,-1c1.5,-0.4 2.8,-0.9 3,-1c0.5,-0.1 0.7,0 0.8,0.2c-1.3,0.4 -2.5,0.8 -3.6,1l-0.5,-0.1l0,0.2c-1.5,0.4 -2.6,0.6 -3.1,0.7c-0.2,0 -0.4,0.1 -0.6,0.1c0,0 0.1,0 0.3,-0.1zm-14,-2.3c0.2,0.1 0.8,0.3 0.7,0.2c0.5,0.3 1.1,0.6 1.7,0.9c0.2,0.1 0.5,0.3 0.7,0.4c-0.9,-0.4 -1.9,-0.8 -3.1,-1.5c0.1,0.1 0.1,0.1 0,0c0.1,0.1 0.1,0.1 0,0c0,0 0,0 0,0c-0.2,-0.1 -0.5,-0.3 -0.7,-0.4c0.3,0.2 0.5,0.3 0.7,0.4zm-28.6,-24.2c2.2,2 3.1,2.9 4,4c0.9,1 2,2.2 4.7,4.6c0.5,0.5 -1,-1.2 1.8,1.5c1.8,1.6 3.3,3.1 4.4,4.1c0.4,0.4 0.7,0.7 0.9,0.9c-3.3,-2.8 -7.1,-6.1 -11.5,-10.2c0.5,0.4 0.8,0.8 1.1,1c-0.9,-0.8 -2.3,-2.3 -3,-3l1.9,1.8c-1.5,-1.5 -2.9,-2.5 -5.1,-4.8c0.5,0.3 -1,-1.5 0.8,0.1zm-3.9,-3.2c0.5,0.5 1,1.1 1.5,1.6c-0.6,-0.6 -1.1,-1.2 -1.6,-1.7c0,0 0.1,0 0.1,0.1zm-9.9,-13.1c0,0.1 0.1,0.1 0.1,0.2c-0.1,-0.1 -0.1,-0.2 -0.1,-0.2c-0.1,-0.1 0,0 0,0zm-4.9,-9.9c-0.1,-0.3 -0.2,-0.6 -0.3,-0.9c0,-0.1 -0.1,-0.4 -0.1,-0.4c0,0 0.2,0.7 0.4,1.3zm60,60.1l-1.7,2.1c2.6,-2.4 0,0.7 1.1,-0.2c-0.9,1 -2.8,2.3 -1.6,1.1l0.2,-0.2c0,-0.9 -3.2,3 -3.5,2.6c-1.2,1.2 -2.4,2.4 -3.6,3.5l-1.8,1.7l-1,0.9l-1,-1.1c-0.6,-0.6 -1.2,-1.2 -1.8,-1.9c-1.2,-1.2 -2.4,-2.4 -3.5,-3.6l0.2,0.8l-1.6,-1.6c-0.3,-0.5 -0.3,-0.8 0.8,0.3c-0.4,-0.8 -2.1,-1.8 -2.2,-1.7c-2.1,-2.4 1.2,0.5 0.6,-0.2l-1,-0.9l0.2,0.2c-0.9,-0.6 -1.1,-0.6 -2.5,-1.9c-0.8,-0.9 -0.2,-0.6 -0.6,-1c0,0 -0.1,-0.1 -0.5,-0.5l-2,-2.1l0.6,1.1c-1,-0.8 -1.9,-1.9 -1.2,-0.7c-0.9,-1.8 -7.4,-7.7 -8.1,-8.7c-1.4,-1.1 -2.7,-2.3 -4.2,-3.9c0.3,0.4 0.3,0.9 -1,-0.4c1.1,-0.1 -2.2,-2.7 -2.8,-4.2c0.7,1.2 -3.8,-3.7 -2.7,-1.8c-1.1,-1.2 0.2,-0.3 -0.5,-1.3c-2.9,-2.4 -5.7,-6 -9,-9.1c-0.1,0 0.3,0.7 -0.5,0.1l-1.3,-2.1c-0.7,-0.6 -1,-0.1 -1.9,-1.6c0.1,0.2 0.3,0.6 -0.2,0.2c-6,-6.7 -13.3,-12.7 -19.1,-19.9c0.7,1 0.1,0.5 -0.5,-0.2c0.4,0.5 -0.2,0.2 -0.2,0.4l-2.4,-3c-0.8,-0.2 -2.9,-2.9 -3.5,-2.9l0.9,0.8c-0.8,-0.4 -0.5,0.3 -0.1,1.1l-1.4,-1.4c0.7,-0.8 0.1,-0.6 0.1,-0.5c-0.4,0.4 -0.1,0.4 -0.1,0.5l-1.3,-1.3l0.8,-0.8l19.1,-19.1c0,0.2 0,0.4 -0.1,0.7c-0.1,0.4 -0.1,0.9 -0.1,1.3c-1.6,1.7 -1.2,1.7 0.4,0c-0.1,0.4 -0.3,1.6 -0.3,2.4c0.2,-2 0.2,-0.5 0.4,-1.4c0,-0.6 0,-0.9 0,-1c0,0 0.1,-0.1 0.1,-0.1c0,0 -0.1,0 -0.1,0.1c0,-0.1 0,-0.1 -0.1,0c-0.5,0.4 -1,0.8 -0.4,0c0,0.1 0,0.1 0,0.2c0,0 0,-0.1 0,-0.2c0,0 0,0 0.1,-0.1c0,0 0,0 -0.1,0.1c0.1,-0.4 0.2,-1.3 0.2,-1.3c0,-0.1 0,-0.5 0,-0.7l0.2,-0.2c-0.1,0.5 -0.2,0.9 -0.2,0.9c0,0.1 0.1,-0.1 0.2,-0.9l0.6,-0.6c-0.1,0.4 -0.1,0.8 -0.2,1.1l-0.1,0.3c-0.1,1 -0.1,1.1 0,0.9c0,-0.2 0.1,-0.8 0.2,-1.1c0,-0.1 -0.2,0.9 -0.1,-0.1c0.1,-0.7 0.2,-1 0.2,-1.3l0.2,-0.2c-0.1,0.7 -0.3,1.4 -0.4,2.2l0,0l0,0c-1.4,9.8 0.1,28.2 21.8,50c0.3,0.3 0.6,0.6 0.9,0.9c1.1,1.1 2.2,2.1 3.2,3.1c-1,-0.8 -1.8,-1.4 -1,-0.4l-1.3,-1.3c0.3,0.6 4.3,4.1 5,5l4.6,3.9c-0.2,-0.1 0.5,0.6 -0.3,0c1.1,1 2.1,1.8 0.6,0.6c5.5,4.6 11.2,9.2 17.4,12.9c3.1,1.8 6.5,3.4 10.1,4c1.8,0.3 3.7,0.2 5.5,-0.2c0.9,-0.2 1.7,-0.4 2.6,-0.6c0,0 0.1,0 0.1,0c-1.3,1.6 -2.3,2.7 -2.5,3.5z"/>
    <path stroke="null" id="svg_139" d="m227.950003,28.9c-0.5,0.5 -0.7,0.7 -1,0.9c0.1,0 0.3,-0.1 0,0.2l1,-1.1z"/>
    <path stroke="null" id="svg_140" d="m223.850003,31.5c0,0.5 0.7,-0.4 1.4,-1.3c-0.3,-0.1 -0.9,0.6 -1.6,1.4l0.2,-0.1z"/>
    <path stroke="null" id="svg_141" d="m222.850003,32.5c0,0.2 0.3,-0.3 0.7,-0.7c-0.2,0.3 -0.4,0.5 -0.7,0.7z"/>
    <polygon stroke="null" id="svg_142" points="224.0500030517578,30.299991607666016 224.55001831054688,30.20000457763672 224.85000610351562,29.599998474121094 "/>
    <path stroke="null" id="svg_143" d="m230.050003,24.7l-1.2,1.1c0.1,0 -0.1,0.2 -0.2,0.4c0.6,-0.8 1.5,-1.5 1.4,-1.5z"/>
    <path stroke="null" id="svg_144" d="m228.550003,26.1c-0.4,0.4 -0.7,0.7 -0.9,1c0.2,-0.2 0.6,-0.6 0.9,-1z"/>
    <path stroke="null" id="svg_145" d="m240.950003,13.7c0.1,-0.2 -0.3,0.1 -0.8,0.6c-0.3,0.4 -0.7,0.9 -0.4,0.7l1.2,-1.3z"/>
    <polygon stroke="null" id="svg_146" points="181.4499969482422,77.59999084472656 181.85000610351562,77.90000915527344 180.95001220703125,76.90000915527344 "/>
    <path stroke="null" id="svg_147" d="m223.050003,25c0.3,-0.4 0.5,-0.6 0.4,-0.6c-0.4,0.4 -0.5,0.6 -0.4,0.6z"/>
    <path stroke="null" id="svg_148" d="m326.650003,81.4l-0.2,-0.6c-0.2,-0.2 -0.4,-0.3 -0.5,-0.5c-0.2,-0.2 -0.3,-0.3 -0.5,-0.5c-0.3,-0.3 -0.7,-0.7 -1,-1.1c-0.7,-0.7 -1.3,-1.3 -1.6,-1.5c-0.6,-1.5 -4.8,-5 -6.5,-6.9l-0.3,0.2c-1.2,-1.2 -2.4,-2.3 -4,-3.8l-0.1,0.3c-1.3,-1 -2.7,-2.8 -4.4,-4.6c-0.7,-0.5 -1.5,-1 -2.2,-1.5l0.6,0.5c-0.6,-0.3 -1.6,-0.8 -2.7,-1.4l-1.5,-1.5c-5.3,-3.7 -10.5,-7.6 -15.5,-11.7c-0.5,-0.4 -1,-0.8 -1.5,-1.3c-1.3,-1.1 -2.6,-2.2 -3.8,-3.3c-3.4,-3 -6.8,-6.1 -9.9,-9.3c-0.3,-0.3 -0.5,-0.5 -0.8,-0.8c-0.7,-0.4 -1.5,-0.9 -2.2,-1.4l-0.2,-0.5l-1.7,-1.4c0.4,0.2 1.1,0.5 1.8,0.9c-1.1,-1.2 -2.2,-2.5 -3.3,-3.7c-0.8,-1 -1.6,-1.9 -2.4,-2.9c-0.3,-0.4 -0.6,-0.8 -0.9,-1.1c-3.3,-4.1 -6.6,-8.2 -10,-12.2c-0.2,-0.3 -0.4,-0.5 -0.6,-0.8c0,0 0,0 0,0c-0.8,-0.9 -1.6,-1.8 -2.3,-2.8c0,-0.1 -0.1,-0.1 -0.1,-0.2c-0.8,-1 -1.5,-1.9 -2.1,-3c-0.5,0.5 -1.1,1 -1.8,1.7l0,-0.1c-3.1,2.6 -1.3,1.5 -4,3.7c-0.1,0.1 -0.2,0.2 -0.2,0.3l0.2,0c0.1,0.3 -0.6,0.9 -1.5,1.6c-2.5,3 -5.7,5.7 -9.2,8c-0.6,0.6 -1.1,1.2 -1.7,1.6c0.5,-0.2 1,-0.5 0.2,0.4c-1.2,1.3 -3.9,3 -4.7,4.6c-0.2,0.1 -0.3,0.2 -0.3,0.1c-0.9,1.1 -3,3.3 -3.4,4.1c-1.6,0.2 -5.7,6.5 -6.4,5.8l-1.6,1.6c0.4,1 0.7,2 0.9,3c0,0 0,0 0,0c0.1,0.6 0.2,1.2 0.3,1.8l-1.6,1.6c0.1,0.9 0.1,1.9 0.1,2.8c0,0.4 0,0.7 0,1.1c0,0.1 0,0.2 0,0.3c0.4,1.2 0.9,2.4 1.3,3.5c0.7,-0.2 1.2,-0.5 1.7,-0.6c0,0 0.1,-0.1 0.4,-0.2c0,0 0.1,0 0.1,0c0.1,0 0.1,0 0.2,0c-0.2,0.1 -0.4,0.1 -0.7,0.2c0,0 0.3,0 0.9,-0.3c0.1,0 0.1,0 0.2,0c0.2,0 0.5,-0.1 0.6,-0.2c0.1,0 0.2,-0.1 0.4,-0.1c0.2,-0.1 0.4,-0.1 0.5,-0.1c0,0 0,0 0.1,0c0,0 0,0 0,0l0,0c-0.1,0 0.6,0 1,0l0,0l0,0l0,0l0,0l0.2,-0.1c0.3,-0.1 0.6,-0.2 0.9,-0.3c0.3,-0.1 0.6,-0.1 0.9,-0.2c0.1,0 0.3,0 0.5,0c0.2,0 0.4,0 0.6,0c-0.3,0 -0.6,-0.1 -1.1,-0.1c-0.5,0 -1.1,0.1 -1.6,0.3c-0.1,0 -0.2,0.1 -0.3,0.1l0,0l0,0l0,0l-0.8,0l0,0l0,0l0,0c0,0 -0.1,0 -0.1,-0.1c0.1,0 0.1,-0.1 0.2,-0.1c0,0 0,0 0,0l0,0l0,0l0,0c0.4,0 0.6,0 0.6,0l0,0l0,0c0.1,0 0,0 0,0l0,0c0.1,0 0.2,-0.1 0.2,-0.1c0.4,-0.2 0.9,-0.3 1.5,-0.4c0.3,0 0.6,-0.1 0.9,-0.1c0.3,0 0.8,0 1.3,-0.1c0,0.1 0.5,0.1 1.2,0.1c0.4,0 0.7,0 1.2,0c0.4,0 1,0.1 1.5,0.2c0,0 -0.1,0.2 -0.1,0.2c1.1,0.2 1.7,0.2 2.1,0.3c0.4,0 0.7,0 1.4,0.1c0.7,0.1 1.2,0.3 1.6,0.4c0.3,0.1 0.6,0.3 1,0.4c0.6,0.2 0.8,0.3 1.1,0.4c1,0.1 1.3,0.2 1.3,0.2c0,0 -0.3,-0.1 -0.6,-0.2c-0.3,-0.1 -0.6,-0.2 -0.5,-0.2c0.1,0 0.6,0 1.7,0.3c3.3,1.3 5.7,2 9.7,3.2c2.3,0.9 -0.5,0 0.4,0.3c0,0 0.5,0.2 1.1,0.3c0.5,0.1 1,0.3 1,0.3c0.5,0.2 0.3,0.2 0.2,0.2c0.9,0.3 0.9,0.3 1.1,0.3c0.2,0 0.5,0 1.7,0.7c0.2,0 0.7,0.3 1.3,0.6c0.6,0.3 1.3,0.7 2,1.2c1.5,1 3.2,2.4 4.8,3.3c0.7,0.6 -0.4,-0.1 -0.3,0.1c0.5,0.3 0.9,0.6 1.2,0.9c0.2,0.2 0.3,0.3 0.5,0.5c0.2,0.1 0.3,0.3 0.5,0.4c0.6,0.5 1,0.7 1.3,1c0.7,0.6 1.4,1.2 2.9,2.5c0,0 0.5,0.6 0.9,1.4l0.2,0.3c0.1,0.1 0.2,0.2 0.2,0.3c0.2,0.2 0.3,0.3 0.4,0.4c0.2,0.2 0.4,0.4 0.4,0.4c-0.9,-1 -0.7,-0.9 0,-0.4c0.7,0.5 1.8,1.5 2.6,2.7c-0.1,-0.2 -0.2,-0.3 -0.2,-0.4c0.2,0.3 0.4,0.6 0.6,1c-0.1,-0.2 -0.2,-0.4 -0.4,-0.5c0.1,0.2 0.2,0.3 0.2,0.5l0.2,0.3c0.1,0.1 0.1,0.1 0.1,0.2c0,0 0,0 0,0c0,0 0,0 0,0c0,0.1 0,0.2 0,0.3c-0.1,0.4 -0.1,0.7 0.3,1c0.2,0.1 0.2,0.5 0.2,0.7c0,0 0,0.1 0,0.1c0,0 0,0 0,0c0,-0.1 0,-0.2 -0.1,-0.4c0,-0.1 -0.1,-0.2 -0.1,-0.2c-0.2,-0.1 -0.3,-0.3 -0.3,-0.4c-0.1,-0.3 0,-0.6 0,-0.9l0,-0.2l0,-0.1l0,0l-0.2,-0.4c-0.7,-0.9 -1.4,-1.6 -1.4,-1.4c0.2,0.2 0.5,0.6 0.9,1.2c-0.2,-0.2 -0.3,-0.4 -0.3,-0.2c0,0.1 0.1,0.2 0.2,0.4c0.1,0.1 0.2,0.2 0.2,0.3c0,0.1 0.1,0.1 0.1,0.2l0,0c0,0.1 -0.1,0.3 -0.1,0.5c-0.1,0.3 0,0.7 0,0.7c0,0 0.3,0.4 0.3,0.4c0,0.1 0.1,0.1 0.2,0.2l0,0c0,0 0,0 0,0c0,0 0,0.2 0,0.3c0,0.2 -0.1,0.5 -0.1,0.8c0,0.1 0,0.2 0,0.3l0,0.2l0,0.1c0,0.1 0,0.2 -0.1,0.3c-0.1,0.3 -0.2,0.6 -0.2,1.1c0,0.3 -0.1,0.5 -0.2,0.9c-0.1,0.3 -0.3,0.8 -0.3,1.4l0,0.2c0,0 0,0.1 0,0.1c0,0.1 0,0.2 0,0.3c0,0.2 -0.1,0.4 -0.1,0.6c-0.1,0.5 -0.3,1 -0.3,1.6c0,0.2 -0.1,0.5 -0.3,1c-0.1,0.4 -0.2,0.8 -0.3,1.2c-0.2,0.8 -0.5,1.6 -0.8,2.5c-0.3,0.9 -0.5,1.9 -1,2.8c-0.5,1 -1.1,2 -1.7,3.1c0.7,-1.5 -0.1,-0.5 -0.2,-0.6c0.3,-0.4 0.6,-0.8 0.9,-1.4c0.2,-0.3 0.3,-0.6 0.5,-0.9c0.2,-0.3 0.4,-0.6 0.5,-0.9c0.3,-0.6 0.5,-1.4 0.8,-2.2c0.3,-0.8 0.6,-1.6 0.9,-2.4c-0.6,1.7 -0.6,1.3 -0.4,0.8c0,0 -0.1,0.4 -0.3,0.9c-0.2,0.5 -0.5,1.3 -0.7,2.1c-0.1,0.4 -0.2,0.7 -0.4,1c-0.2,0.3 -0.3,0.6 -0.5,0.9c-0.3,0.5 -0.4,0.9 -0.4,0.9c-0.1,-0.1 -0.2,0.2 -0.5,0.6c-0.3,0.5 -0.7,1.1 -1.2,1.8c0.2,-0.2 0.2,-0.1 0,0.3c-0.2,0.4 -0.5,0.9 -1.1,1.2c-0.3,0.2 -0.6,0.2 -1,0.2c-0.4,0 -0.8,-0.2 -1.3,-0.2c-0.9,-0.1 -1.7,-0.3 -2.3,-0.4c-0.1,-0.1 0.4,-0.1 3.5,0.5c-1.7,-0.5 -2.7,-0.5 -3.8,-0.7c-1.1,-0.2 -2.2,-0.4 -3.8,-0.9c0.7,0.2 1.1,0.3 1.4,0.3c-1.1,-0.2 -3.1,-0.7 -4.2,-1c0,0 0,0 0,0l0,0c0,0 -0.1,0 -0.1,0c-0.2,-0.2 -0.4,-0.3 -0.4,-0.4c-0.1,-0.1 0,-0.1 0.1,0c-0.2,-0.1 -0.5,-0.2 -0.7,-0.3c-0.2,0 -0.4,-0.1 -0.6,-0.1c-0.2,-0.1 -0.4,-0.1 -0.6,-0.2c-0.2,-0.1 -0.4,-0.1 -0.5,-0.2c-0.1,-0.1 -0.2,-0.2 -0.6,-0.4c-0.6,-0.3 -0.9,-0.3 -1.3,-0.5c-0.8,-0.3 -1.7,-0.7 -2.6,-1c-0.8,-0.3 -1.5,-0.8 -2.1,-1.3l-0.1,-0.1l-0.1,0c-0.4,0 -0.8,-0.5 -1.5,-0.9c-0.4,-0.2 -0.6,-0.6 -0.5,-0.9c0.1,-0.9 0.1,-1.6 0.1,-1.7c0,0 0.3,0.7 0.3,1c0,0 0,-0.6 0,-1.4c0,-0.4 0,-0.9 0,-1.5c0,-0.6 -0.1,-1.1 0,-1.6c0.1,-0.6 0.1,-1.1 0.2,-1.7c0,0 0,-0.1 0,-0.2c0.2,-0.9 0.3,-1.8 0.5,-2.6c0.3,-0.3 0.8,-0.9 0.3,2.1c0.1,-0.6 0.3,-1.2 0.4,-2.1c0.1,-0.4 0.1,-1 0.1,-1.5c0,-0.2 0,-0.3 0.1,-0.5c0.1,-0.3 0.2,-0.6 0.3,-1c-0.1,0.2 -0.2,0.5 -0.3,0.6c-0.1,0.2 -0.3,0.4 -0.3,0.4c-0.1,0.1 -0.1,0.1 -0.1,0.1c0,0 0,-0.1 0.1,-0.4c0.4,-0.7 0.5,-1.2 0.7,-1.6c0.1,-0.4 0.2,-0.7 0.3,-1c0.1,-0.3 0.2,-0.6 0.3,-1c0.2,-0.5 0.4,-1.1 0.6,-2.1c-0.3,1.2 -0.4,-0.2 -0.1,-2.1c0,0.3 0.4,-0.1 0.3,0.6c0,0 0.1,-1.2 0.1,-2.4c0,-0.3 0,-0.6 0.1,-0.9c0,-0.1 0,-0.3 0,-0.4c0.3,0.1 0.7,0.2 1.2,0.3c-0.2,-0.1 0.7,0 1.9,0.4c1.2,0.3 2.6,0.7 3.3,0.9l-1.9,-0.6c2.6,0.8 4,0.9 5.2,1.3c0.3,0.1 0.6,0.3 1,0.4c0.4,0 0.7,0 1.1,0.1c0.8,0.2 1.7,0.7 2.9,1.3c-0.6,-0.2 -1.7,-0.2 0.8,1c0.3,0.1 0.8,0.2 1.4,0.4c0.1,0.1 0.3,0.1 0.4,0.2c0.1,0.1 0.3,0.3 0.5,0.4c0.4,0.2 0.8,0.4 1.2,0.6c0.1,0 0.1,0.1 0.2,0.1c0.4,0.1 0.7,0.3 1,0.5c0,0 0,0 0,0c0.7,0.4 1.5,0.9 2.2,1.6c0.3,0.3 0.6,0.7 0.8,1c0,0 0,-0.1 0,-0.1c0.1,-0.3 0.1,-0.5 0.2,-0.8c0,0 0,0 0,-0.1c0,-0.1 0,-0.1 0,-0.2c0,0 0,-0.1 0,-0.1c0,-0.1 0,-0.1 0,-0.2c0,-0.2 0,-0.3 0,-0.3c0,0 0,0 0,0c-0.1,-0.3 -0.1,-0.6 -0.2,-1c-0.1,-0.4 -0.2,-0.9 -0.4,-1.3c-0.1,-0.2 -0.4,-0.4 -0.7,-0.6c-0.4,-0.3 -0.7,-0.6 -1.1,-0.9c-0.2,-0.1 -0.3,-0.2 -0.5,-0.3c0.1,0.1 0.2,0.1 0.1,0c0,0 -0.2,-0.1 -0.4,-0.2c-0.2,-0.1 -0.6,-0.3 -0.9,-0.4c-0.3,-0.2 -0.5,-0.3 -0.8,-0.5c-0.1,-0.1 -0.2,-0.2 -0.4,-0.3c0,0 0,0 -0.1,0c0.1,0 0.8,0.5 0.2,0c-0.1,0 -0.5,-0.2 -1.1,-0.5c-0.6,-0.3 -1.1,-0.6 -1.7,-0.9c-0.4,-0.2 -0.8,-0.3 -1.2,-0.5c-0.3,-0.1 -0.6,-0.3 -0.9,-0.4c-0.1,0 -0.2,-0.1 -0.3,-0.1c-0.1,-0.1 -0.3,-0.1 -0.4,-0.2c-0.8,-0.3 -1.7,-0.5 -2.5,-0.8c-0.1,0 -0.2,-0.1 -0.3,-0.1c-0.1,0 -0.3,-0.1 -0.4,-0.2c-0.1,0 -0.2,0 -0.3,-0.1c0,0 -0.1,0 -0.1,0c-1.2,-0.3 -2.4,-0.6 -3.5,-0.9c0,0 0,0 -0.1,0c-0.8,-0.2 -1.5,-0.5 -2.3,-0.7c-0.4,-0.1 -0.9,-0.3 -1.3,-0.4c-0.7,-0.1 -1.4,-0.3 -2.1,-0.3c-0.5,0 -1.1,0.3 -1.5,0.6c-0.6,0.4 -1.1,0.9 -1.4,1.5c-0.5,1 -1,2 -1.4,3.1c-0.4,1.1 -0.6,2.2 -1,3.3c-0.3,0.8 -0.4,1.6 -0.4,2.4c-0.1,0.7 -0.4,1.4 -0.6,2.1c-0.1,0.4 -0.2,0.9 -0.2,1.3c0,0.5 -0.2,0.9 -0.2,1.3c-0.2,1.1 -0.3,2.2 -0.4,3.4c-0.1,1 -0.1,2 0,3c0.2,1.5 0.4,3 0.7,4.5c0,0.2 0,0.5 0,0.7c0,0.2 0.1,0.4 0.1,0.5c-0.1,-0.1 -0.3,-0.3 -0.4,-0.4c-0.7,-0.8 -1.4,-1.7 -1.9,-2.5c-0.3,-0.5 -0.7,-1 -1,-1.4c-0.3,-0.4 -0.6,-0.8 -0.9,-1.2c-0.6,-0.9 -1.2,-1.7 -1.7,-2.6c-0.6,-0.9 -1.1,-1.6 -1.5,-2.5l0.2,0.6c-1.1,-2 -1.7,-3.1 -2.1,-4c-0.5,-0.9 -0.6,-1.6 -1.1,-3.1c-0.2,-0.5 -0.7,-1 -1.5,-1.2c-0.1,0 -0.2,0 -0.3,0l-0.1,0l0,0c0,0 0,0 0,0l0,0c-0.1,0 -0.2,0.2 -0.5,0.4l0,0l0,0l0,0l0,0.1c-0.1,0.2 -0.1,0.3 -0.1,0.5c-0.1,0.3 -0.2,0.9 0.1,1.3c0.1,0.1 0.1,0.2 0.2,0.3c0.1,0.1 0.1,0.2 0.2,0.3c0,0.1 0.1,0.1 0.1,0.1l-0.1,0.1c0,0.1 -0.1,0.2 -0.2,0.5c-0.1,0.3 0,0.6 0.1,0.9c0.2,0.3 0.3,0.4 0.4,0.6c0.3,0.3 0.5,0.7 0.7,1c-0.5,-0.6 -0.1,0 0.1,0.6c0.3,0.7 0.5,1.3 0,0.3c0.8,1.5 1.3,2.3 1.6,2.9c0.4,0.6 0.5,0.8 0.7,1.1c0.3,0.4 0.5,0.6 1.7,2.3l0.4,0.9c0.2,0.3 0.4,0.5 0.5,0.7l0.1,0.1l0,0c0,0.1 0,0.1 0.1,0.1l0,0l0.1,0.1c0.1,0.1 0.2,0.2 0.3,0.3c0.4,0.5 0.9,1.2 1.7,2.5c-1.5,-2.1 0.9,1.8 -0.8,-0.6c0.4,0.7 0.8,1.4 1.2,2.1c0.4,0.7 0.8,1.3 1.2,1.8c0.8,1 1.4,2 2.1,2.8c0.6,0.8 1.2,1.6 1.7,2.2c0.6,0.7 1,1.3 1.4,2c1.1,1.1 0.2,-0.1 -0.8,-1.3c-1.1,-1.2 -2.1,-2.8 -1.6,-2c-0.4,-0.6 0,-0.1 0.7,0.7c0.7,0.8 1.7,2 2.4,2.8c0.7,0.8 1.3,1.6 2.1,2.6c0.2,0.3 0.5,0.5 0.7,0.8c0.3,0.3 0.7,0.6 1,0.9c0.6,0.6 1.3,1.5 2.5,2.4c-0.3,-0.2 -0.4,-0.3 -0.6,-0.5c0.1,0.1 0.2,0.2 0.3,0.3l0.6,0.5c0.4,0.3 0.8,0.6 1.2,0.9c0.8,0.6 1.7,1.3 2.6,2.2c1.2,0.8 2.5,2.1 3,2.1c0,0 -1,-0.8 -2,-1.5c-1,-0.8 -1.9,-1.6 -1.9,-1.6c1.1,0.9 2.2,1.7 3.5,2.6c0.3,0.2 0.7,0.5 0.9,0.7c0.1,0.2 0.3,0.3 0.5,0.5c0.2,0.2 0.4,0.3 0.6,0.4c0.7,0.5 1.4,1.4 2.4,2c-0.1,0 -0.2,-0.1 -0.4,-0.2c-0.2,-0.1 -0.4,-0.3 -0.6,-0.4c-0.4,-0.3 -0.8,-0.7 -1.2,-1c0.5,0.4 0.9,0.9 1.5,1.4c0.6,0.4 1,0.7 1.4,1.3c-0.1,0 -0.4,-0.3 -0.9,-0.7c-0.1,-0.1 -0.2,-0.2 -0.4,-0.3c-0.1,-0.1 -0.3,-0.2 -0.5,-0.4c-0.3,-0.3 -0.7,-0.6 -1,-0.9c-0.3,-0.3 -0.6,-0.5 -1.1,-0.8c-0.3,-0.3 -0.4,-0.4 -0.6,-0.6c-0.1,-0.2 -0.3,-0.2 -0.5,-0.4c-0.8,-0.6 -1.5,-1.1 -2.1,-1.6c0.3,0.3 0.7,0.6 1.2,1c0.4,0.3 0.9,0.7 1.3,1c0.2,0.2 0.3,0.4 0.5,0.5c0.1,0.1 0.2,0.2 0.3,0.3c0.1,0 0.1,0.1 0.2,0.1c0.2,0.1 0.1,0.1 -0.2,0c0.1,0.1 0.3,0.1 0.4,0.2c0.1,0.1 0.2,0.1 0.3,0.2c0.2,0.1 0.4,0.3 0.7,0.6c0.2,0.2 0.5,0.5 0.8,0.7c0.1,0.1 0.3,0.2 0.4,0.3c0.1,0.1 0.2,0.2 0.4,0.3c0.5,0.5 1,1.1 1.7,1.8c0.4,0.3 0.8,0.6 1.1,0.8c0.4,0.2 0.7,0.5 1.1,0.7l-0.3,0c0.5,0.3 1.5,1 2.3,1.6c0,0 -0.4,-0.3 -0.8,-0.5c-0.4,-0.2 -0.8,-0.5 -0.8,-0.5c1.1,0.7 2,1.6 3.1,2.4c0.3,0.2 0.5,0.4 0.7,0.6c0.1,0.1 0.2,0.2 0.3,0.3l0.1,0.1l0,0.1l0,0l0,0l0,0l0.6,0.4l0,0c0,0 0.2,0.1 0.3,0.2c0,0 0.1,0.1 0.1,0.1l0.1,0.1l0.1,0.2c0.2,0.2 0.4,0.4 0.7,0.5c0.1,0.1 0.2,0.1 0.3,0.2c-0.1,-0.1 -0.2,-0.2 -0.3,-0.2c-0.2,-0.1 -0.4,-0.2 -0.6,-0.4c-0.2,-0.1 -0.3,-0.4 -0.3,-0.4c-0.1,-0.1 -0.2,-0.2 -0.2,-0.2c-0.1,-0.1 -0.1,-0.1 -0.1,-0.1c0,0 0,0 0,0l0,0l-0.6,-0.4l0,0l0,0l0,0c-0.1,-0.2 -0.1,-0.2 -0.1,-0.2c0.1,0 0.1,0.1 0.1,0c0,0 0,-0.2 -0.4,-0.5c0.2,0.2 0.4,0.3 0.6,0.5l0.1,0.1l0,0l0,0l0,0l0.4,0.2l0,0l0,0c0,0 0.1,0 0.1,0c0.1,0 0.1,0.1 0.2,0.1c0.2,0.1 0.2,0.2 0.4,0.4c0.2,0.3 0.4,0.4 0.7,0.6c0.3,0.1 0.4,0.3 0.5,0.5c0.1,0.1 0.1,0.2 0.1,0.4c0.1,0.2 0.1,0.4 0.1,0.6c0.2,0.8 0.4,1.3 1,1.7c0.3,0.2 0.7,0.3 1.1,0.1c0.4,-0.2 0.8,-0.5 1.2,-1.1c0.2,-0.3 0.3,-0.7 0.5,-1.1c0.1,-0.2 0.2,-0.5 0.4,-0.8c0.1,-0.3 0.3,-0.6 0.4,-0.9c0.1,-0.2 0.2,-0.3 0.3,-0.5c0.1,-0.2 0.2,-0.4 0.3,-0.6c-0.1,0.1 -0.2,0.3 -0.3,0.5c-0.1,0.2 -0.2,0.3 -0.3,0.5c-0.2,0.3 -0.4,0.7 -0.6,1c-0.3,0.6 -0.5,0.9 -0.2,0.1c0.2,-0.3 0.4,-0.7 0.6,-1.1l0.3,-0.5c0.1,-0.2 0.3,-0.4 0.3,-0.7c0.4,-0.9 0.6,-1.6 0.8,-2c0.1,-0.2 0.2,-0.6 0.3,-0.9c0.1,-0.2 0.1,-0.4 0.2,-0.6c0.1,-0.3 0.1,-0.4 0.2,-0.5c0.1,-0.1 0,0 -0.2,0.2c-0.2,0.4 -0.5,1.4 -0.3,0.3c0.2,-0.4 0.3,-0.6 0.5,-0.8l0,0l0,0l0,0c0.2,-0.3 0.2,-0.4 0.2,-0.4l0,0l0,0l0,0l0,-0.2l0,-0.3l0,-0.2c0,0 0,-0.1 0,-0.2c0.2,-0.7 0.4,-1.5 0.8,-2.6l0.2,0c0.6,-1.6 0.7,-2.4 0.8,-3c0.1,-0.5 0.1,-0.7 0.1,-0.9c0,-0.3 0.1,-0.6 0.5,-3.4c0,0 0,0.6 -0.1,1.2c0,0.6 -0.1,1.2 -0.1,1.2s0.1,-0.8 0.2,-1.5c0.1,-0.7 0.2,-1.4 0.2,-1.4l0.1,0.6c0.1,-1.5 0.4,-2.5 0.6,-3.5c0,-0.2 0.1,-0.6 0.1,-0.9c0,-0.3 0,-0.6 0,-0.9c0,-0.1 0.1,-0.5 0.1,-0.8c0,-0.3 0.1,-0.7 0.2,-1.1c-0.1,0.4 -0.2,0.2 -0.2,-0.3c0,-0.3 0,-0.6 0,-1.2c0,-0.5 0,-1.1 0,-1.8c0.1,-1.9 0.2,1.1 0.1,-2.9c0.2,0.9 0.3,1.9 0.1,3.6c0.1,0.2 0.1,0.9 0.2,1.1c0.1,-1 0.1,-2.3 0.1,-3.5c-0.1,-1.2 -0.1,-2.3 -0.2,-3c0,0.6 0.1,1.2 0,1.5c0,0 -0.1,-1.4 -0.3,-2.8c-0.2,-1.4 -0.4,-2.9 -0.4,-2.9c-0.1,-0.9 0.1,-0.2 0.2,0.5c-0.1,-0.6 -0.2,-1.1 -0.3,-1.6c-0.1,-0.6 -0.2,-1 -0.3,-1.9c0.1,0.2 0.2,0.3 0.2,0.6c0,0.2 0.1,0.3 0.2,0.6c0.1,0.3 0.2,0.8 0.3,1.4c0,0 -0.1,-0.3 -0.2,-0.9c0,-0.1 -0.1,-0.3 -0.1,-0.4c0,-0.1 0,-0.2 -0.1,-0.4c0,-0.3 -0.1,-0.6 -0.1,-0.9c-0.1,-0.8 -0.2,-1.4 -0.3,-1.9c-0.1,-0.5 -0.2,-0.9 -0.2,-0.9c0,-0.2 -0.2,-1 -0.5,-1.6c-0.1,-0.2 -0.1,-0.2 -0.1,-0.3c0,-0.1 0,-0.1 0,-0.2c0,-0.1 0,-0.1 0.1,0c-0.1,-0.3 -0.2,-0.7 -0.4,-1.2c-0.2,-0.5 -0.4,-0.8 -0.6,-1.1c0,-0.2 0,-0.4 0,-0.6c-0.2,-0.5 -0.4,-0.7 -0.4,-0.9c0,0 -0.3,-0.9 -0.5,-1.2c-0.4,-0.9 -0.9,-1.8 -1.4,-2.7c-0.2,-0.5 -0.5,-1 -0.9,-1.4c-0.3,-0.4 -0.6,-0.8 -0.9,-1.2c-0.1,-0.1 -0.4,-0.5 -1,-1.1c-0.1,-0.2 -0.3,-0.3 -0.4,-0.5l-0.3,-0.6c-0.2,-0.4 -0.5,-0.8 -0.8,-1.2c-0.6,-0.8 -1.1,-1.5 -1.7,-2.2c-0.3,-0.3 -0.7,-0.8 -1,-1.1c-0.3,-0.3 -0.7,-0.6 -1,-1c-0.7,-0.7 -1.5,-1.4 -2.3,-2.1c0,0 -0.4,-0.5 -1,-1c-0.3,-0.2 -0.5,-0.4 -0.8,-0.6c-0.3,-0.2 -0.5,-0.3 -0.5,-0.3c-0.3,-0.1 -0.6,-0.2 -0.8,-0.2c-0.1,0 -0.1,0 0,0.1c0.3,0.1 0.7,0.2 0.7,0.3c0.1,0.1 -0.1,0 -0.8,-0.1c-0.1,0 -0.1,0 -0.2,-0.1c0,0 -0.3,-0.3 -0.7,-0.5c-0.1,-0.1 -0.3,-0.1 -0.4,-0.2c-1.7,-0.9 -1.9,-1.3 -1.9,-1.4c0,-0.1 0.3,0 -0.3,-0.4c-0.2,-0.1 -0.5,-0.4 -0.9,-0.5c-0.6,-0.1 -0.7,-0.1 -0.9,-0.2c0,0 -0.1,0 -0.1,0l0,0l0,0l-0.1,-0.1c-0.3,-0.2 -0.5,-0.3 -0.7,-0.4c-0.5,-0.2 -0.6,-0.2 -1,-0.4c-0.7,-0.4 -1.5,-0.7 -2.3,-1.1c-0.4,-0.2 -0.8,-0.4 -1.3,-0.6c-0.5,-0.2 -0.9,-0.3 -1.3,-0.4c0.5,0.1 1.1,0.3 1.7,0.5c0.6,0.2 1,0.5 1.6,0.7c0,0 -0.6,-0.4 -1.3,-0.7c-0.4,-0.2 -0.8,-0.3 -1,-0.4c-0.3,-0.1 -0.4,-0.1 -0.4,-0.1c0.4,0.1 0.9,0.2 1.3,0.4c0.4,0.2 0.8,0.3 1.1,0.5c0.6,0.3 1.1,0.5 1.5,0.7c0.7,0.3 0.6,0.3 -0.5,-0.4c-0.2,0.1 -0.8,-0.2 -1.9,-0.7c-0.6,-0.3 -1.3,-0.4 -1.8,-0.6l-0.2,-0.1c0,0 0,0 -0.1,0c-0.1,0 -0.2,-0.1 -0.4,-0.2c-0.1,-0.1 -0.2,-0.1 -0.3,-0.2c-0.1,-0.1 -0.3,-0.1 -0.4,-0.1c-0.1,-0.1 -0.4,-0.1 -0.6,-0.2c-0.4,-0.1 -0.7,-0.2 -1,-0.3c-0.3,-0.1 -0.2,-0.1 -0.7,-0.3c-0.7,-0.4 -1.4,-0.5 -2,-0.6c-0.6,-0.1 -0.9,-0.1 -1.2,-0.2c-0.3,-0.1 -0.5,-0.1 -0.6,-0.1c0,0 -0.5,-0.2 -1,-0.3c-0.5,-0.1 -0.9,-0.3 -0.9,-0.3c0.5,0.1 0.6,0.1 1.1,0.3c-3.5,-1.1 -2.8,-0.3 -7.4,-1.1c-0.8,-0.1 -1.5,-0.3 -1.9,-0.3c-0.4,0 -0.4,-0.1 0.2,-0.1c0,0 -1,0 -1.9,0c-0.2,0 -0.5,0 -0.7,0c-0.1,0 -0.3,0 -0.5,0c-0.3,0 -0.6,0 -0.6,0c-0.9,-0.1 -0.8,-0.2 -0.2,-0.1c-0.5,0 -1.4,-0.1 -2.3,-0.2c-0.7,-0.1 -1.5,-0.1 -2.1,0c-0.1,0 -0.2,0 -0.3,0c-0.1,0 -0.1,0 -0.2,0c-0.1,0 -0.2,0 -0.2,0l0,0c-0.2,0 -0.3,0 -0.6,-0.1c-0.3,-0.1 -0.7,-0.2 -1.1,-0.2c-0.4,0 -0.8,0.1 -1.2,0.2c-0.2,0.1 -0.3,0.1 -0.5,0.2c-0.1,0.1 -0.3,0.2 -0.3,0.2c-0.5,0.2 -0.3,0.1 -0.2,0c0.1,-0.1 0.6,-0.4 0.4,-0.3c0,0 -0.3,0.2 -0.4,0.3c-0.2,0.1 -0.4,0.2 -0.8,0.2c-0.3,0 -0.6,0.1 -0.9,0.1c0,0 0,-0.1 -0.1,-0.1c0.4,-0.1 0.8,-0.1 1.2,-0.2c0.2,0 0.3,-0.1 0.5,-0.2c0.1,0 0.5,-0.4 0.8,-0.5c-0.2,0.1 -0.5,0.2 -0.7,0.3c-0.2,0.1 -0.2,0.1 -0.3,0.1c-0.1,0 -0.2,0 -0.4,0.1c-0.3,0 -0.7,0.1 -1.1,0.2c-0.5,-1.2 -1,-2.4 -1.4,-3.4c0.3,-0.3 0.6,-0.5 0.9,-0.8c0,0 0,0 -0.1,0l0,0l0,0c-0.1,0.1 -0.2,0.1 0,0c0,0 0,0 0,0c0,0 0,-0.1 0,-0.2c0.2,-0.5 1.1,-1.7 0.3,-1.2c-1.2,1.2 -0.8,1.1 -1.3,1.8c0,-0.1 -0.1,-0.2 -0.1,-0.2c-0.2,-0.5 -0.2,-0.8 -0.3,-0.9l0,0c0.1,0.1 0.2,0.4 0.3,0.7c-0.1,-0.2 -0.2,-0.5 -0.3,-0.7l2.1,-2.1c-0.1,0.1 -0.1,0.1 -0.2,0.2l0.1,0.1c0.6,-0.6 0.9,-1 0.5,-0.7l1.6,-1.6c-0.8,1.1 0.4,1 1.6,0.4c0,-0.1 -0.1,-0.2 0.9,-1.4c-0.5,0.3 -2.6,2.2 -1.9,1.1c1.3,-1.5 1.2,-1.1 2,-1.7c-0.7,0.3 1,-1.6 1,-2l8.7,-8.7c0,0.1 0,0.1 0.1,0l0.8,-0.8c0.9,-0.6 -1.3,1.8 -0.1,0.8c-0.9,1.2 -1.9,2.6 -3.6,4l-0.6,0c0.1,0 1.2,-0.8 1.5,-1.3c-0.5,0.7 -2.7,2 -3,3l1.3,-0.9c-1,1.2 -2,2.8 -3.4,4.1c0.9,-0.3 0.3,-0.3 1.6,-1c-1.2,0.4 3.5,-3.4 1.7,-2.5c1.3,-0.6 1.9,-1.5 3.4,-2.5c-0.1,0 -0.6,0.3 0.6,-0.8c0,-0.1 0.1,-0.2 0.2,-0.3c0,0 0,0 0.1,-0.1l-0.1,0.1c0,-0.1 0,-0.1 0,0c-0.3,0.2 -0.6,0.4 -0.7,0.4c0.4,-0.7 2.1,-2.5 2.6,-3.2c0.1,0 0.2,0.1 0.2,0.1c0.1,0.1 0.2,0.1 0.3,0.1c0,0 0,0 -0.1,0.1c-0.4,0.3 0,0.4 -0.3,0.6c-0.1,0.2 0.3,-0.1 0.5,-0.5c0.2,0.1 0.4,0.2 0.6,0.3c0.5,0.3 1.1,0.7 3.7,2.2l-0.1,-0.1c1.1,0.7 2,1.3 2.7,1.8c0.7,0.5 1.2,0.9 1.7,1.4l-0.7,-0.5c1.3,1 2,1.5 2.8,2.1c0.7,0.6 1.4,1.1 2.7,2.2c0.2,0.1 0.5,0.5 0.9,0.8c0.4,0.3 0.8,0.7 1,0.8c0,0.1 1.5,1.4 3,2.8c1.5,1.4 3.2,3 3.8,3.5c-1.9,-1.9 -0.9,-1 -0.3,-0.6c1,1.2 1.8,2 3.4,3.4c0.1,0.4 0.2,0.9 3.1,4c-0.4,-0.5 -1.1,-1.3 -0.8,-1c0.3,0.3 1,1 1.2,1.3c0.3,0.3 -0.6,-0.7 -0.2,-0.5c1.9,2.2 3.4,3.7 6.1,6.8c-0.8,-1 0,-0.2 0.3,0.1c0,0.4 3.9,4.2 2.6,3.2c2.8,3 6.1,7 9,10.6c2.9,3.6 5.3,6.7 6.4,7.9c0.6,0.6 1.9,2.5 2.8,3.7l0,-0.2c2.3,3.3 1.9,2.5 4.5,6.4c-1.1,-1.7 -0.5,-1 0.7,0.5l1.8,2.7c0,0 0.1,0.1 0.3,0.2c0.1,0.1 0.2,0.2 0.2,0.2c0.5,1.1 1,2.5 1.3,3.9c0,0.2 0,0.6 0.1,1c0.1,0.6 0.1,1.5 0.2,2.3c0.1,0.8 0,1.6 0,2.3c0,0.7 -0.1,1.2 -0.1,1.4c0.1,0.7 0,1.7 -0.1,2.6c-0.1,0.9 -0.3,1.7 -0.2,2.3c-0.1,0.3 -0.2,0.8 -0.3,1.2l0.7,-0.7l0.6,-0.6l0.5,-0.5c-0.7,0.8 -1.5,1.7 -2,2.4c0.1,0.7 0.1,1.4 0.1,2.2c0,0 0,0 0,0c0,0 0,0 0,0c0.4,-0.4 0.7,-0.7 1,-1.1c1.5,-1.6 3,-3.2 4.6,-4.8c4.6,-4.7 9.1,-8.6 15.6,-11.8l4.1,-4.1c-0.4,0.8 -1.2,1.9 -2.3,3.2c0.3,-0.1 0.6,-0.2 0.8,-0.3c1.5,-1.5 3,-2.9 4.5,-4.3c0.4,-0.3 0.7,-0.6 1.1,-0.7c0.5,-0.5 1,-1.1 1.7,-1.7c-0.8,-0.8 -1.5,-1.5 -2.2,-2.3zm-56.1,5c0.3,-0.7 0.4,-1.4 0.8,-2c0.3,-0.6 0.5,-1.3 0.8,-2c0.2,-0.4 0.4,-0.8 0.6,-1.3c0.2,1.5 0.5,2.9 0.6,4.3c0.1,0.6 0.1,1.3 0.1,2c-0.1,1.1 -0.2,2.4 -0.4,2.2c0.1,0.7 0.2,1.6 0.1,2.5c0,0.5 -0.1,0.9 -0.2,1.5c-0.1,0.5 0,1.1 -0.1,1.6c-0.1,1.1 -0.2,2.2 -0.3,3.4c-0.1,1.2 -0.2,2.4 -0.2,3.6c-0.2,1.1 0,-1 -0.1,-0.4c0,0.3 0,0.7 0,1.1c0,0.2 0,0.4 0,0.6c0,0.1 0,0.2 0,0.2l0,0.1l0,0.2c-0.2,0.9 -0.1,2 -0.6,3.2l0.1,-0.3c0,0.1 -0.1,0.2 -0.1,0.3c0,0.1 -0.1,0.3 -0.1,0.4c-0.1,0.3 -0.1,0.5 -0.1,0.8c0,0.4 -0.1,0.8 -0.2,1.2c-0.2,0.8 -0.6,1.5 -0.9,2.2c0,0.1 0,0.1 -0.1,0.2l-0.2,0.2l-0.3,0.5c-0.2,0.3 -0.4,0.6 -0.6,0.9c-0.4,0.6 -0.8,1.2 -1.2,1.7c-0.3,0.3 -0.4,0.4 -0.8,0.7c-0.3,0.3 -0.6,0.6 -0.7,0.7c-0.1,0.1 -0.1,0.1 -0.2,0.2c-0.1,0 -0.2,0 -0.3,-0.1l-0.2,-0.2c-0.2,-0.1 -0.3,-0.2 -0.4,-0.4c-0.6,-0.5 -1.3,-1.1 -2.1,-1.7c-0.7,-0.6 -1.5,-1.3 -2.3,-2l0.4,0.5c-1.4,-1.2 -1.7,-1.5 -2.4,-2.1c-1.8,-1.2 4.1,3.4 2.4,2.4c-0.4,-0.5 -1.3,-1.2 -2.3,-2.1c-0.3,-0.2 -0.5,-0.5 -0.8,-0.7c-0.2,-0.2 -0.5,-0.5 -0.8,-0.8c-0.6,-0.6 -1.3,-1.1 -1.9,-1.5c-0.3,-0.2 -0.5,-0.5 -0.8,-0.8c-0.3,-0.3 -0.6,-0.6 -0.9,-0.8c-0.5,-0.5 -1.1,-1 -1.5,-1.5c-0.2,-0.2 -0.4,-0.5 -0.5,-0.7l-0.1,-0.2l0,-0.1l0,0l-0.2,-0.2l0,0l0,0c-0.1,-0.1 -0.2,-0.1 -0.2,-0.2c-0.3,-0.3 -0.5,-0.5 -0.5,-0.7c-0.2,-0.3 -0.4,-0.5 -0.5,-0.6c-0.1,-0.2 -0.2,-0.3 -0.3,-0.3c-0.1,-0.1 0,0 0,0.1c0.1,0.1 0.1,0.2 0,0.1c-0.1,-0.1 -0.4,-0.4 -0.9,-0.9c0,0 -0.1,-0.1 -0.2,-0.3c-0.1,-0.1 -0.2,-0.3 -0.2,-0.3s-0.1,-0.1 -0.3,-0.2c-0.1,-0.1 -0.3,-0.2 -0.3,-0.2c-0.3,-0.4 -0.5,-0.7 -0.8,-1.1c-0.2,-0.3 -0.4,-0.5 -0.6,-0.7c-0.3,-0.4 -0.5,-0.6 -0.5,-0.7c0.3,0.3 1,0.9 1.4,1.2c-0.4,-0.5 -0.9,-1 -1.6,-1.5c-0.3,-0.3 -0.7,-0.5 -1,-0.8c-0.3,-0.2 -0.7,-0.5 -0.9,-0.7c-1.1,-1.1 -2,-2 -2.3,-2.3l1.9,2.1c-0.7,-0.7 -1.4,-1.4 -2.2,-2.2c-0.7,-0.7 -1.4,-1.5 -2.1,-2.3c-0.3,-0.3 -0.5,-0.6 -0.8,-0.9c0.7,0.4 1.5,0.7 2.3,1.1c1.2,0.6 2.5,1.2 3.7,1.8c0.6,0.3 1.2,0.4 1.8,0.7c0.6,0.3 1.1,0.5 1.6,0.9c1,0.7 2.1,1 3.2,1.2c0.6,0.1 1.1,0.3 1.7,0.5c1.2,0.5 2.4,0.8 3.7,1c0.8,0.1 1.5,0.4 2.3,0.3c0.9,0 1.7,-0.3 2.6,-0.5c0.2,0 0.4,-0.1 0.7,-0.2c0.3,-0.1 0.6,-0.2 0.9,-0.4c0.8,-0.4 1.5,-0.9 2.2,-1.3c0.8,-0.5 1.1,-1.3 1.5,-2c0.6,-1.2 1.1,-2.4 1.7,-3.6c0.6,-0.9 1.4,-2.3 2,-3.6zm-55.1,-45.5c-0.3,0.4 -0.6,0.7 -0.9,1c0,-0.1 -0.1,-0.3 -0.1,-0.4c1.7,-1.9 -0.6,0.8 1,-0.6zm3.1,-5.1l1.7,-1.7c-0.4,0.5 -1,1.2 -1.7,1.7zm2.1,-2.1c0,0 0,0 0,0l0.1,-0.2l-0.1,0.2zm92.3,34.9c0.2,0.2 2.4,3.1 2.9,3.8c0.1,0.1 0.1,0.2 0.1,0.3l-1.8,-1.8l0.3,-0.4l-0.6,0.1l-1.8,-1.8c0.2,-0.2 0.6,-0.3 0.9,-0.2zm-1.7,4.2l0.9,0.9c-0.1,0 -0.2,-0.1 -0.3,-0.1c0.2,0.1 0.4,0.3 0.6,0.4l0.4,0.4c0.2,0.4 0.4,0.7 0.6,1l-2.1,-1.8c-0.2,-0.3 0.1,-0.2 0.5,0c-0.2,-0.1 -0.3,-0.2 -0.4,-0.3c-0.2,-0.4 -0.2,-0.5 -0.2,-0.5zm-25.1,-25.2l1.2,1.2l-1.6,-0.8c0.2,0 0.3,-0.2 0.4,-0.4zm-27.8,-27.8l-0.3,0.4l0.5,-0.1l1.7,1.7c-0.2,0.3 -0.6,0.4 -0.9,0.3c-0.2,-0.2 -2.3,-2.9 -2.7,-3.6c-0.1,-0.1 -0.1,-0.2 -0.1,-0.3l1.8,1.6zm-6.7,-6.7c-0.5,-0.3 -1,-0.6 -1.4,-1c0.1,0 0,-0.3 0,-0.4l1.4,1.4zm-12.5,2.6l-1.3,1.1c0.4,-0.5 1.3,-1.5 1.9,-2c-0.1,0.1 -0.3,0.2 -0.5,0.4l3.9,-3.9c-0.4,0.9 -1.4,2.3 -2.7,3.8c-1.7,1.8 -1,0.5 -1.3,0.9c-3.4,3.2 0.8,0.5 -2.3,3c-0.1,0.1 -0.2,0.1 -0.3,0.2c-0.2,-0.1 -0.3,-0.2 -0.5,-0.2c0,-0.2 0,-0.3 -0.1,-0.3c1.2,-1.5 2.2,-2 3.2,-3zm19.2,27c-0.1,-0.2 -0.3,-0.4 -0.5,-0.6c0.4,0.5 0.7,0.9 0.3,0.6c0,0 -0.7,-0.8 -1.5,-1.5c-0.4,-0.4 -0.7,-0.8 -1,-1.1c-0.3,-0.3 -0.5,-0.5 -0.5,-0.5c0.3,0.3 0.8,0.7 1.3,1.1c0.2,0.2 0.4,0.4 0.6,0.6c0.2,0.3 0.5,0.6 0.7,0.8c-0.1,-0.1 -0.2,-0.3 -0.3,-0.4c0.5,0.5 1,1 1.5,1.5c0.1,0 -0.1,-0.1 -0.6,-0.5zm36,43.2c0,0 -0.6,-1 -1.4,-2.3c0.5,0.7 1.1,1.4 1.6,2.2c-0.1,-0.1 -0.3,-0.2 -0.2,0.1zm3.7,7c0,0.1 0,0.2 0,0.3c-0.1,-0.7 0,-0.3 0,-0.3zm2.2,10.7l0.2,-0.2c0,0.1 -0.1,0.1 -0.1,0.2c0,0 -0.1,0 -0.1,0zm19.5,-18.8l0,0c-3,2.5 -1.1,1.2 -4.1,3.7l0.4,0.1c0,0.1 0,0.1 0.1,0.1c-0.1,-0.1 -0.4,-0.1 -1.2,0.9l0.7,-0.5c-0.7,1 -3,1.8 -4,2.6c-0.2,0.1 0.2,-0.4 0.5,-0.7c-2.5,2 0,0.6 -1.7,2.3c-0.5,0.2 0,-0.8 -1.1,0.3c-0.7,0.5 -2.8,3.8 -4.7,5.1c0.5,-0.2 0.9,-0.5 0.2,0.4c-0.4,0.5 -1.1,1 -1.7,1.5l0.1,-0.1c0.1,-0.7 0.1,-1.4 0.1,-2.2c-0.1,-0.9 0,-4.9 -1.3,-8.8c-0.3,-1 -0.7,-1.9 -1.3,-2.8c-0.6,-0.9 -1.2,-1.6 -1.7,-2.3c-1.1,-1.4 -1.9,-2.5 -2.5,-3.1c1.4,1.5 0,-0.2 -1.1,-1.8l1.2,1.3c0,0 -0.7,-0.9 -1.3,-1.8c-0.7,-0.9 -1.4,-1.8 -1.4,-1.8c-0.3,-0.4 -0.4,-0.6 -0.6,-0.7c-0.1,-0.1 -0.2,-0.2 -0.2,-0.2c-0.5,-0.6 0,0.2 -1.2,-1.3c-1.9,-2.4 -1.9,-2.6 -2.9,-4l0.3,0.4l-1.3,-1.6c-0.9,-1.2 3.2,4.3 0.1,0.5c0,0 -0.4,-0.7 -0.9,-1.4c-0.5,-0.7 -1.2,-1.6 -1.6,-2.1c1.6,2 1.3,1.8 0.7,1.1c0,0 -0.6,-0.7 -1.1,-1.4c-0.6,-0.7 -1.1,-1.4 -1.1,-1.4l0.9,0.8c-6.4,-7.9 -13.4,-15.9 -20.9,-23.8c0,0.1 -1.3,-1.3 -2.6,-2.6c-1.3,-1.3 -2.5,-2.5 -2.3,-2l0.3,0.3c1.9,1.9 -0.7,-0.4 -2.2,-1.9c1.7,1.5 -2.8,-3 1.3,0.8c0,0 -0.8,-0.8 -1.5,-1.5c-0.8,-0.8 -1.5,-1.5 -1.5,-1.5c-0.7,-1 -2.8,-2.9 -5.4,-5c-2.6,-2.1 -5.8,-4.4 -8.4,-6.3c0.4,0.3 0.5,0.4 0.5,0.4c-1.2,-0.8 -2.4,-1.7 -3.8,-2.5c-0.5,-0.3 -0.9,-0.5 -1.4,-0.8c0.6,-0.6 1.2,-1.2 1.6,-1.6c0.7,-0.6 1.5,-1.9 1,-1.2l2.1,-2.4l0.1,0c1.1,-1.1 -0.8,0.6 0.4,-0.6c0.6,-0.6 1.2,-1.2 1.8,-1.8c0.3,-0.3 0.6,-0.6 1,-0.9c0.2,-0.1 0.3,-0.3 0.5,-0.4l0.2,-0.2l0.1,-0.1c0.1,-0.2 0.3,-0.4 0.5,-0.6c0.1,0.1 0.3,0.3 0.5,0.5c0,0 -0.1,0.3 -0.1,0.3c0,0 0.2,0.2 0.3,0.3c0.1,0.1 0.3,0.3 0.4,0.5c0.3,0.3 0.6,0.7 0.9,1c0.6,0.7 1.2,1.3 1.5,1.4c0.6,1.5 4.5,4.7 6.1,6.5l0.3,-0.2c1.1,1.2 2.3,2.2 3.8,3.5l0.1,-0.3c1.4,1.1 3,3.3 5,5.2c-0.2,-0.1 -0.7,-0.6 -1,-1c1.9,2.8 5.2,4.6 7,7c0.6,0.5 1,0.9 1.3,1.3c-0.1,0 -0.1,-0.1 -0.1,-0.1c0.1,0.1 0.1,0.1 0.2,0.2c0.2,0.3 0.4,0.5 0.6,0.8c-0.2,-0.3 -0.3,-0.5 -0.5,-0.7c0.4,0.4 1,1 1.7,1.5l0,0.5c0,0 0.1,0.1 0.1,0.1c0.5,0.7 0.6,0.4 0.4,-0.1c0.3,0.3 0.7,0.5 0.9,0.7c0.1,0.8 1.7,1.5 2,2.5c0.6,0.2 3.2,2.9 3.9,2.8c0,0.1 0.1,0.3 -0.2,-0.1c0.6,0.7 1.3,1.4 2,1.9l0,0.6l1.8,1.1c0.7,1.1 1,1.5 -0.1,0.8c2.5,1.8 1.9,1.6 4,3.1l-0.3,0.1c0.7,0.6 1.9,1.5 2.2,2c1.1,1.8 7.1,7.2 10.6,11.3c-0.2,-1.2 1.5,2 2.1,1.7c0.1,0.3 0.5,0.9 -0.2,0.4c2,1.8 2.7,3.1 4.3,4c0.1,0.3 -0.6,-0.2 -0.5,0c0.2,0.1 0.7,0.5 0.8,0.8c0.1,0.3 -0.4,-0.2 -0.7,-0.4c2,1.9 2.5,1.7 3,1.5c0.8,1.2 1.3,1.6 2.3,2.1c0.2,0.5 0.7,1.1 -0.6,0c0.7,0.7 4,4.3 4.3,4.1c0.1,0.3 0.9,1 1.1,1.1c0.8,0.8 1.2,1.2 1.6,1.6c0.4,0.4 0.5,0.6 1.1,1.1l-0.2,-0.3c0.3,0.1 0.6,0.3 0.8,0.5c0,0.9 -0.6,1.3 -1.2,1.9zm1.4,-6.7c0.5,0.3 1,0.7 1.4,1.1c-0.1,0 0,0.3 0.1,0.4l-1.5,-1.5z"/>
   </g>
  </g>
 </g>
</svg>