<?xml version="1.0" encoding="utf-8"?>
<!-- Generator: Adobe Illustrator 22.0.1, SVG Export Plug-In . SVG Version: 6.00 Build 0)  -->
<svg version="1.1" id="Calque_1" xmlns="http://www.w3.org/2000/svg" xmlns:xlink="http://www.w3.org/1999/xlink" x="0px" y="0px"
	 viewBox="0 0 500 500" style="enable-background:new 0 0 500 500;" xml:space="preserve">
<g>
	<g>
		<path d="M108.3,178.1c0,0.1,0,0.2,0,0.3C108.3,178.1,108.4,177.9,108.3,178.1z"/>
		<path d="M195.8,157c1.1,0.1,2.7,0.3,2.6,0.3C197.3,157.1,196.5,157,195.8,157z"/>
		<path d="M194.8,156.9c0.3,0,0.6,0,0.9,0C195.3,156.9,194.9,156.9,194.8,156.9z"/>
		<path d="M170.7,156.1c0,0-0.4,0.1-0.4,0.1C171.1,156.2,171.3,156.1,170.7,156.1z"/>
		<path d="M296.1,224.8c-1-1.2-2.1-2.3-2.1-2.3c0.9,1.1,2.4,2.5,4,4.7C297.9,227.2,297.1,226,296.1,224.8z"/>
		<path d="M311.8,221.7c-3.9-5.1-2.3-2.7-2.8-3c0,0,0.7,0.7,1.4,1.5C311.1,221,311.8,221.7,311.8,221.7z"/>
		<path d="M242.6,307.6c0.4,0.3,0.7,0.8,0.9,1.1C243.6,308.8,243.3,308.3,242.6,307.6z"/>
		<path d="M258.2,339.3c0.3,0.2,1.2,0.6,2,1.3c-0.1-0.1-0.3-0.3-0.4-0.4C258.5,339.4,257.9,339.1,258.2,339.3z"/>
		<path d="M221,249.4c0-0.2,0-0.2,0-0.4C221,249.2,221,249.4,221,249.4L221,249.4z"/>
		<path d="M219,253c0,0-0.1,1.9,0,3.7c0.1,0.9,0.3,1.7,0.4,2.5c0.1,0.7,0.2,1.2,0.2,1.2c-0.1-2.6-0.1-4,0.2-5.8
			c0.4-1.7,0.8-3.3,1.2-5.1c0,0-0.5,0.9-0.9,1.7C219.5,252.1,219,253,219,253z"/>
		<path d="M184.2,156.7c0.4,0,0.8,0.1,1.3,0.1C185.5,156.9,185,156.8,184.2,156.7z"/>
		<path d="M298.4,227.5c-0.3-0.6-0.4-0.7-0.4-0.9C297.4,225.9,297.3,225.9,298.4,227.5z"/>
		<path d="M308.5,218.2l0.2,0.3c0.1,0.2,0.2,0.2,0.3,0.2L308.5,218.2z"/>
		<path d="M258.2,215.3c-0.6-0.1-1.3,0-1.9-0.4c-0.5-0.2-0.9-0.4-1.2-0.6c-1.1-0.5-1.2-0.4-0.2,0.5c0.4,0.2,1.4,0.9,2.1,1
			c0.4,0,0.6,0.1,1,0.1c0.2,0,0.3,0.1,0.4,0.1c0.6,0.1,1,0.2,1.3,0.3c0.7,0.2,0.9,0.2,1.1,0.2c0.2,0,0.4,0,1,0.2
			c0.3,0.1,0.6,0.3,1.2,0.6c0.6,0.4,1.4,0.8,2.4,1.3c1.1,0.4-0.5-0.4-2.1-1.4c-1.5-0.9-3-1.5-1.9-1.2
			C260.2,215.7,259,215.4,258.2,215.3z"/>
		<path d="M261.5,216.2c0.9,0.3,1.6,0.6,2.7,1.1C262.5,216.5,261.9,216.3,261.5,216.2z"/>
		<path d="M176,166.2c0.4,0.1,0.6,0.1,0.6,0.1l0.4-0.1c-0.8-0.3-2-0.3-5-0.1c0,0,1.2,0,2.4,0.1C175,166.1,175.6,166.1,176,166.2z"/>
		<polygon points="204.2,158.1 203,157.4 201.6,157.2 		"/>
		<path d="M265.3,177.7c-0.3-0.3-0.9-0.5-1.4-0.6C264.5,177.2,265,177.5,265.3,177.7z"/>
		<path d="M263.8,177c-0.6-0.2-1.1-0.3-1.1-0.3C263,176.8,263.4,176.9,263.8,177z"/>
		<path d="M263.8,177c0.1,0,0.1,0,0.2,0.1C263.9,177.1,263.9,177.1,263.8,177C263.8,177,263.8,177,263.8,177z"/>
		<path d="M265.6,177.9c-0.1-0.1-0.2-0.1-0.3-0.2C265.4,177.8,265.5,177.8,265.6,177.9c1,0.7,1.4,1,1.9,1.4c0.9,0.8,1.7,1.4,2.4,1.9
			c1.3,0.9,1.8,1.3,1.7,0.8c-1.1-0.7-2.4-1.6-3.7-2.5C267.1,178.9,266.3,178.4,265.6,177.9z"/>
		<path d="M164.6,329.9c0.1,0-1.8-1.5,1.2,1.8C165.5,331.3,166.4,331.8,164.6,329.9z"/>
		<polygon points="133.7,290.8 137,296.4 136.7,295.7 		"/>
		<path d="M126.5,279.7c-1.9-3.2-4-7.2-6-10.9c-1.6-3.9-3.1-7.3-4.2-8.9c0.6,1.4,1.4,3.2,2.3,5.1c0.9,1.9,1.7,4.1,2.9,6.2
			c2.3,4.2,4.7,8.8,6.9,12.7l-1.2-3.1L126.5,279.7z"/>
		<path d="M108.1,239.7c-0.2-0.8-0.2-0.9-0.2-1c0,0.1,0.3,1.3,0,0.7c0.5,2,0.8,3.3,1.1,4.1c0.1,0.3,0.2,0.4,0.4,0.9
			C108.5,242,108.4,240.5,108.1,239.7z"/>
		<path d="M109,243.5C107.9,240.8,110.4,247.7,109,243.5L109,243.5z"/>
		<path d="M104.8,223.7c-0.7-3.3-1-4.5-0.2,1.4c-0.2-1.9,0.6,3.2,0.9,4.4L104.8,223.7z"/>
		<path d="M104.8,221.1c0,0-0.4-3-0.3-3C104.5,219.9,104.7,220.6,104.8,221.1z"/>
		<path d="M105.1,224c0.1-2-0.1-2.1-0.4-2.9l0.8,6.3C105.3,224.8,105.2,223.5,105.1,224z"/>
		<path d="M107,232.5c1.2,5.7,0.1,1.6-0.8-1.5C108.8,241.7,109.6,243.2,107,232.5z"/>
		<path d="M118,261.5l-1.9-3.8c-0.3-0.2,2.6,5.6,3.2,7.3L118,261.5z"/>
		<path d="M105.1,218.7c0-1,0-1.6,0-1.6l-0.1-2c0,0,0,0.8,0.1,1.9c0,1.2,0.1,2.7,0.4,4.3c0.4,3.1,0.7,6.2,0.7,6.2s-0.3-2.6-0.6-5.2
			C105.3,221,105.2,219.7,105.1,218.7z"/>
		<path d="M119.9,198.1c0.2-1.6,0.4-3.3,0.7-5.1c0.4-1.8,0.7-3.7,1.1-5.7c-0.7,2.6,0.4-3.3-0.4-0.9c-0.4,2.3-0.6,4.4-0.9,6.3
			C120.2,194.6,120.1,196.4,119.9,198.1z"/>
		<path d="M119.8,192.3c0.6-3.9,0.2-2.4,0-1.9c-0.1,0.9-0.3,1.8-0.4,2.7l-0.2,2.8c-0.1,1.9-0.4,3.8-0.3,5.7c0-1.7,0.3-3.4,0.4-4.9
			C119.4,195.2,119.5,193.7,119.8,192.3z"/>
		<path d="M122.8,235.2l0,0.1c0.1,0.2,0.1,0.3,0.2,0.5L122.8,235.2z"/>
		<path d="M121.2,183.9c-0.4,1.5-1,3.1-1.3,5.9c-0.1,0.9-0.1,0.9,0,0.7c0.2-1.2,0.4-2.3,0.6-3.4C120.7,185.9,121,184.9,121.2,183.9z
			"/>
		<path d="M118.9,208.2c0.1,1.8,0.3,3.4,0.5,4.8C119.5,212.5,119.1,209.6,118.9,208.2z"/>
		<path d="M119.8,220.6l0.4,2.6l-0.1-0.9c0,0,0.1,0.8,0.3,2c0.2,1.2,0.4,2.9,0.8,4.5c0.8,3.2,1.6,6.4,1.6,6.4c0-0.3-0.1-1.3-1-5.6
			C120.7,225.7,120.4,223.5,119.8,220.6z"/>
		<path d="M119.2,214.2c-0.1-1.6-0.2-3.2-0.2-4.3c-0.1-1.2-0.1-2-0.1-2c0,0.1,0,0.2,0,0.3c0-2.1-0.1-4.3-0.1-6.5
			c0,2.1-0.1,4.3-0.2,6.8c-0.1-9.1-0.5,7.2-0.3-5.5c-0.1,2.3-0.2,2.9-0.3,3.9c-0.1,0.5-0.1,1.1-0.1,2.1c0.1,1,0.1,2.3,0.2,4.3
			c0.7,3.9,0.4-2.5,0.6-4.6c0.1-0.3,0.1-0.5,0.1-0.6c0-0.1,0-0.2,0-0.3c0-0.6,0-0.4,0.1,0.1c0,0,0,0.1-0.1,0.1
			c-0.1,1.1,0.2,4.2-0.1,0.6c0.4,5.9,0.5,9.3,1.1,12c0,0-0.1-0.8-0.3-2C119.3,217.4,119.3,215.8,119.2,214.2z"/>
		<path d="M106.9,189.7c0.2-1.5,0.2-1.2,0-0.4C106.9,189.3,106.9,189.3,106.9,189.7z"/>
		<path d="M119.7,185.2l-0.1-0.3c0,0-0.3,1.3-0.4,2.7c-0.1,1.4-0.3,2.7-0.3,2.7s0.1-0.7,0.3-1.6c0.1-1,0.4-2.3,0.8-3.6
			c0.6-2.6,1.4-5.1,1.4-5.1c-0.2,0.3-0.2,0.2-0.4,0.7C120.8,181.1,120.3,182.2,119.7,185.2z"/>
		<path d="M123.5,235.5l0,1.5c0,0,0.2,1.1,0.5,2.3c0.4,1.1,0.7,2.3,0.7,2.3s-0.1-0.4-0.2-0.9c-0.1-0.6-0.4-1.3-0.5-2.1
			C123.7,237,123.5,235.5,123.5,235.5z"/>
		<path d="M129,252.8c0,0-0.3-0.8-0.6-1.7c-0.3-0.9-0.5-1.7-0.5-1.7l-0.1,0.6c0,0,0.2,0.7,0.6,1.4C128.7,252.1,129,252.8,129,252.8z
			"/>
		<path d="M233.6,371.6c-1.5-1.3-3-2.5-4.6-3.6c-1.5-1.2-3-2.4-4.4-3.4c2.7,2.2,4.9,4.1,7.2,5.9C232.5,370.8,233,371.2,233.6,371.6z
			"/>
		<path d="M198.2,361.1c-1.5-1.3-3-2.8-4-3.7C196.3,359.4,197.5,360.5,198.2,361.1z"/>
		<path d="M156,297.5C155.8,297.1,154.2,295.2,156,297.5L156,297.5z"/>
		<path d="M146.9,287.9c0-0.1-0.2-0.5-0.5-1.1C146.7,287.3,146.8,287.7,146.9,287.9z"/>
		<path d="M153.1,294.1c1.3,1.5,2,2.4,2.4,2.9C154.7,295.9,153.9,295,153.1,294.1z"/>
		<path d="M152,292.5c0.5,0.6,1,1.2,1.6,2C152.1,292.4,151.8,292.2,152,292.5z"/>
		<path d="M156,297.5c0.1,0.1-0.1-0.1-0.4-0.5c0.9,1.2,1.9,2.4,3,3.7C157.3,299.1,156.6,298.1,156,297.5z"/>
		<path d="M139.2,273.1c0.7,1.1,1.2,2,2.2,3.7c-0.3-0.5-0.5-1-0.8-1.5c-0.8-1.4-1.5-2.8-1.5-2.8C140,274.2,139.3,273.2,139.2,273.1z
			"/>
		<path d="M142.1,278c-0.3-0.5-0.5-0.8-0.7-1.2c0.1,0.1,0.1,0.3,0.2,0.4C141.9,277.6,142.1,278,142.1,278z"/>
		<path d="M131.2,260.7l-0.3-0.7c1.6,4.2,3.6,7.6,4.1,7.9C132.7,263.8,131.2,259.3,131.2,260.7z"/>
		<path d="M130.5,259.1c-1-2.3-1.7-4.3-1.7-3.8C129.4,256.5,129.9,257.8,130.5,259.1z"/>
		<path d="M163.4,306.7c-1.5-1.8-3.5-4.7-2.9-3.7c0.9,0.8,0,0.6,1.4,2.2C165.6,309.6,165,308.5,163.4,306.7z"/>
		<path d="M147.2,289.3c0,0,1,1.5,2.1,2.9c1.1,1.4,2.3,2.8,2.3,2.8c0.1,0-0.6-0.9-1.7-2.2c-1.1-1.4-2.3-3.3-3.6-5.1
			C146.9,288.5,147.4,289.3,147.2,289.3z"/>
		<path d="M146.3,287.6c-1-1.5-2.5-3.8-3.2-4.8C143.8,283.9,145,285.7,146.3,287.6z"/>
		<path d="M207.7,352.8c2.1,2,3.8,3.3,3.3,2.7l-5.8-5.2C204.2,349.5,206.3,351.5,207.7,352.8z"/>
		<polygon points="173.4,338.9 177.9,342.9 176.4,341.3 		"/>
		<path d="M166.4,331l2.2,2.9l1.4,0.6C169.2,333.9,167.4,332,166.4,331z"/>
		<path d="M250.1,231.4c0,0.1-0.1,0.3,0,0.3C250.1,231.8,250.3,231.6,250.1,231.4z"/>
		<path d="M256.1,233.3L256.1,233.3c0.5,0.3,0.1,0.2,0.2,0.1C256.2,233.3,256.2,233.3,256.1,233.3z"/>
		<path d="M257.3,233.3c0.1,0.1-0.2,0-0.3,0.1l0.3,0.3C257.5,233.6,257.6,233.5,257.3,233.3z"/>
		<path d="M257.3,234l-0.3-0.3c0.1,0.1,0.2,0.3,0.2,0.2C257.1,234.3,257.2,234.1,257.3,234z"/>
		<path d="M256.5,234.1c-0.3-0.3,0-0.2,0.2-0.3C256.1,233.5,255.9,233.8,256.5,234.1z"/>
		<path d="M258.9,234.3l0.2,0.2c0.1-0.1,0.2-0.2,0.3-0.3C259.3,234.3,259,234.2,258.9,234.3z"/>
		<path d="M259.4,234.8l-0.3-0.3C259,234.6,259,234.7,259.4,234.8z"/>
		<polygon points="257.3,234.7 257.4,234.7 256.8,234.2 		"/>
		<polygon points="260.8,234.7 260.6,234.3 260.7,234.6 		"/>
		<path d="M261.6,234.9c0.3-0.1,0.6,0,0.7,0.1c-0.1-0.2-0.3-0.4-0.5-0.5C261.9,234.6,261.5,234.6,261.6,234.9z"/>
		<path d="M260.4,234.7c-0.2,0-0.3,0.1-0.4,0.2l0.1,0.1L260.4,234.7z"/>
		<path d="M258.3,234.7c0.3,0.3,0,0.4,0.1,0.6C258.9,235.3,258.5,235,258.3,234.7z"/>
		<path d="M259.3,234.9c0.1,0.1,0,0.2-0.1,0.3l0.4,0.1L259.3,234.9z"/>
		<polygon points="259.8,235.2 259.7,235.2 259.8,235.3 		"/>
		<path d="M261.7,235.6c0.2,0.1,0.4,0.1,0.7,0.1c-0.2-0.1-0.4-0.1-0.5-0.3C261.6,235.3,261.7,235.5,261.7,235.6z"/>
		<polygon points="264.3,236.3 264.3,236.4 264.4,236.3 		"/>
		<path d="M261.6,235.6C261.7,235.7,261.7,235.6,261.6,235.6c-0.1-0.1-0.2-0.1-0.3-0.2C261.4,235.5,261.4,235.6,261.6,235.6z"/>
		<path d="M261,235.2c0.1,0.1,0.1,0.1,0.2,0.2C261.2,235.3,261.2,235.2,261,235.2L261,235.2z"/>
		<path d="M263.4,236.1l0.1,0.1l0-0.1l0.8,0.2c0-0.1,0-0.2-0.2-0.4C263.8,236,263.6,236.1,263.4,236.1z"/>
		<path d="M262.8,235.7c-0.1,0-0.3,0-0.4,0c0.1,0.1,0.2,0.1,0.4,0.2c-0.6,0,0.3,0.5-0.4,0.2c0.2,0.2,0,0.4,0.5,0.6
			c0.3-0.2,0-0.5,0-0.8L262.8,235.7L262.8,235.7C262.7,235.8,262.7,235.7,262.8,235.7L262.8,235.7c0,0.1,0.2,0.2,0,0.2
			c0.3,0.1,0.5,0.2,0.7,0.2L262.8,235.7L262.8,235.7z"/>
		<polygon points="264.7,236.4 264.5,235.9 264.5,236.2 		"/>
		<polygon points="265.3,236.2 265.3,236.5 265.5,236.5 		"/>
		<path d="M272.8,253c0.3,0.1,0-0.3-0.1-0.6c0,0.1,0,0.3-0.1,0.4L272.8,253z"/>
		<path d="M274.7,239.9c-0.2-0.2-0.5-0.3-0.9-0.4C273.8,239.7,274.3,239.7,274.7,239.9z"/>
		<path d="M274.7,239.9c0.3,0.2,0.4,0.5,0.5,0.7c0.1,0.1,0.1,0.1,0.2,0.1C275.4,240.3,275.1,240,274.7,239.9z"/>
		<path d="M268.5,237.5c0.1,0,0.2,0,0.3,0.1C268.6,237.5,268.6,237.4,268.5,237.5C268.5,237.4,268.5,237.4,268.5,237.5z"/>
		<path d="M276.1,242.2l-0.3-0.1c-0.2-0.7-0.4-1.1-0.5-1.5c-1.5-1-1.3-0.9-1.8-1.2c-0.7-0.3-1.1-0.6-1.4-0.7l0,0.1l-0.7-0.4
			c0.1,0.3-0.1-0.2-0.4-0.2c-0.2-0.2-0.6-0.2-1-0.2l-0.5-0.2c0.5,0.3-0.1,0.4-0.3,0.7l-0.2-0.3c-0.2,0.1,0.1,0.3-0.1,0.3
			c-0.2-0.2-0.8-0.4-0.9-0.8c0.1-0.1,0.1-0.1,0.3-0.1c0,0,0,0,0,0l0,0h0l0-0.1c-0.4-0.1-0.2-0.2-0.2-0.3c-0.6,0.3-0.8-0.1-1.3,0.3
			c0.6-0.5-1-0.3-0.6-0.8c-0.5,0.4-0.2-0.1-0.6,0.3c0.5,0,0.8,0.6,1.1,0.9l-0.5,0.2c0.1,0.6,0.9,0.1,1.1,0.3c-0.1-0.2-0.5-0.2-0.5,0
			l0.2-0.4c0.6,0,0.9,0.5,1.2,0.8c-0.3,0,0.1,0.3,0.1,0.5l-0.6-0.2l0.1,0c0-0.1-0.3-0.1-0.5-0.2c0,0,0,0,0,0l-1.4-0.5l0,0l0,0
			l-1.1-0.4c-0.1-0.2-0.3-0.4-0.1-0.5c-0.3,0.1-0.3,0.3-0.7,0c-0.3-0.3,0.5-0.3,0.7-0.4c-0.3-0.3-0.3-0.4-0.3-0.5
			c-0.3,0.3-0.6,0.7-0.7,1l-2.5-0.9l0.2-0.1l-0.6-0.3c0,0.1-0.1,0.3,0.2,0.3l0,0.1l-1.8-0.7c0.1-0.1,0.2-0.2,0.3-0.3
			c0,0-0.2,0.1-0.5,0.2l-4.5-1.7c0.1,0,0.2,0,0.2-0.1c-0.4,0-1-0.4-1.5-0.7l0.1,0.3l-0.8-0.3l-0.2-0.2l0,0.1l0.1,0.1l-1.7-0.6
			c-0.9-0.3-1.9,0-2.5,0.8c-0.3,0.1-0.3,0.9-0.8,0.9l0,0.8l-0.1,0.2c-0.1,0-0.3,0-0.3-0.2c-0.1,0.2-0.2,0.4-0.3,0
			c0.1,2.6-1.8,4.5-2.2,6.9c-0.1,0.1-0.2,0-0.3-0.1c0.2,0.6-0.4,0.3-0.5,0.5l0.3,0.8c-0.3,0.2-0.4-0.1-0.5-0.1
			c-0.6,1.1-0.5,2.4-1.2,3.1c0.1,0.4,0.5,0.1,0.4,0.5c-0.4-0.7-0.7,1-1,0.5c0.4,0.6-0.4,1.4,0.5,1.6c-0.1,0.5-0.5,0.2-0.5,0.1
			c-0.2,0.5-0.4,0.9-0.8,1.3c0.1,0.4-1.2,2.3-0.8,3c-0.3-0.5-0.2-0.1-0.5,0.2l-0.3-0.4l-0.2,0.7c-0.1,0.1-0.1,0.2-0.1,0.2
			c0,0.1,0.2,0.1,0.2,0.4c-0.2,0.5-0.4,0.4-0.7,0.6l0-0.1l-0.2,0.3c-0.1,0.3,0.7-0.7,0.6,0.2c-0.1-0.1-0.8,0.2-0.6,0.7
			c0.2-0.6,0.4-0.4,0.5-0.2c0,0-0.3,0.8-0.2,0.8l-0.4-0.4c-0.4,1.3,0.1,2.7,1,3.5c0.5,0.4,1.1,0.7,1.7,0.9c0.5,0.2,0.9,0.3,1.3,0.4
			c0.1-0.4,1.2,0.4,1.3-0.2l-0.1,0c-0.4-0.2,0.3-0.4,0.6-0.2c-0.4,0,0.4,0.8-0.5,0.6l0.6,0.5c-0.1,1.3,1.8,0.6,2.7,1.3
			c-0.1-0.1-0.1-0.1-0.1-0.2c0.8,0.7,2.1,0.4,2.3,0.7l0.2-0.3c0.6,0.8,0.7,0.9,1.6,1c0-0.1-0.1-0.2,0.1-0.2c0.1,0.3,0.3,0.6,0.9,0.8
			l0-0.1l1,0.4c0.4-1,1.4,1.2,2.1,0.3c0.1,0.4,0.8,0.7,1.1,1c0,0,0.1-0.1,0.1-0.1c0.2,0.7,1.1,0.2,1.5,0.5c0.2,0.2,0.1,0.3-0.1,0.5
			c0.7-0.2,1.3,1,1.6,0.9c0.4,0.1,0.3-0.3,0.5-0.5c0.6,0.3-0.4,0.9,0.5,0.7c-0.1-0.1-0.2-0.2-0.1-0.2c0.3,0,1.3-0.9,1.5-0.6
			l-0.3,0.1c0.5,0.4,1.6-0.3,1.6,0.4l-0.1,0.3c1.3,0,0.6,0.3,1.8,0.4l0-0.1c0.4,0.2,0.5,0,0.7,0.2c0-0.1,0.1-0.1,0.3,0.1l0,0.3
			c0.3-0.6,0.3-0.7,0.5-1.5c0.1,0,0.3-0.3,0.2-0.5c0.4,0.2,0.8-1.7,0.8-1.7c-0.2,0.4-0.3,0.1-0.4-0.1c0.4-0.1,0.5-0.3,0.4-0.7
			c0.5,0.1,1.1,0.3,1.4-0.4c-0.1,0.1-0.2,0.2-0.3,0.1c-0.1-0.1,0.1-0.2,0.2-0.3c-0.1-0.1-0.2,0.1-0.4,0c0.7-0.3,0.3-0.8,0.7-1.4
			c-0.2,0.2-0.3-0.1-0.4-0.2c0.6,0.2-0.2-1.1,0.5-0.5c0-1.5,1.2-3.3,0.9-4c-0.2-0.2,0.3-0.4,0.4-0.7l-0.3-0.1c0.7-0.5,0.4-0.4,1.1-1
			c-0.4,0.2-0.5,0-0.6-0.4l0.7-0.3l-0.4-0.2c0.2-0.2,0.3-0.4,0.3-0.7c0,0.1-0.1,0-0.1,0c0.6,0.1,0.9-0.8,1.1-0.9
			c-0.4-0.4,0.4-0.6-0.1-0.9c0.1-0.1,0.2-0.1,0.3-0.2c0.2,0.2,0.4,0.3,0.4,0.1l0-0.1l-0.3-0.2c0.1-0.2,0.3-0.4,0.3-0.5
			c0,0.1,0,0.2,0.1,0.3l-0.1-0.3l0-0.1l0,0c0-0.1,0-0.3,0.2-0.4c-0.2-0.9,1.3-1.4,0.9-2.4c0,0.1,0,0.3-0.1,0.3
			c0.3-0.7,0.1-1.5,0.5-1.8l0.3,0.1c0.3-0.4,0.5-0.8,0.7-1.2l0.3,0.1c0.1-0.7,0.9-1.4,0.7-2.4l0-0.1
			C276.3,244,276.1,242.7,276.1,242.2z M239.5,254.1l0-0.2C239.5,253.9,239.7,253.9,239.5,254.1z M253.4,233.6L253.4,233.6
			c0.2,0,0.4,0.1,0.6,0.2L253.4,233.6z M266.3,265.4c0-0.1-0.1-0.2-0.2-0.3l0.1-0.2l0.2-0.1l-0.1,0l0.1-0.3c0.1,0,0.2,0.1,0.2,0.2
			l-0.1,0.1c0.2-0.1,0.4-0.1,0.4,0.1L266.3,265.4z M270.3,238.3L270.3,238.3C270.5,238.3,270.6,238.2,270.3,238.3z M269.4,256.2
			l0.2-0.4c0.2,0.1,0.4,0.2,0.6,0.2L269.4,256.2z M271,240.1C271.1,240.1,271.1,240.1,271,240.1C271.1,240.1,271,240.1,271,240.1
			c-0.2-0.1-0.3-0.1-0.3-0.1c-0.1-0.1-0.2-0.1-0.2-0.2l0.5-0.1c-0.4-0.1-0.7,0.2-1.2-0.1c0.2-0.2-0.1-0.7,0.4-0.9
			c1.1-0.1,0.6,0.9,1.8,1.2c0.1,0.1-0.1-0.5,0.5-0.2c0.7,0.4,0.9,0.9,0.8,1.3c-0.1-0.1-0.3-0.2-0.5-0.3L271,240.1z M272.5,249.9
			l0.2,0.2c-0.3,0.3-0.8,0.4-1.3,0.6l0.3-0.9c0.5-0.2,0.9-0.3,1.2-0.3L272.5,249.9z M272.8,246.8l0.2-0.6l0.5,0.1l-0.5-0.2l0.2-0.6
			c0.1,0,0.1,0,0.2,0.1c0.2,0.3,0.3,1.3,0.3,1.4C273.6,247.1,273.2,247,272.8,246.8z M274.1,243.8c0,0-0.1,0-0.1,0l0.1-0.3
			c0-0.1,0-0.1,0-0.2c0.1,0,0.2,0.2,0.3,0.1C274.3,243.6,274.2,243.7,274.1,243.8z"/>
		<path d="M267.2,236.9l-0.4-0.2c0.1,0.1,0,0.1,0,0.2C266.9,236.9,267,236.8,267.2,236.9z"/>
		<path d="M266.1,237.7c-0.2-0.2-0.5-0.4-0.5,0c0,0,0,0,0,0C265.8,237.8,266,237.9,266.1,237.7z"/>
		<path d="M265.3,237.5c0.1,0,0.1,0,0.2,0.1C265.4,237.5,265.3,237.3,265.3,237.5z"/>
		<path d="M268.9,237.5c0.1-0.1-0.1,0.3,0.1,0.3C269.6,238.2,268.9,237.2,268.9,237.5z"/>
		<path d="M272.3,240.5c0.1,0.1,0.3,0.1,0.3,0l-0.4-0.3C272.1,240.3,272.3,240.4,272.3,240.5z"/>
		<polygon points="247.5,233.2 247.5,233.6 247.7,233.5 		"/>
		<path d="M248.4,232.9l-0.5,0l0.4,0.3C248.2,233.1,248.3,232.9,248.4,232.9z"/>
		<polygon points="71.9,224.9 74.3,221.5 72.1,224.4 		"/>
		<path d="M80.5,215.7l-0.7,0.4l-0.8,2.2c3.9-4.1,8.7-9.8,11.7-12.4C88.1,206.7,84.1,212.7,80.5,215.7z"/>
		<path d="M100,200c0.3-0.2,0.4-0.2,0.5-0.3c0.4-0.4,1-0.9,1.9-1.9C101.5,198,104.3,195.3,100,200z"/>
		<path d="M100.5,199.6C98.6,201.6,102.1,198.6,100.5,199.6L100.5,199.6z"/>
		<path d="M87.2,207.6c0.7-1,4-3.5,3.6-3.6l-2.2,1.7L87.2,207.6z"/>
		<polygon points="166.1,132.5 165.8,132.7 165.8,132.8 		"/>
		<path d="M156,143.6c-0.8,0.6-1.7,1.3-2.6,2C154.3,145.1,155.9,144,156,143.6z"/>
		<path d="M160,138.3l-1.2,1.3c1.5-1.3,2.7-2.1,4.9-3.6c1.8-2.3,2.1-2.9,2-3.2l-6.1,6L160,138.3z"/>
		<path d="M153.3,145.1c1.8-1.6,0.4-0.1-0.1,0.5c0,0,0,0.1,0,0.1l0,0l5.6-6.1C157.5,140.8,156,142.3,153.3,145.1z"/>
		<path d="M121.4,171.8c0.2-0.1,0.3-0.1,0.3-0.1C122,171.3,122.1,171.1,121.4,171.8z"/>
		<polygon points="166.8,133.4 168.9,129.8 166.9,132.2 		"/>
		<polygon points="173.4,126.5 174.8,124.6 173.2,125.8 		"/>
		<path d="M317.8,139l-0.1-1.2c-1.6-1.4-2.6-2.5-3.4-3.6C315.9,136.8,317.5,139.8,317.8,139z"/>
		<path d="M229.6,69c2-1.6,3.5-2.9,4.8-4.2C232,66.7,229.8,68,229.6,69z"/>
		<path d="M234.4,64.8c1.6-1.2,4.4-3.7,4-4.1c-0.1,0-0.3,0.1-0.4,0.2c0,0.1-0.8,0.9-1.4,1.6C236,63.3,235.3,64,234.4,64.8z"/>
		<path d="M69.1,258.5c0.6,0.6,1.6,1.5,2.5,2.4C71.2,260.4,70.5,259.7,69.1,258.5z"/>
		<path d="M198.9,100.6C197.5,102,198.7,100.9,198.9,100.6L198.9,100.6z"/>
		<path d="M190.3,105c0.2-0.3,0.4-0.6,0.3-0.8C190.5,104.5,190.4,104.8,190.3,105z"/>
		<path d="M196.6,102.4c0.6-0.4,1.2-1,1.9-1.5C198.2,101.1,197.6,101.5,196.6,102.4z"/>
		<path d="M197.1,102.4c-0.5,0.4-0.9,0.8-1.2,1.1C195.8,103.7,196,103.6,197.1,102.4z"/>
		<path d="M200.7,98.7c-0.7,0.8-1.5,1.5-2.2,2.1c0.3-0.2,0.4-0.3,0.4-0.2C199.2,100.2,199.8,99.6,200.7,98.7z"/>
		<path d="M53.8,243.6l0.1-1.4l-2.3-0.9C52.2,241.9,53.5,243,53.8,243.6z"/>
		<path d="M321.1,388.2c-0.4,0-0.7-0.1-1-0.1l0,0c-0.4,0-0.9-0.1-1.3-0.2c-6.9,2.2-12.7,3.7-18.7,5.1l-0.5-0.3
			c-1.2,0.3-2.6,0.6-4.2,0.9c-1.6,0.3-3.3,0.7-5.1,1c-3.4,0.7-6.9,0.9-10.4,0.5c-7-0.9-13.3-3.6-16.2-4.5c-1.2-0.6-4.2-2.2-7.6-4
			c-3.4-1.9-7.1-4.1-9.5-5.7l-1.4-0.6c-3.1-2.1-5.7-3.8-7.8-5.4c-2.1-1.6-3.9-3.1-5.7-4.5c-3.2-2.1-6.1-4.5-9-6.8
			c-1.2-1-2.3-2-3.5-2.9c1.4,1.1,3.2,2.4,5.2,3.9c-2.2-1.7-4.6-3.7-7.7-6.1c0.1,0.2,0.4,0.4,0.6,0.6c-1-0.8-2-1.6-3-2.5
			c-2.7-2.4-5.3-4.7-7.9-7c-2.5-2.4-5.1-4.7-7.5-7H199c0,0-2.4-2.4-4.9-4.7c-2.4-2.4-4.8-4.8-4.8-4.8c2.4,2.7-1.8-2-4.8-4.8
			c-3.1-3.1-8.2-7.9-11.7-11.5l-5.9-6.3c6.4,7.2-0.8-0.2-1.4-0.3c0,0-0.9-1.1-1.8-2.1c-0.4-0.5-0.9-1.1-1.2-1.5
			c-0.4-0.4-0.5-0.7-0.5-0.7c-1.6-1.6,2.1,2.9-0.6-0.2c-2.2-3-9-11.6-10.8-14.5c0.4,0.4,1.3,1.3,2.4,2.6c0.3,0.4,0.3,0.4,0.1,0.1
			c0.1,0.1,0.2,0.2,0.2,0.3c-0.1-0.1-0.1-0.2-0.3-0.3c-0.3-0.4-0.7-1-0.9-1.3c-4.1-5.5-2.4-3.6-2.2-3.4c-2.4-3.1-4.2-5.6-5.8-7.8
			c-1.6-2.3-3.2-4.4-4.8-6.8c4.6,6.7-8.8-15.5-5.6-11.5c-2.9-5-1.6-3.6-3.6-6.8c3.2,7.5,7,14.7,10,20.6l-3.5-5.5
			c0.8,2,2.5,5.2,4.6,8.2c2.1,2.9,4.3,5.8,5.3,7.4c-1.3-2.3-4.7-7-5-7.1l1.4,1.2c2.7,3.8,4.9,7.2,7,10.5c2.3,3.1,4.3,5.9,6.3,8.5
			c-4-4.7,4.5,6.1,1.4,2.8l-3-3.9c-1-1.1-0.2,0.1,1,1.8c-5.9-7.3-10.9-14.4-15.2-21.3c0.3,0.5,0.6,0.8,0.6,0.8s-0.3-0.5-0.8-1.1
			c-0.2-0.4-0.5-0.7-0.7-1.1c-0.6-1.1-1.2-2.1-1.2-2.1l-0.9-1.5c-1.5-2.6-2.8-5.2-4.2-7.7l1.4,2.4l-0.9-2.3l-1-1.1
			c-2.1-4.2-4.1-8.2-5.7-12.2c0-1.2-3.6-12-2.2-9c-1.5-3.9-1.6-2.3-3.5-10.8c-0.5-2.7,0-1.1,0.8,1.4c0.4,1.3,0.8,2.8,1.2,4.1
			c0.4,1.3,0.9,2.4,1.1,2.9c-1.1-3.1-1.2-4.7-1.4-5.6c-0.1-0.8-0.1-0.9,0-1c-1.9-5.2-4-9.1-2.7-2.8c0.5,1.6,0.9,3.2,1.4,4.8
			c0.4,1.6,0.8,3.1,1.3,4.4c0.5,1.7,0.9,3,1.1,3.9c-2.9-8.4-4.7-16.2-5.7-23.4c0.6,3.3,0.3,0.6-0.3-3.1l-0.2-0.2
			c-2.5-20.6,1.3-35.1,3.3-40.8c-0.2-0.5-0.3-1.1-0.4-1.7c0.8-1.1,1.1-1.8-0.2-0.9c0-0.2-0.1-0.3-0.1-0.5c0-0.2,0-0.3,0-0.5
			l-1.1-0.5l6.4-6.4c-0.2-2.7-0.3-5.3-0.5-8c-0.1-1.4-0.1-2.8-0.2-4.2c-1.3,2.1-2.7,4.3-4.2,6.5c-0.3,0.5-0.7,1-1,1.5
			c-1,1.5-2,3-3.1,4.5c-0.6,0.9-1.3,1.8-1.9,2.7c-0.8,1.1-1.6,2.2-2.4,3.2c-14,18.7-32,37.6-51.7,50.7c-0.2,0.1-0.4,0.3-0.6,0.4
			c-1.6,1-3.1,2-4.7,3c-0.4,0.3-0.9,0.5-1.3,0.8c-1.3,0.8-2.6,1.5-3.9,2.2c-3,1.6-6.1,3.1-9.1,4.5c-2.8,2.7-5.7,5.5-8.5,8.2
			c7.8,8,15.4,15.9,22.9,23.6l-0.7-2.4l4.7,4.8c1,1.5,1,2.4-2.4-1c1.3,2.3,6.1,5.2,6.4,5.2c6.3,7-3.6-1.5-1.6,0.5l2.8,2.7l-0.5-0.7
			c2.6,1.9,3.2,1.7,7.2,5.8c2.4,2.8,0.8,1.9,1.8,2.9c-0.1,0.1,0.2,0.4,1.5,1.6l5.9,6.1l-1.7-3.1c3,2.3,5.6,5.7,3.6,2.1
			c2.3,4.2,14.8,16.2,20.9,22.3c4.8,3.5,9.5,7,14.2,10.4l0,0c1,0.7,2.1,1.5,3.1,2.2c4.3,3,8.4,6.2,12.5,9.4c0,0-0.1-0.1-0.1-0.1
			c14.3,11.2,27.9,23.7,41,36.2c6.9,4.9,13.6,10.2,19.8,15.8c3.6,3.3,7.2,6.6,10.5,10.1c3.2,3.3,6.5,6.8,9.8,10.4
			c2.6,2.7,5.2,5.5,7.8,8.4c1.2,1.3,2.4,2.6,3.6,3.9c11.4,12.6,22.6,26.1,32.1,39.8c2.3-2.2,4.6-4.4,7-6.6c0.3-0.2,0.5-0.5,0.8-0.7
			c2-1.8,4-3.6,6-5.4c0.7-0.6,1.5-1.3,2.2-1.9c5.1-4.4,10.4-8.5,16.2-12.1c2-2,4.1-4,6.3-5.9c9.7-13.9,20-28.6,31.9-40.1
			c-0.7,0.1-1.4,0.3-2.1,0.4C324,387.9,322.6,388.1,321.1,388.2z M295.7,395.9c1.7-0.5,6.1-1.6,10.2-2.8c4.1-1.2,7.8-2.6,8.3-2.7
			c1.3-0.2,2,0,2.1,0.5c-3.7,1.2-7.1,2.1-10,2.9l-1.3-0.3l-0.1,0.6c-4.2,1.1-7.3,1.7-8.6,1.9c-0.6,0.1-1.1,0.2-1.7,0.4
			C294.8,396.2,295.1,396.1,295.7,395.9z M256.8,389.6c0.7,0.3,2.1,0.8,1.8,0.5c1.5,0.9,3.1,1.7,4.7,2.6c0.7,0.4,1.3,0.7,2,1.1
			C262.7,392.7,259.9,391.4,256.8,389.6c0.1,0.1,0.2,0.1,0.2,0.1C256.9,389.7,256.8,389.7,256.8,389.6
			C256.8,389.6,256.8,389.6,256.8,389.6c-0.7-0.4-1.3-0.7-1.9-1.1C255.5,388.9,256.1,389.3,256.8,389.6z M177.1,322.4
			c6.2,5.7,8.5,8.2,11.1,11c2.6,2.9,5.5,6,13,12.8c1.3,1.3-2.7-3.2,5.1,4.1c5,4.5,9.2,8.6,12.2,11.5c1,1,1.9,1.8,2.6,2.5
			c-9.3-7.7-19.9-17-31.9-28.4c1.3,1.2,2.3,2.1,2.9,2.7c-2.4-2.1-6.5-6.3-8.4-8.3l5.4,4.9c-4.2-4.2-8-7-14.1-13.3
			C176.3,322.8,172.2,318,177.1,322.4z M166.4,313.3c1.4,1.5,2.8,3,4.2,4.5c-1.5-1.6-3-3.2-4.5-4.8
			C166.2,313.1,166.3,313.2,166.4,313.3z M138.8,277c0.1,0.2,0.2,0.3,0.3,0.5c-0.1-0.2-0.3-0.5-0.4-0.7
			C138.7,276.8,138.8,276.9,138.8,277z M125.3,249.6c-0.3-0.9-0.7-1.8-1-2.6c-0.1-0.4-0.2-1-0.2-1
			C124.2,246,124.8,247.8,125.3,249.6z M292.1,416.5l-4.8,5.9c7.1-6.8-0.1,2,3.1-0.5c-2.6,2.9-7.7,6.4-4.5,2.9l0.6-0.4
			c0.1-2.4-9,8.2-9.6,7.3c-3.3,3.3-6.6,6.6-10,9.8l-5,4.8l-2.7,2.5l-2.8-3c-1.6-1.7-3.3-3.5-5-5.2c-3.3-3.4-6.6-6.8-9.8-10.1
			l0.6,2.4l-4.4-4.5c-1-1.4-0.9-2.3,2.3,0.9c-1.2-2.2-5.8-4.9-6-4.8c-5.9-6.6,3.5,1.4,1.6-0.5l-2.7-2.5l0.5,0.7
			c-2.5-1.7-3-1.5-6.8-5.4c-2.2-2.6-0.7-1.8-1.6-2.8c0.1-0.1-0.2-0.4-1.4-1.5l-5.6-5.7l1.6,3c-2.8-2.2-5.3-5.3-3.4-1.9
			c-2.6-5-20.6-21.4-22.5-24.1c-4-3-7.5-6.4-11.7-10.8c0.9,1.2,0.8,2.6-2.8-1.1c3-0.3-6-7.4-7.8-11.6c1.9,3.4-10.7-10.3-7.6-5
			c-2.9-3.2,0.4-0.8-1.5-3.5c-8-6.7-15.7-16.5-25-25.4c-0.4,0.1,0.8,1.9-1.4,0.3l-3.7-5.8c-1.9-1.7-2.9-0.4-5.4-4.4
			c0.3,0.6,0.7,1.6-0.6,0.5c-16.7-18.8-37-35.3-53.1-55.3c2,2.9,0.4,1.3-1.5-0.6c1.1,1.3-0.6,0.5-0.6,1l-6.7-8.3
			c-2.2-0.6-8.1-8-9.7-8l2.5,2.2c-2.2-1.2-1.3,0.8-0.2,3l-3.9-3.9c1.9-2.1,0.2-1.6,0.4-1.5c-1.2,1.1-0.4,1.2-0.4,1.5l-3.5-3.5
			l2.1-2.1l53.1-53.1c0,0.5-0.1,1.2-0.3,2c-0.1,1.1-0.2,2.4-0.3,3.5c-4.4,4.6-3.2,4.6,1.1,0.1c-0.3,1.2-0.7,4.5-0.9,6.6
			c0.6-5.6,0.6-1.3,1-3.9c0.1-1.6,0.1-2.5,0.1-2.9c0.1-0.1,0.2-0.2,0.3-0.3c-0.1,0.1-0.2,0.1-0.3,0.2c0-0.3-0.1-0.3-0.2,0.1
			c-1.5,1.1-2.8,2.3-1.1,0.1c0,0.2,0,0.4,0,0.5c0,0,0-0.2,0.1-0.6c0.1-0.1,0.1-0.1,0.2-0.2c-0.1,0.1-0.1,0.1-0.2,0.2
			c0.2-1.2,0.5-3.6,0.5-3.6c0-0.3,0-1.3,0-1.9l0.5-0.5c-0.3,1.3-0.5,2.5-0.5,2.5c0.1,0.3,0.2-0.3,0.7-2.6l1.5-1.5
			c-0.2,1-0.3,2.1-0.4,3.1l-0.2,0.9c-0.4,2.9-0.2,3.2-0.1,2.5c0.1-0.7,0.4-2.2,0.6-3.1c-0.1-0.2-0.6,2.5-0.3-0.2
			c0.3-1.9,0.5-2.9,0.7-3.6l0.5-0.5c-0.4,1.9-0.7,3.9-1,6.1l-0.1,0.1l0-0.1c-3.8,27.1,0.2,78.4,60.7,138.8c0.8,0.8,1.6,1.7,2.5,2.5
			c3.1,3,6,5.9,9,8.6c-2.7-2.1-5.1-3.9-2.7-1.1l-3.7-3.7c0.9,1.6,11.9,11.5,13.8,13.9l12.7,10.8c-0.6-0.2,1.3,1.8-0.7,0.1
			c3.1,2.7,5.8,5.1,1.5,1.7c15.4,12.7,31,25.4,48.4,35.8c8.7,5,18,9.6,28.1,11.1c5.1,0.8,10.3,0.5,15.2-0.4c2.5-0.5,4.8-1,7.2-1.5
			c0.1,0,0.2,0,0.3-0.1C295.4,411.2,292.4,414.2,292.1,416.5z"/>
		<path d="M188,111.7c-1.4,1.4-2,1.8-2.8,2.4c0.2,0.1,1-0.3,0.1,0.6L188,111.7z"/>
		<path d="M176.6,119c0.1,1.3,2-1.1,4-3.5c-0.7-0.3-2.4,1.7-4.3,3.8L176.6,119z"/>
		<path d="M174,121.7c0,0.5,0.8-0.7,1.9-1.9C175.2,120.5,174.6,121.1,174,121.7z"/>
		<polygon points="177.3,115.5 178.7,115.4 179.3,113.8 		"/>
		<path d="M193.9,99.9l-3.4,3.1c0.1,0.1-0.2,0.5-0.7,1.1C191.8,102.1,194.1,100,193.9,99.9z"/>
		<path d="M189.8,104.1c-1.1,1-2,2-2.5,2.7C187.8,106.2,189,105,189.8,104.1z"/>
		<path d="M224.2,69.4c0.1-0.6-0.9,0.3-2.2,1.7c-0.7,1-1.9,2.4-1.2,2L224.2,69.4z"/>
		<polygon points="58.8,247.1 59.9,247.9 57.4,244.9 		"/>
		<path d="M174.4,100.9c0.9-1,1.3-1.7,1-1.6C174.6,100.3,174.3,100.8,174.4,100.9z"/>
		<path d="M462.2,257.5l-0.6-1.6c-0.5-0.4-1-0.9-1.5-1.5c-0.4-0.4-0.9-0.9-1.3-1.4c-0.9-1-1.9-2-2.8-3c-1.8-2-3.5-3.7-4.3-4.1
			c-1.8-4.3-13.3-13.9-18.1-19l-0.8,0.4c-3.4-3.4-6.8-6.5-11.2-10.5l-0.3,0.8c-3.5-2.7-7.6-7.9-12.3-12.9c-2-1.3-4-2.7-6-4.1
			l1.7,1.4c-1.7-0.8-4.5-2.3-7.6-4l-4.2-4.2c-14.7-10.3-29.1-21.1-42.9-32.5c-1.4-1.1-2.8-2.3-4.2-3.5c-3.6-3-7.2-6-10.7-9.1
			c-9.5-8.4-18.8-17-27.6-25.9c-0.7-0.7-1.4-1.5-2.1-2.2c-2-1.1-4.1-2.4-6-4l-0.7-1.5l-4.8-3.9c1.2,0.5,3,1.4,5,2.5
			c-3.1-3.4-6.1-6.9-9.1-10.3c-2.3-2.6-4.5-5.3-6.8-8c-0.9-1-1.8-2.1-2.6-3.1c-9.3-11.3-18.4-22.7-27.9-33.9
			c-0.6-0.7-1.2-1.4-1.8-2.1c0,0,0,0,0.1,0.1c-2.2-2.6-4.4-5.1-6.5-7.7c-0.1-0.1-0.2-0.3-0.3-0.4c-2.1-2.7-4.2-5.4-6-8.2
			c-1.4,1.3-3.1,2.7-5,4.7v-0.2c-8.5,7.2-3.7,4.2-11.1,10.3c-0.2,0.3-0.4,0.6-0.6,0.9l0.7,0.1c0.2,1-1.6,2.5-4.1,4.4
			c-6.9,8.3-16,15.7-25.5,22.1c-1.6,1.7-3.1,3.3-4.7,4.3c1.3-0.7,2.6-1.4,0.6,1.2c-3.4,3.7-10.8,8.5-13.1,12.7
			c-0.5,0.4-0.8,0.5-0.9,0.4c-2.5,3-8.4,9.3-9.5,11.5c-4.5,0.5-16,17.9-17.8,16l-4.5,4.6c1.1,2.7,1.9,5.5,2.6,8.3
			c0,0,0.1-0.1,0.1-0.1c0.4,1.6,0.7,3.3,0.9,4.9l-4.5,4.5c0.2,2.6,0.2,5.2,0.2,7.9c0,1,0,1.9,0,2.9c0,0.3-0.1,0.5-0.1,0.7
			c1.2,3.3,2.5,6.7,3.6,9.7c1.8-0.7,3.4-1.3,4.8-1.8c0-0.1,0.3-0.2,1.2-0.6c0.1,0,0.2-0.1,0.2-0.1c0.2,0,0.4,0,0.6,0
			c-0.5,0.1-1.2,0.4-2,0.7c0,0.1,0.7-0.1,2.4-0.7c0.2,0,0.4,0,0.6,0c0.6-0.1,1.3-0.3,1.8-0.5c0.4-0.1,0.7-0.3,1-0.4
			c0.6-0.2,1.1-0.4,1.3-0.3c0.1,0,0.1,0,0.2,0.1c0,0,0,0,0,0v0c-0.3,0,1.7,0,2.7,0l0,0l0,0l0,0l0.1,0l0.6-0.2
			c0.8-0.3,1.5-0.6,2.4-0.8c0.8-0.2,1.7-0.4,2.5-0.4c0.4,0,0.9,0,1.3,0c0.5,0,1,0,1.6,0.1c-0.9-0.1-1.7-0.3-3.1-0.2
			c-1.4,0.1-3.1,0.4-4.4,0.8c-0.4,0.1-0.7,0.2-1,0.3l-0.1,0l0,0l0,0l-2.3,0l0,0l0-0.1l-0.1-0.1c-0.1-0.1-0.2-0.1-0.2-0.2
			c0.2-0.1,0.4-0.2,0.6-0.2c0,0,0,0,0,0h0h0l0,0c1.1,0,1.6,0,1.8,0l0,0l0,0c0.2,0,0.1,0,0,0l0.1-0.1c0.2-0.1,0.4-0.2,0.7-0.3
			c1.1-0.4,2.5-0.9,4.1-1.2c0.8-0.1,1.6-0.3,2.5-0.3c0.9-0.1,2.4,0,3.6-0.2c0,0.2,1.3,0.2,3.3,0.2c1,0,2-0.1,3.2,0
			c1.1,0.1,2.8,0.4,4.1,0.5c-0.1,0-0.2,0.6-0.3,0.6c3,0.4,4.8,0.6,5.8,0.7c1.2,0.1,2,0.1,3.9,0.4c1.8,0.4,3.2,0.8,4.4,1.1
			c0.8,0.3,1.8,0.8,2.9,1c1.7,0.5,2.3,0.7,3.2,1.1c2.8,0.4,3.6,0.6,3.6,0.6c0-0.1-0.8-0.4-1.6-0.6c-0.8-0.2-1.5-0.5-1.3-0.5
			c0.2,0,1.6,0,4.7,0.9c9,3.7,15.9,5.5,27.1,9c6.4,2.5-1.3-0.1,1,0.9c0,0,1.5,0.4,2.9,0.9c1.4,0.4,2.9,0.8,2.9,0.8
			c1.4,0.6,0.9,0.6,0.6,0.5c2.4,0.9,2.6,0.8,3.1,0.8c0.5,0.1,1.3,0.1,4.8,2c0.6,0.1,1.8,0.8,3.5,1.6c1.6,0.8,3.6,1.9,5.6,3.3
			c4.2,2.9,9,6.6,13.3,9.2c1.9,1.5-1.2-0.4-0.7,0.3c1.5,0.9,2.5,1.7,3.3,2.4c0.4,0.5,0.9,0.9,1.3,1.3c0.5,0.4,0.9,0.8,1.3,1.1
			c1.6,1.3,2.7,2.1,3.6,2.9c1.9,1.7,3.9,3.3,8.1,6.9c0-0.1,1.3,1.7,2.6,3.8l0.5,0.8c0.1,0.3,0.4,0.6,0.6,0.8
			c0.4,0.4,0.8,0.8,1.1,1.2c0.6,0.7,1,1.1,1,1.1c-2.4-2.7-1.9-2.5,0-1c1.9,1.5,5,4.2,7.2,7.6c-0.2-0.4-0.4-0.8-0.7-1.2
			c0.6,0.9,1.1,1.8,1.7,2.7c-0.3-0.5-0.7-1-1-1.5c0.2,0.4,0.4,0.9,0.6,1.3l0.6,0.7c0.2,0.2,0.3,0.4,0.3,0.6c0,0,0,0.1,0,0.1
			c0,0,0,0.1,0,0.1c0,0.3-0.1,0.5-0.1,0.7c-0.2,1.1-0.3,2,0.8,2.8c0.4,0.3,0.6,1.3,0.6,1.9c0,0.1,0,0.2,0,0.3c0,0-0.1,0-0.1-0.1
			c-0.1-0.2-0.1-0.7-0.4-1.2c-0.1-0.2-0.3-0.5-0.4-0.6c-0.4-0.2-0.8-0.7-0.9-1.1c-0.2-0.9-0.1-1.7,0-2.5l0.1-0.6l0-0.2l-0.1-0.1
			l-0.5-1c-1.9-2.5-4-4.5-3.9-3.8c0.5,0.6,1.4,1.8,2.4,3.2c-0.5-0.6-0.9-1-0.7-0.7c0.1,0.2,0.3,0.5,0.7,1c0.2,0.2,0.4,0.6,0.7,0.9
			c0.1,0.2,0.3,0.3,0.4,0.5v0c-0.1,0.2-0.2,0.7-0.4,1.4c-0.2,0.8-0.1,2-0.1,2c-0.1,0,0.7,1,0.8,1c0.1,0.2,0.2,0.3,0.4,0.5l0.1,0.1
			c0,0,0,0,0,0c0,0.1,0.1,0.5,0.1,0.7c0,0.5-0.2,1.3-0.4,2.3c-0.1,0.2-0.1,0.5-0.1,0.8l0,0.4l0,0.2c0,0.2-0.1,0.6-0.2,0.9
			c-0.2,0.7-0.6,1.7-0.5,3.1c0,0.7-0.2,1.5-0.5,2.4c-0.3,1-0.8,2.2-0.7,3.8l0.1,0.6c0,0.1,0,0.2,0.1,0.3c0,0.2,0,0.5,0,0.7
			c0,0.5-0.2,1.1-0.3,1.7c-0.3,1.3-0.8,2.8-0.7,4.5c0.1,0.6-0.4,1.5-0.7,2.8c-0.3,1.1-0.6,2.2-0.8,3.3c-0.5,2.3-1.3,4.6-2.1,7.1
			c-0.9,2.5-1.3,5.4-2.8,7.9c-1.5,2.7-3,5.6-4.8,8.7c2-4.3-0.2-1.3-0.6-1.8c0.8-1,1.7-2.3,2.5-3.8c0.4-0.8,0.9-1.6,1.4-2.4
			c0.5-0.9,1.1-1.8,1.4-2.6c0.8-1.7,1.3-4,2.1-6.2c0.9-2.2,1.7-4.4,2.4-6.7c-1.6,4.7-1.6,3.5-1.2,2.3c0,0-0.4,1-0.9,2.5
			c-0.5,1.5-1.3,3.7-1.9,5.8c-0.3,1-0.6,2-1,2.7c-0.5,0.9-1,1.7-1.4,2.4c-0.8,1.5-1.2,2.4-1.2,2.4c-0.1-0.3-0.6,0.4-1.5,1.7
			c-0.9,1.3-1.9,3.2-3.2,4.9c0.6-0.6,0.6-0.2,0.1,0.8c-0.6,1-1.5,2.5-3.2,3.3c-0.9,0.4-1.7,0.6-2.7,0.5c-1.1-0.1-2.3-0.4-3.6-0.6
			c-2.5-0.4-4.7-0.7-6.4-1.1c-0.3-0.4,1.1-0.2,9.7,1.3c-4.6-1.3-7.6-1.3-10.5-1.9c-2.9-0.6-6-1.2-10.5-2.6c2,0.5,3.1,0.8,4,0.9
			c-3-0.7-8.7-2-11.7-2.8c0,0,0,0,0,0l0,0c-0.1,0-0.3-0.1-0.4-0.1c-0.5-0.6-1-0.9-1.2-1c-0.2-0.1-0.1-0.2,0.3,0
			c-0.7-0.4-1.4-0.6-2-0.8c-0.5-0.1-1-0.3-1.5-0.4c-0.6-0.2-1.1-0.4-1.7-0.6c-0.5-0.2-1-0.4-1.4-0.5c-0.4-0.2-0.6-0.5-1.5-1
			c-1.5-0.7-2.5-0.9-3.7-1.4c-2.3-0.9-4.8-1.9-7.3-2.7c-2.1-0.7-4.1-2.1-5.8-3.6l-0.4-0.3l-0.4,0c-1.1,0-2.3-1.5-4-2.5
			c-1.1-0.6-1.6-1.6-1.5-2.5c0.2-2.5,0.3-4.3,0.2-4.8c0.1-0.1,0.7,1.9,0.8,2.8c0,0,0-1.5,0.1-3.9c0-1.2,0.1-2.5,0-4.1
			c-0.1-1.5-0.2-3-0.1-4.5c0.2-1.6,0.4-3.2,0.5-4.7c0-0.1,0.1-0.3,0.1-0.4c0.5-2.4,0.9-4.9,1.3-7.3c0.9-0.9,2.1-2.4,0.9,5.7
			c0.4-1.6,0.8-3.5,1.2-5.8c0.2-1.1,0.4-2.7,0.4-4.1c0-0.7-0.1-0.7,0.3-1.4c0.4-0.8,0.6-1.7,0.9-2.7c-0.2,0.6-0.5,1.3-0.8,1.8
			c-0.4,0.6-0.7,1.1-0.9,1.2c-0.2,0.2-0.3,0.3-0.4,0.2c-0.1-0.1-0.1-0.3,0.2-1c1.1-2,1.5-3.5,1.8-4.5c0.3-1.1,0.5-1.9,0.7-2.7
			c0.2-0.9,0.4-1.5,0.9-2.9c0.5-1.3,1-3.2,1.6-5.8c-0.7,3.4-1.1-0.6-0.3-5.9c0,0.9,1.1-0.3,0.9,1.7c0,0,0.2-3.4,0.4-6.7
			c0-0.8,0.1-1.6,0.2-2.4c0-0.4,0.1-0.8,0-1.2c0.7,0.3,2,0.5,3.3,0.7c-0.6-0.2,1.8,0,5.3,1.1c3.4,0.9,7.3,2,9.1,2.5l-5.4-1.7
			c7.2,2.2,11.2,2.4,14.3,3.6c0.8,0.3,1.6,0.8,2.8,1.1c1.2,0,2,0.1,3.1,0.3c2.2,0.5,4.7,2,8.1,3.6c-1.7-0.6-4.7-0.7,2.2,2.7
			c0.9,0.3,2.3,0.5,3.8,1.1c0.4,0.2,0.7,0.4,1.1,0.7c0.4,0.3,0.9,0.7,1.4,1c1,0.6,2.2,1.1,3.3,1.6c0.1,0.1,0.3,0.2,0.5,0.3
			c1,0.4,1.9,0.9,2.9,1.4c0,0,0-0.1,0-0.1c2.1,1.1,4.1,2.6,6,4.5c0.9,0.9,1.5,1.8,2.2,2.7c0-0.1,0.1-0.2,0.1-0.2
			c0.3-0.7,0.4-1.4,0.4-2.2c0-0.1,0-0.1,0-0.2c0-0.2,0-0.4,0-0.5c0-0.1,0-0.3,0-0.4c0-0.2,0-0.4,0-0.5c0-0.4-0.1-0.7-0.1-0.7
			c0,0,0,0.1,0,0.1c-0.1-0.9-0.3-1.8-0.6-2.6c-0.3-1.2-0.6-2.4-1.1-3.5c-0.4-0.7-1.2-1.1-1.9-1.7c-1-0.8-2-1.7-3.1-2.5
			c-0.4-0.3-0.9-0.5-1.3-0.8c0.4,0.1,0.6,0.2,0.4-0.1c0,0-0.5-0.3-1.1-0.6c-0.7-0.4-1.6-0.7-2.5-1.2c-0.8-0.5-1.5-0.9-2.2-1.4
			c-0.3-0.2-0.7-0.5-1-0.7c0,0-0.1-0.1-0.2-0.1c0.3,0,2.3,1.3,0.6,0c-0.3,0-1.4-0.6-3.1-1.5c-1.6-0.9-3.2-1.8-4.8-2.6
			c-1.1-0.5-2.3-0.9-3.4-1.4c-0.9-0.4-1.8-0.8-2.6-1.2c-0.4-0.1-0.6-0.2-0.9-0.3c-0.4-0.2-0.8-0.4-1.2-0.5c-2.3-0.9-4.6-1.5-6.9-2.3
			c-0.3-0.1-0.5-0.2-0.8-0.3c-0.3-0.1-0.7-0.3-1.2-0.5c-0.3-0.1-0.5-0.1-0.8-0.2c-0.1,0-0.2-0.1-0.4-0.1c-3.3-0.9-6.6-1.7-9.8-2.6
			c0,0-0.1,0-0.1,0c-2.1-0.6-4.2-1.3-6.3-2c-1.2-0.3-2.4-0.8-3.7-1c-1.9-0.4-3.8-0.9-5.7-0.8c-1.5,0.1-3,0.9-4.3,1.6
			c-1.7,1-3.1,2.4-3.9,4.2c-1.3,2.8-2.7,5.7-3.8,8.6c-1.1,3-1.6,6.2-2.7,9.3c-0.8,2.2-1.1,4.4-1.2,6.8c-0.1,2-1.1,3.9-1.6,5.9
			c-0.3,1.2-0.6,2.4-0.5,3.6c0.1,1.4-0.4,2.5-0.6,3.7c-0.6,3.1-0.9,6.2-1,9.4c-0.1,2.7-0.2,5.5,0,8.2c0.5,4.2,1.2,8.4,1.9,12.6
			c0.1,0.7,0,1.4,0,2c0,0.5,0.2,1,0.3,1.5c-0.3-0.4-0.7-0.8-1-1.2c-1.8-2.3-4-4.8-5.4-7c-0.8-1.3-1.9-2.7-2.7-3.8
			c-0.9-1.2-1.7-2.2-2.5-3.5c-1.6-2.4-3.2-4.8-4.8-7.2c-1.6-2.4-2.9-4.5-4.3-6.9l0.6,1.5c-3.1-5.5-4.7-8.5-5.9-11.1
			c-1.4-2.6-1.7-4.4-3.2-8.6c-0.6-1.5-2-2.9-4.1-3.3c-0.3-0.1-0.5-0.1-0.8-0.1l-0.2,0l0,0c0,0,0,0,0,0h0c-0.2,0.1-0.6,0.4-1.5,1.1v0
			v0l0,0.1l-0.1,0.3c-0.1,0.4-0.2,0.9-0.4,1.3c-0.1,0.8-0.5,2.4,0.2,3.6c0.2,0.3,0.4,0.6,0.5,0.9c0.2,0.2,0.4,0.5,0.6,0.8
			c0.1,0.1,0.2,0.3,0.3,0.4l-0.2,0.4c-0.1,0.3-0.3,0.6-0.5,1.4c-0.2,0.8-0.1,1.7,0.3,2.5c0.4,0.8,0.8,1.2,1.1,1.7
			c0.7,1,1.4,1.9,2,2.9c-1.3-1.7-0.2,0,0.4,1.6c0.7,1.9,1.4,3.6,0,0.9c2.1,4.2,3.5,6.4,4.4,8.1c1,1.6,1.5,2.3,1.9,2.9
			c0.9,1.2,1.3,1.6,4.7,6.5l1.1,2.5c0.6,0.8,1,1.4,1.4,2l0.1,0.2l0,0c0,0.1,0.1,0.4,0.2,0.4l0.1,0.1l0.2,0.2
			c0.2,0.3,0.5,0.6,0.7,0.9c1,1.4,2.4,3.2,4.8,6.9c-4.1-5.9,2.5,5-2.1-1.6c1.1,2,2.2,3.9,3.2,5.7c1.1,1.9,2.3,3.5,3.4,4.9
			c2.1,2.9,4,5.4,5.7,7.7c1.7,2.3,3.2,4.3,4.8,6.2c1.5,1.9,2.8,3.5,3.9,5.4c3.1,3.1,0.6-0.3-2.2-3.7c-3-3.5-5.9-7.7-4.4-5.7
			c-1-1.8,0.1-0.4,2.1,2c2,2.3,4.8,5.5,6.6,7.8c1.9,2.3,3.5,4.4,5.9,7.2c0.6,0.7,1.3,1.4,2,2.2c0.7,0.8,1.9,1.8,2.7,2.5
			c1.8,1.5,3.7,4.1,6.9,6.6c-0.8-0.6-1.2-0.9-1.7-1.3c0.3,0.3,0.6,0.6,0.9,0.8l1.7,1.3c1.1,0.8,2.2,1.7,3.4,2.6
			c2.3,1.7,4.6,3.7,7.1,6.1c3.3,2.1,7,5.7,8.3,5.9c0,0-2.7-2.1-5.5-4.2c-2.7-2.2-5.3-4.5-5.3-4.5c3,2.5,6.1,4.8,9.7,7.4
			c0.9,0.7,1.9,1.3,2.6,2c0.4,0.4,0.8,0.9,1.3,1.4c0.5,0.6,1.1,0.9,1.7,1.2c2,1.3,3.9,3.8,6.5,5.7c-0.2-0.1-0.6-0.3-1-0.6
			c-0.5-0.3-1.1-0.7-1.7-1.2c-1.1-0.9-2.3-2-3.3-2.8c1.3,1.2,2.5,2.6,4.1,3.8c1.6,1.1,2.7,2.1,4,3.6c-0.3-0.1-1.2-0.9-2.4-1.9
			c-0.3-0.3-0.7-0.5-1-0.7c-0.3-0.3-0.9-0.7-1.4-1c-0.9-0.8-1.8-1.7-2.7-2.5c-0.9-0.9-1.6-1.4-3.1-2.3c-0.8-0.7-1.1-1.2-1.5-1.7
			c-0.3-0.4-0.7-0.6-1.3-1.1c-2.1-1.6-4.2-3.2-5.9-4.4c0.7,0.7,1.9,1.7,3.2,2.7c1.2,0.9,2.5,1.9,3.6,2.7c0.5,0.6,0.9,1.1,1.3,1.5
			c0.3,0.3,0.6,0.6,0.8,0.7c0.2,0.1,0.4,0.2,0.5,0.3c0.5,0.4,0.4,0.4-0.7,0c0.4,0.2,0.8,0.4,1.1,0.5c0.3,0.2,0.6,0.3,0.9,0.6
			c0.6,0.4,1.2,1,1.9,1.6c0.7,0.6,1.4,1.3,2.3,2c0.4,0.3,0.8,0.6,1.2,0.9c0.4,0.3,0.7,0.6,1,0.9c1.4,1.3,2.7,3.1,4.6,4.9
			c1,0.9,2.2,1.6,3.2,2.2c1,0.7,2,1.3,3.1,2l-0.8,0c1.3,0.9,4.2,2.7,6.3,4.6c0,0-1.1-0.7-2.2-1.4c-1.1-0.7-2.3-1.4-2.3-1.4
			c3.2,2,5.5,4.4,8.7,6.8c0.8,0.6,1.4,1,1.9,1.5c0.3,0.2,0.5,0.5,0.8,0.7l0.3,0.4l0.1,0.2l0,0l0,0v0l1.7,1.1v0
			c0.1,0,0.5,0.3,0.8,0.7c0.1,0.1,0.2,0.2,0.3,0.3l0.2,0.3l0.4,0.5c0.5,0.6,1.1,1,1.8,1.3c0.4,0.2,0.6,0.3,0.8,0.6
			c-0.3-0.4-0.6-0.5-0.8-0.6c-0.6-0.3-1.2-0.6-1.6-1.1c-0.4-0.4-0.9-1.1-0.9-1.1c-0.2-0.3-0.5-0.5-0.6-0.7c-0.2-0.1-0.3-0.2-0.4-0.2
			c0,0-0.1,0-0.1,0l0,0l-1.6-1.1l0,0l0,0l-0.1-0.1c-0.3-0.5-0.3-0.6-0.2-0.5c0.2,0,0.4,0.2,0.4,0c0-0.1-0.1-0.5-1.2-1.5
			c0.7,0.5,1.2,0.9,1.6,1.4l0.1,0.2l0,0v0l0,0l1.1,0.7l0,0l0.1,0c0.1,0,0.2,0,0.3,0.1c0.2,0.1,0.4,0.2,0.6,0.3
			c0.4,0.3,0.7,0.6,1,1.1c0.5,0.7,1.2,1.2,1.9,1.5c0.8,0.4,1.2,0.9,1.4,1.5c0.1,0.3,0.2,0.6,0.4,1c0.1,0.6,0.3,1.1,0.4,1.7
			c0.5,2.2,1.1,3.6,2.7,4.7c0.8,0.6,2.1,0.9,3.1,0.4c1.1-0.5,2.3-1.3,3.3-3.1c0.4-0.9,1-1.9,1.5-3.1c0.3-0.7,0.7-1.4,1-2.2
			c0.4-0.7,0.8-1.5,1.2-2.4c0.2-0.4,0.5-0.9,0.7-1.3c0.2-0.4,0.6-1.2,0.9-1.8c-0.1,0.4-0.5,0.9-0.8,1.5c-0.2,0.4-0.5,0.9-0.8,1.4
			c-0.6,0.9-1.1,2-1.5,2.8c-0.9,1.7-1.4,2.4-0.5,0.2c0.5-1,1-2,1.6-3l0.9-1.5c0.3-0.6,0.7-1.2,1-1.8c1.1-2.5,1.6-4.5,2.1-5.6
			c0.3-0.7,0.6-1.8,0.8-2.4c0.2-0.7,0.4-1.2,0.5-1.6c0.3-0.8,0.4-1.1,0.5-1.3c0.1-0.3-0.1-0.1-0.4,0.4c-0.6,1.1-1.5,3.8-0.8,0.8
			c0.5-1.1,0.9-1.7,1.4-2.2l0.1-0.1l0.1-0.1v0c0.4-0.8,0.5-1,0.6-1.1l0,0l0,0l0-0.1l0.1-0.5l0.1-0.8l0.1-0.6c0-0.1,0-0.2,0.1-0.5
			c0.6-1.8,1.2-4.1,2.3-7.2l0.4,0.1c1.8-4.3,2-6.8,2.3-8.3c0.2-1.4,0.2-2,0.2-2.5c-0.1-0.9,0.2-1.8,1.4-9.5c0,0-0.1,1.7-0.1,3.3
			c-0.1,1.7-0.2,3.4-0.2,3.4s0.4-2.1,0.6-4.1c0.2-2,0.5-4,0.5-4l0.3,1.7c0.3-4.2,1.2-6.9,1.7-9.8c0.1-0.6,0.3-1.6,0.4-2.5
			c0.1-0.9,0-1.7,0.1-2.4c0-0.3,0.2-1.4,0.3-2.3c0.1-0.9,0.3-1.9,0.4-3c-0.3,1-0.4,0.7-0.4-0.8c0-0.7,0.1-1.8,0.1-3.3
			c0-1.4-0.1-3-0.1-4.9c0.3-5.3,0.6,3,0.3-8c0.5,2.5,0.7,5.2,0.3,9.9c0.1,0.5,0.3,2.4,0.4,3c0.2-2.9,0.2-6.4,0.2-9.8
			c-0.2-3.3-0.4-6.5-0.5-8.5c0.1,1.5,0.1,3.3,0.1,4.2c0,0-0.4-3.9-0.7-7.9c-0.4-4-1.1-7.9-1.1-7.9c-0.2-2.5,0.2-0.6,0.6,1.4
			c-0.2-1.6-0.5-3-0.9-4.5c-0.4-1.7-0.7-2.8-0.8-5.3c0.2,0.6,0.4,0.8,0.6,1.7c0.1,0.4,0.2,1,0.4,1.7c0.2,0.7,0.5,2.1,0.8,3.8
			c0,0-0.2-0.9-0.5-2.4c-0.1-0.4-0.1-0.7-0.2-1.1c-0.1-0.3-0.1-0.7-0.2-1c-0.1-0.7-0.2-1.6-0.3-2.6c-0.2-2.1-0.6-3.9-0.8-5.4
			c-0.3-1.5-0.6-2.5-0.6-2.5c0-0.5-0.5-2.7-1.3-4.4c-0.2-0.5-0.3-0.7-0.3-0.8c-0.1-0.2-0.1-0.4-0.1-0.5c0-0.3,0-0.3,0.1,0
			c-0.2-0.7-0.4-1.9-1-3.3c-0.6-1.3-1.1-2.1-1.6-2.9c0-0.6,0.1-1.2-0.1-1.7c-0.4-1.4-1-2-1.2-2.4c-0.1,0-0.9-2.4-1.5-3.4
			c-1.2-2.4-2.5-5-3.8-7.5c-0.7-1.3-1.5-2.7-2.4-3.9c-0.9-1.2-1.7-2.3-2.6-3.4c-0.4-0.4-1.2-1.3-2.6-3c-0.4-0.5-0.7-1-1-1.4
			l-0.9-1.6c-0.7-1.2-1.4-2.3-2.2-3.4c-1.6-2.2-3.1-4.1-4.8-6.1c-0.8-0.9-1.9-2.1-2.9-3c-1-0.9-1.8-1.7-2.9-2.7
			c-1.9-1.9-4.1-3.9-6.4-5.9c0,0-1.1-1.4-2.8-2.8c-0.7-0.6-1.4-1.1-2.1-1.6c-0.7-0.4-1.3-0.7-1.3-0.7c-0.8-0.3-1.8-0.5-2.1-0.5
			c-0.4,0-0.4,0.1-0.1,0.4c0.8,0.2,1.8,0.7,2,0.9c0.2,0.2-0.3-0.1-2.1-0.3c-0.1,0-0.4,0-0.6-0.2c-0.1,0-0.8-0.8-2-1.4
			c-0.4-0.2-0.7-0.3-1.2-0.6c-4.6-2.6-5.4-3.6-5.3-3.8c0-0.2,0.8,0-0.8-1.2c-0.5-0.3-1.4-1-2.5-1.5c-1.5-0.4-2-0.4-2.5-0.6
			c-0.1,0-0.2-0.1-0.3-0.1l0,0l-0.1,0l-0.3-0.2c-0.7-0.6-1.4-0.9-2-1.2c-1.3-0.5-1.7-0.6-2.8-1.1c-2-1-4.1-2-6.4-3.1
			c-1.1-0.5-2.3-1.2-3.7-1.7c-1.4-0.5-2.6-0.8-3.7-1.2c1.5,0.4,3.1,0.7,4.7,1.4c1.6,0.7,2.8,1.3,4.3,2.1c0,0-1.7-1-3.6-2
			c-1.1-0.6-2.2-0.9-2.9-1.2c-0.7-0.2-1.2-0.4-1.2-0.4c1.1,0.2,2.4,0.5,3.6,1c1.2,0.5,2.1,0.9,3,1.3c1.7,0.8,3.1,1.5,4.1,1.9
			c1.8,0.8,1.7,0.7-1.4-1.2c-0.4,0.2-2.3-0.7-5.2-1.9c-1.7-0.7-3.6-1.1-5.1-1.6l-0.6-0.2c-0.1-0.1-0.1,0-0.2-0.1
			c-0.2-0.1-0.6-0.3-1.1-0.6c-0.3-0.2-0.5-0.3-0.9-0.5c-0.3-0.2-0.9-0.4-1.1-0.4c-0.4-0.1-1.1-0.3-1.5-0.4c-1-0.2-1.9-0.5-2.9-0.7
			c-0.9-0.1-0.5-0.2-1.9-0.9c-2-1-3.9-1.4-5.5-1.7c-1.6-0.3-2.4-0.4-3.3-0.6c-0.9-0.2-1.5-0.2-1.7-0.1c0.1,0-1.4-0.5-2.6-0.9
			c-1.3-0.4-2.5-0.7-2.5-0.7c1.5,0.3,1.7,0.4,3.2,0.7c-9.8-2.9-7.8-0.9-20.7-2.9c-2.2-0.4-4.2-0.7-5.4-0.8c-1-0.1-1.1-0.2,0.6-0.2
			c-0.1,0-2.7,0-5.2,0.1c-0.6,0.1-1.3,0.1-1.8,0.1c-0.4,0-0.9,0-1.4-0.1c-0.9,0-1.6-0.1-1.6-0.1c-2.4-0.3-2.3-0.4-0.6-0.3
			c-1.5-0.1-3.9-0.4-6.4-0.6c-2-0.2-4.1-0.2-5.8,0c-0.3,0-0.6,0.1-0.8,0.1c-0.2,0-0.3,0-0.5,0c-0.3,0-0.5,0-0.5,0l0.1,0
			c-0.4,0-0.9-0.1-1.7-0.3c-0.9-0.3-2-0.5-3.1-0.5c-1.1,0-2.3,0.2-3.3,0.6c-0.5,0.2-1,0.4-1.4,0.7c-0.4,0.3-0.8,0.6-0.9,0.7
			c-1.3,0.6-0.9,0.3-0.4,0.1c0.3-0.2,1.8-1.2,1.2-0.9c0,0-0.7,0.5-1.1,0.8c-0.5,0.3-1.1,0.5-2.1,0.6c-0.8,0.1-1.7,0.2-2.4,0.4
			c0-0.1-0.1-0.2-0.1-0.4c1-0.2,2.3-0.4,3.2-0.5c0.6-0.1,0.9-0.2,1.3-0.4c0.2-0.1,1.4-1,2.3-1.3c-0.7,0.2-1.3,0.4-1.8,0.8
			c-0.5,0.2-0.5,0.2-0.8,0.3c-0.4,0.1-0.7,0.1-1.2,0.1c-0.9,0-2,0.2-3.2,0.4c-1.4-3.3-2.7-6.6-3.8-9.4c0.9-0.8,1.8-1.5,2.6-2.2
			c-0.1,0-0.1,0.1-0.2,0.1l0,0v0c-0.3,0.2-0.4,0.2-0.1,0c0,0,0.1-0.1,0.1-0.1c0-0.1,0-0.3,0.1-0.5c0.4-1.5,3.2-4.7,0.8-3.4
			c-3.4,3.4-2.3,3.1-3.7,5c-0.1-0.2-0.2-0.5-0.3-0.7c-0.5-1.5-0.7-2.2-0.7-2.6l0.1-0.1c0.2,0.3,0.6,1.1,0.9,1.9
			c-0.3-0.6-0.5-1.3-0.8-2l6-6c-0.2,0.2-0.3,0.3-0.5,0.5l0.4,0.2c1.6-1.6,2.5-2.8,1.3-1.9l4.4-4.4c-2.2,3,1.2,2.7,4.5,1.1
			c-0.1-0.3-0.3-0.5,2.4-3.8c-1.3,0.8-7.3,6-5.2,3.1c3.7-4.2,3.4-3.1,5.6-4.7c-2,0.9,2.8-4.4,2.7-5.7l24.1-24.1
			c-0.1,0.2,0,0.3,0.4,0.1l2.1-2.3c2.6-1.5-3.5,4.9-0.4,2.3c-2.6,3.4-5.4,7.3-9.9,11.2l-1.5,0c0.3,0.1,3.2-2.3,4.2-3.7
			c-1.4,2.1-7.5,5.5-8.4,8.4l3.5-2.4c-2.6,3.4-5.6,7.9-9.5,11.4c2.4-1,0.8-0.9,4.3-2.7c-3.4,1.2,9.6-9.5,4.8-6.9
			c3.7-1.7,5.1-4.3,9.5-7c-0.4-0.1-1.7,0.8,1.5-2.2c0.1-0.2,0.3-0.6,0.5-0.9c0.1-0.1,0.1-0.1,0.2-0.2l-0.2,0.2
			c0.1-0.2,0.1-0.2-0.1,0c-0.9,0.6-1.6,1.1-2,1.2c1-2.1,5.8-6.8,7.3-8.9c0.2,0.1,0.5,0.2,0.7,0.3c0.3,0.2,0.5,0.2,0.7,0.4
			c-0.1,0.1-0.1,0.1-0.2,0.2c-1.1,0.8,0,1.2-0.7,1.6c-0.2,0.7,0.7-0.4,1.5-1.5c0.7,0.3,1.2,0.6,1.7,0.9c1.5,0.9,3.1,1.8,10.4,6.1
			l-0.1-0.2c3.1,2.1,5.5,3.6,7.5,4.9c2,1.3,3.4,2.5,4.7,3.8l-2.1-1.4c3.7,2.7,5.6,4.2,7.7,5.7c2,1.6,3.9,3.2,7.5,6.1
			c0.4,0.4,1.5,1.3,2.6,2.2c1.1,0.9,2.2,1.9,2.7,2.3c0,0.3,4,3.9,8.4,7.9c4.3,4,8.9,8.3,10.5,9.7c-5.3-5.2-2.6-2.9-0.9-1.6
			c2.8,3.3,4.9,5.5,9.4,9.6c0.1,1.1,0.6,2.4,8.7,11c-1.2-1.4-3.1-3.5-2.2-2.8c0.9,0.8,2.8,2.9,3.4,3.6c0.9,0.8-1.7-2.1-0.6-1.3
			c5.1,6.2,9.4,10.2,17.1,19c-2.3-2.9-0.1-0.6,0.9,0.2c0.1,1.2,11,11.6,7.3,8.9c7.7,8.5,17,19.6,25,29.5
			c8.1,9.9,14.8,18.6,17.8,21.9c1.7,1.8,5.2,7.1,7.6,10.2l-0.1-0.6c6.3,9.2,5.1,7,12.5,17.8c-2.9-4.6-1.4-2.9,2.1,1.3l4.9,7.6
			c0,0,0.4,0.3,0.7,0.6c0.4,0.3,0.7,0.5,0.7,0.5c1.4,3.1,2.8,7,3.5,11c0,0.7,0.1,1.6,0.3,2.9c0.3,1.8,0.2,4,0.4,6.3
			c0.2,2.2,0.1,4.5,0,6.4c-0.1,1.9-0.2,3.3-0.3,3.9c0.4,2,0,4.6-0.4,7.1c-0.4,2.5-0.7,4.8-0.6,6.3c-0.2,1-0.5,2.2-0.9,3.4l2-2
			l1.6-1.6l1.3-1.3c-1.9,2.2-4.2,4.8-5.7,6.7c0.3,2,0.3,4,0.4,6c0,0,0,0,0,0c0,0,0,0,0,0c1-1,1.9-2,2.9-3.1
			c4.1-4.3,8.3-8.8,12.7-13.2c12.7-12.9,25.3-23.9,43.4-32.8l11.4-11.4c-1.1,2.1-3.3,5.3-6.3,9c0.8-0.3,1.6-0.6,2.3-0.8
			c4.2-4.1,8.4-8.1,12.6-12c1-0.9,2.1-1.6,3.1-1.9c1.4-1.5,2.8-3,4.6-4.8C466.1,261.6,464.3,259.8,462.2,257.5z M306.5,271.4
			c0.9-1.8,1.2-3.9,2.2-5.7c0.9-1.8,1.4-3.6,2.2-5.4c0.5-1.1,1-2.2,1.6-3.5c0.6,4.1,1.3,8,1.7,11.9c0.2,1.8,0.3,3.6,0.3,5.4
			c-0.3,3.2-0.5,6.6-1,6.1c0.3,2.1,0.4,4.5,0.3,7.1c-0.1,1.3-0.3,2.6-0.5,4.1c-0.1,1.5-0.1,3.1-0.2,4.6c-0.2,2.9-0.6,6.2-0.8,9.5
			c-0.2,3.4-0.4,6.6-0.6,10.1c-0.5,3.1,0-2.6-0.4-1c0,0.9,0,1.9,0,2.9c0,0.6,0.1,1.2,0.1,1.7c0,0.3,0,0.5,0,0.7l0,0.3l-0.1,0.5
			c-0.5,2.6-0.3,5.7-1.6,8.8l0.2-0.7c-0.1,0.3-0.2,0.6-0.3,0.8c-0.1,0.3-0.3,0.8-0.4,1.2c-0.2,0.8-0.3,1.5-0.4,2.1
			c-0.1,1.2-0.4,2.3-0.7,3.4c-0.6,2.1-1.6,4.1-2.4,6.2c-0.1,0.2-0.1,0.3-0.2,0.5l-0.4,0.7l-0.9,1.3c-0.6,0.9-1.1,1.8-1.7,2.6
			c-1.1,1.7-2.2,3.3-3.5,4.7c-0.7,0.7-1.2,1.2-2.1,2c-0.8,0.8-1.6,1.6-1.8,1.9c-0.2,0.2-0.4,0.4-0.6,0.5c-0.3,0.1-0.5-0.1-0.8-0.2
			l-0.6-0.6c-0.4-0.3-0.8-0.7-1.2-1c-1.8-1.5-3.7-3-5.7-4.7c-2-1.7-4.1-3.5-6.5-5.5l1.1,1.5c-4-3.4-4.8-4.3-6.6-5.9
			c-5.1-3.3,11.3,9.5,6.6,6.6c-1.2-1.3-3.5-3.5-6.5-6c-0.7-0.6-1.5-1.3-2.3-2c-0.7-0.6-1.3-1.4-2.2-2.2c-1.8-1.7-3.7-2.9-5.3-4.3
			c-0.8-0.6-1.4-1.4-2.3-2.2c-0.8-0.8-1.6-1.5-2.4-2.3c-1.5-1.5-2.9-2.8-4.1-4.1c-0.5-0.7-1-1.3-1.4-1.9l-0.3-0.4l-0.1-0.2v0
			l-0.6-0.6l-0.1,0l-0.1,0c-0.2-0.2-0.4-0.3-0.6-0.5c-0.8-0.7-1.3-1.5-1.5-1.9c-0.6-0.8-1.1-1.3-1.4-1.7c-0.4-0.4-0.6-0.7-0.8-0.8
			c-0.3-0.2-0.1,0.1,0.1,0.4c0.2,0.3,0.4,0.6,0.1,0.4c-0.3-0.3-1-1.1-2.5-2.4c0,0-0.3-0.4-0.6-0.8c-0.3-0.4-0.5-0.8-0.5-0.8
			s-0.4-0.3-0.8-0.6c-0.4-0.3-0.8-0.7-0.8-0.7c-0.8-1-1.4-2-2.3-2.9c-0.7-0.7-1.2-1.3-1.7-1.8c-0.9-1-1.4-1.7-1.4-1.8
			c1,0.9,2.8,2.5,3.8,3.5c-1.2-1.3-2.6-2.7-4.4-4.3c-0.9-0.8-1.8-1.4-2.7-2.1c-0.9-0.7-1.9-1.3-2.4-1.8c-3-3-5.6-5.6-6.4-6.5
			l5.3,5.7c-1.9-2-3.9-4-6-6c-2-2-3.9-4.1-5.9-6.4c-0.8-0.9-1.5-1.6-2.3-2.4c2.1,1.1,4.3,1.9,6.4,2.9c3.4,1.6,6.9,3.2,10.2,5
			c1.6,0.9,3.3,1.2,4.9,1.9c1.6,0.7,3.2,1.5,4.6,2.5c2.7,1.9,5.8,2.7,8.9,3.3c1.6,0.3,3.1,0.9,4.6,1.5c3.3,1.3,6.8,2.1,10.3,2.7
			c2.1,0.3,4.2,1,6.3,0.9c2.4-0.1,4.8-0.8,7.1-1.3c0.6-0.1,1.2-0.2,1.8-0.5c0.9-0.3,1.8-0.6,2.6-1.1c2.1-1.1,4.1-2.4,6.2-3.6
			c2.2-1.3,3.1-3.6,4.2-5.6c1.8-3.2,3.1-6.7,4.7-10C302.6,278.8,304.6,275.2,306.5,271.4z M153.2,145.1c-0.9,1-1.6,1.8-2.4,2.7
			c-0.1-0.4-0.3-0.7-0.4-1C155.4,141.6,148.8,148.9,153.2,145.1z M161.8,131l4.8-4.8C165.6,127.6,163.9,129.5,161.8,131z
			 M167.9,125.1C167.9,125,167.9,125,167.9,125.1l0.4-0.5L167.9,125.1z M424.1,222.1c0.4,0.6,6.8,8.6,8,10.7
			c0.2,0.4,0.3,0.6,0.2,0.8l-5.1-5.1l0.8-1l-1.5,0.3l-5-5C422.3,222.1,423.2,221.7,424.1,222.1z M419.6,233.5l2.6,2.6
			c-0.3-0.1-0.6-0.3-0.9-0.4c0.5,0.3,1,0.7,1.6,1.1l1.1,1.1c0.6,1.1,1.2,2.1,1.6,2.7l-5.8-5c-0.5-0.8,0.3-0.5,1.5,0.1
			c-0.4-0.3-0.8-0.6-1.2-0.8C419.5,234.1,419.4,233.7,419.6,233.5z M349.7,163.6l3.4,3.4l-4.4-2.2
			C349.2,164.8,349.4,164.2,349.7,163.6z M272.5,86.4l-0.8,1l1.5-0.4l4.6,4.6c-0.7,0.8-1.5,1.2-2.4,0.9c-0.4-0.6-6.3-8.1-7.4-10.1
			c-0.2-0.4-0.2-0.6-0.2-0.8L272.5,86.4z M253.9,67.9c-1.3-0.8-2.7-1.8-3.8-2.8c0.3,0,0.1-0.7-0.1-1.2L253.9,67.9z M219.1,75.1
			l-3.6,3c1.1-1.5,3.5-4.3,5.2-5.5c-0.4,0.2-0.9,0.7-1.5,1.2L229.8,63c-1.2,2.4-3.9,6.3-7.6,10.6c-4.6,5.1-2.8,1.5-3.5,2.4
			c-9.3,9,2.1,1.5-6.3,8.4c-0.4,0.2-0.7,0.4-0.9,0.5c-0.4-0.2-0.9-0.4-1.3-0.6c0-0.5,0.1-0.9-0.3-0.8
			C213.6,79.3,216.4,77.8,219.1,75.1z M272.6,150c-0.4-0.5-0.9-1-1.4-1.6c1.2,1.5,1.9,2.5,0.9,1.5c0,0-2.1-2.1-4.1-4.3
			c-1-1.1-2.1-2.1-2.8-2.9c-0.8-0.8-1.3-1.3-1.3-1.3c0.9,0.7,2.2,1.8,3.7,3.1c0.6,0.6,1.2,1.2,1.8,1.7c0.7,0.8,1.4,1.5,2,2.2
			c-0.3-0.3-0.6-0.7-0.8-1c1.4,1.4,2.7,2.7,4.1,4.1C274.3,151.5,273.8,151.1,272.6,150z M372.6,269.9c0,0-1.7-2.8-3.8-6.4
			c1.5,2,3,4,4.5,6C372.7,269.4,372.3,269.3,372.6,269.9z M382.9,289.6c0,0.1,0,0.5,0,0.8C382.5,288.5,382.7,289.5,382.9,289.6z
			 M388.9,319.2l0.6-0.6c-0.1,0.1-0.2,0.3-0.3,0.4C389.1,319.1,389,319.1,388.9,319.2z M443.2,267v-0.2c-8.4,7-3,3.6-11.4,10.5
			l1,0.2c0.1,0.2,0.1,0.3,0.1,0.4c-0.3-0.3-1.2-0.4-3.4,2.4l1.9-1.3c-2,2.8-8.4,5-11,7.3c-0.6,0.4,0.7-1,1.3-1.8
			c-7.1,5.6-0.1,1.6-4.6,6.5c-1.3,0.5,0.1-2.2-3.2,0.9c-1.9,1.3-7.9,10.5-13,14.1c1.3-0.6,2.5-1.3,0.6,1.2c-1.2,1.3-2.9,2.7-4.7,4.2
			l0.3-0.3c0.2-2,0.3-4,0.4-6c-0.2-2.6,0-13.6-3.6-24.6c-0.9-2.7-2-5.4-3.5-7.9c-1.6-2.4-3.3-4.3-4.7-6.3c-2.9-3.8-5.4-6.9-6.8-8.5
			c3.8,4.3,0-0.5-3.2-5.1l3.3,3.7c0,0-1.9-2.5-3.7-5c-1.9-2.4-3.8-4.9-3.8-4.9c-0.7-1-1.2-1.7-1.6-2c-0.3-0.4-0.4-0.5-0.4-0.5
			c-1.3-1.6,0.1,0.6-3.3-3.6c-5.2-6.7-5.2-7.2-7.9-11l0.9,1l-3.5-4.5c-2.6-3.3,8.9,12,0.2,1.4c0-0.1-1.1-1.9-2.6-3.9
			c-1.5-2-3.2-4.4-4.5-5.7c4.4,5.5,3.6,5,1.9,3.1c0,0-1.5-1.9-3.1-3.9c-1.6-1.9-3.1-3.8-3.1-3.8l2.5,2.1c-17.7-22-37.1-44.2-58-66
			c-0.1,0.4-3.7-3.6-7.3-7.1c-3.6-3.5-7-6.9-6.3-5.6l0.9,0.8c5.2,5.3-1.9-1.1-6.2-5.3c4.8,4.1-7.7-8.3,3.6,2.1c0,0-2.1-2.1-4.2-4.2
			c-2.1-2.1-4.2-4.2-4.2-4.2c-1.8-2.8-7.8-8.1-15.1-14c-7.3-5.8-16-12.3-23.4-17.4c1,0.8,1.3,1,1.4,1.1c-3.3-2.3-6.8-4.8-10.4-6.8
			c-1.3-0.7-2.6-1.5-3.9-2.2c1.7-1.6,3.4-3.2,4.5-4.6c2-1.7,4.1-5.3,2.9-3.3l5.8-6.5l0.2,0.1c3.1-3-2.1,1.7,1.1-1.7
			c1.6-1.7,3.2-3.4,4.9-5c0.9-0.8,1.8-1.6,2.7-2.4c0.5-0.4,0.9-0.8,1.4-1.2l0.7-0.5l0.3-0.1c0.3-0.5,0.8-1.1,1.4-1.8
			c0.4,0.4,0.9,0.9,1.4,1.5c0,0-0.2,0.8-0.2,0.8c0,0,0.5,0.4,0.9,0.8c0.4,0.4,0.8,0.9,1.2,1.3c0.9,0.9,1.8,1.9,2.6,2.8
			c1.7,1.9,3.3,3.5,4.1,3.8c1.6,4.1,12.5,13.1,16.9,18l0.8-0.4c3.2,3.2,6.4,6.1,10.6,9.8l0.3-0.8c3.9,3,8.4,9.2,13.9,14.5
			c-0.6-0.2-1.9-1.6-2.7-2.7c5.2,7.7,14.5,12.7,19.5,19.5c1.6,1.3,2.6,2.4,3.5,3.5c-0.1-0.1-0.3-0.2-0.4-0.3
			c0.1,0.2,0.4,0.4,0.6,0.6c0.6,0.7,1.1,1.5,1.7,2.3c-0.5-0.7-1-1.4-1.4-2c1.1,1.1,2.9,2.8,4.7,4.3l0.1,1.3c0.1,0.1,0.3,0.2,0.4,0.4
			c1.4,1.9,1.6,1,1.1-0.3c0.9,0.7,1.8,1.4,2.6,1.9c0.4,2.3,4.7,4.1,5.5,6.9c1.6,0.6,8.8,8.1,10.7,7.9c-0.1,0.2,0.4,0.7-0.6-0.1
			c1.8,2,3.5,4,5.5,5.3l0.1,1.5l5.1,3.1c2,2.9,2.8,4.2-0.2,2.3c6.8,5.1,5.2,4.5,11.1,8.7l-0.7,0.2c1.8,1.8,5.4,4,6,5.5
			c3.1,4.9,19.9,20.1,29.4,31.3c-0.6-3.4,4.2,5.5,5.7,4.8c0.3,0.9,1.5,2.6-0.5,1.2c5.6,5,7.4,8.5,12,11.2c0.3,0.9-1.6-0.6-1.3,0.1
			c0.5,0.4,2,1.4,2.3,2.1c0.3,0.7-1.1-0.5-2-1.2c5.5,5.4,7,4.9,8.4,4.3c2.3,3.2,3.7,4.5,6.3,5.8c0.6,1.3,1.9,3.2-1.6-0.1
			c1.8,1.9,11.1,12,12,11.4c0.4,0.8,2.6,2.7,3.2,3.1c2.1,2.2,3.2,3.3,4.4,4.5c1,1,1.5,1.6,3,3L445,262c0.9,0.3,1.6,0.7,2.2,1.3
			C446.3,264.3,444.8,265.2,443.2,267z M447,248.2c1.4,0.9,2.8,1.9,4,2.9c-0.3,0-0.1,0.7,0.2,1.2L447,248.2z"/>
	</g>
</g>
</svg>
