<?xml version="1.0" encoding="utf-8"?>
<!-- Generator: Adobe Illustrator 19.1.1, SVG Export Plug-In . SVG Version: 6.00 Build 0)  -->
<svg version="1.1" id="Calque_1" xmlns="http://www.w3.org/2000/svg" xmlns:xlink="http://www.w3.org/1999/xlink" x="0px" y="0px"
	 viewBox="-47 170.9 500 500" style="enable-background:new -47 170.9 500 500;" xml:space="preserve">
<style type="text/css">
	.st0{opacity:6.000000e-002;fill:#FFFFFF;}
	.st1{fill:#FFFFFF;}
</style>
<rect x="-47" y="170.9" class="st0" width="500" height="500"/>
<g>
	
		<image style="overflow:visible;opacity:0.75;" width="512" height="512" xlink:href="C7D6EB9C.png"  transform="matrix(1 0 0 1 -52.5197 165.3703)">
	</image>
	<g>
		<circle class="st1" cx="203" cy="420.9" r="212.6"/>
	</g>
</g>
<g>
	<title>Layer 1</title>
	<g id="svg_1">
		<path id="svg_2" d="M115.1,351.4c-25.4,0-47.9,13.1-61,33H23.2c-4.2,0-7.7,3.5-7.7,7.7c0,4.2,3.5,7.7,7.7,7.7h23.3
			c-2.8,7.7-4.2,16.1-4.2,24.7c0,40.3,32.7,73,73,73s73-32.7,73-73C188.1,384.1,155.4,351.4,115.1,351.4L115.1,351.4L115.1,351.4z
			 M115.1,482c-31.8,0-57.6-25.8-57.6-57.6s25.8-57.6,57.6-57.6s57.6,25.8,57.6,57.6S147,482,115.1,482L115.1,482z"/>
		<path id="svg_3" d="M382.8,384.4h-34.6c-3.6-5.7-8.2-10.8-13.4-15.3c-13.3-11.4-30.1-17.7-47.6-17.7c-26.1,0-49,13.9-61.9,34.4
			c-5.5-7.2-14.3-11.8-24.1-11.8c-5.1,0-10.2,1.3-14.6,3.8c-3.6,2-5.1,6.7-3.1,10.4c2,3.6,6.7,5.1,10.4,3.1c2.2-1.2,4.7-1.9,7.3-1.9
			c8.3,0,15.2,6.9,15.2,15.2c0,0.6,0,1,0.1,1.5c-1.5,5.8-2.3,11.8-2.3,18.1c0,40.3,32.7,73,73,73c30.2,0,57.6-19,68.3-47.3
			c1.5-3.9-0.6-8.3-4.5-9.9c-3.9-1.5-8.3,0.6-9.9,4.5c-8.5,22.3-30.1,37.4-53.9,37.4c-31.8,0-57.6-25.8-57.6-57.6
			s25.8-57.6,57.6-57.6c28.6,0,52.4,20.4,56.9,48.6c0.6,4.2,4.5,7,8.8,6.4s7-4.5,6.4-8.8c-0.7-4.5-1.9-8.9-3.4-13.3h26.9
			c4.2,0,7.7-3.5,7.7-7.7C390.4,387.9,387,384.4,382.8,384.4L382.8,384.4L382.8,384.4z"/>
	</g>
</g>
</svg>
