<?xml version="1.0" encoding="utf-8"?>
<!-- Generator: Adobe Illustrator 19.1.1, SVG Export Plug-In . SVG Version: 6.00 Build 0)  -->
<svg version="1.1" id="Calque_1" xmlns="http://www.w3.org/2000/svg" xmlns:xlink="http://www.w3.org/1999/xlink" x="0px" y="0px"
	 viewBox="22 101.9 640 639" style="enable-background:new 22 101.9 640 639;" xml:space="preserve">
<style type="text/css">
	.st0{fill:none;}
</style>
<g>
	<title>background</title>
	<rect id="canvas_background" x="21" y="100.9" class="st0" width="642" height="641"/>
</g>
<g>
	<title>Layer 1</title>
	<path id="svg_1" d="M471.4,471.3c-12.8-29.2-35.2-52.6-63.5-66.6c8.3-12.1,12.6-26.3,12.6-41c0-40.3-32.7-73-73-73
		c-4.1,0-7.4,3.3-7.4,7.4s3.3,7.4,7.4,7.4c32,0,58,26,58,58c0,14.4-5.4,28-15,38.8l0,0c-11,12.2-26.7,19.2-43,19.2s-32-7-43-19.2
		l0,0c-9.6-10.8-15-24.4-15-38.8c0-15.6,6.1-30.2,17.1-41.3c2.9-2.9,2.9-7.7,0-10.6s-7.7-2.9-10.6,0c-14,13.8-21.7,32.3-21.7,51.9
		c0,14.7,4.5,28.9,12.6,41c-0.1,0-0.1,0.1-0.1,0.1c-0.6,0.3-1.2,0.6-1.7,0.9c-0.9,0.4-1.7,0.9-2.6,1.5c-0.6,0.3-1.2,0.7-1.9,1
		c-0.9,0.4-1.6,0.9-2.5,1.5c-0.6,0.4-1.3,0.7-1.9,1.2c-0.7,0.4-1.6,1-2.3,1.5c-0.6,0.4-1.2,0.9-1.9,1.2c-0.7,0.4-1.5,1-2.2,1.5
		c-0.6,0.4-1.2,0.9-1.9,1.3c-0.7,0.6-1.5,1-2.2,1.6c-0.6,0.4-1.2,0.9-1.7,1.3c-0.7,0.6-1.3,1-2,1.6c-0.6,0.4-1.2,1-1.7,1.5
		c-0.7,0.6-1.3,1.2-2,1.7c-0.6,0.4-1.2,1-1.7,1.5c-0.6,0.6-1.3,1.2-1.9,1.7c-0.6,0.4-1,1-1.6,1.6s-1.2,1.2-1.9,1.9
		c-0.6,0.6-1,1-1.6,1.6s-1.2,1.3-1.7,1.9c-0.4,0.6-1,1-1.5,1.6c-0.6,0.7-1.2,1.3-1.7,2c-0.4,0.6-0.9,1-1.5,1.6
		c-0.6,0.7-1.2,1.5-1.7,2.2c-0.4,0.6-0.9,1-1.3,1.6c-0.6,0.7-1.2,1.6-1.7,2.3c-0.4,0.4-0.7,1-1.2,1.5c-0.7,1-1.5,2-2.2,3.1
		c-0.1,0.3-0.4,0.6-0.6,0.9c-0.9,1.3-1.7,2.6-2.6,3.9c-0.3,0.4-0.6,0.9-0.9,1.5c-0.6,0.9-1,1.7-1.6,2.8c-0.3,0.6-0.6,1.2-0.9,1.7
		c-0.4,0.9-0.9,1.6-1.3,2.5c-0.3,0.6-0.6,1.3-0.9,1.9c-0.4,0.9-0.9,1.6-1.2,2.5c-0.3,0.6-0.6,1.3-0.9,1.9c-0.4,0.7-0.7,1.6-1.2,2.5
		c-0.3,0.7-0.6,1.3-0.9,2c-0.3,0.9-0.7,1.6-1,2.5c-0.3,0.7-0.6,1.3-0.7,2c-0.3,0.9-0.6,1.6-0.9,2.5c-0.3,0.7-0.4,1.5-0.7,2
		c-0.3,0.9-0.6,1.6-0.9,2.5c-0.1,0.7-0.4,1.5-0.6,2.2c-0.3,0.9-0.4,1.7-0.7,2.5c-0.1,0.7-0.4,1.5-0.6,2.2c-0.1,0.9-0.4,1.7-0.6,2.6
		c-0.1,0.7-0.3,1.5-0.4,2.2c-0.1,0.9-0.4,1.7-0.6,2.6c-0.1,0.7-0.3,1.5-0.4,2.2c-0.1,0.9-0.3,1.7-0.4,2.8c-0.1,0.7-0.3,1.5-0.3,2.2
		c-0.1,0.9-0.3,1.9-0.4,2.8c-0.1,0.7-0.1,1.5-0.3,2c-0.1,1-0.1,2-0.3,2.9c0,0.7-0.1,1.3-0.1,2c-0.1,1.2-0.1,2.2-0.1,3.3
		c0,0.6,0,1.2-0.1,1.6c0,1.6-0.1,3.3-0.1,4.9c0,1.7,0,3.5,0.1,5.4c0,0.4,0.1,0.9,0.1,1.3c0,0,0,0,0,0.1c0.1,0.4,0.3,0.7,0.4,1.2v0.1
		c0.1,0.4,0.3,0.7,0.6,1c0,0,0,0.1,0.1,0.1c0.1,0.3,0.4,0.6,0.7,0.9l0,0l1,1c0.7,0.7,1.5,1.6,2.3,2.3
		c35.8,35.8,82.8,53.6,129.8,53.6c40.1,0,80.1-12.9,113.2-38.9c0.7-0.4,1.3-0.9,1.9-1.6c1.2-1.3,2-3.1,2-5.1c0-4.2-3.3-7.6-7.6-7.6
		c-1.5,0-2.8,0.4-3.8,1c-0.6,0.4-1.2,0.9-1.7,1.3C385.1,594.4,288.9,589.9,228,529c-0.3-0.3-0.7-0.7-1-1c0-0.7,0-1.3,0-2
		c0-1.5,0-3.1,0.1-4.5c0-0.4,0-1,0.1-1.5c0-1,0.1-2,0.1-2.9c0-0.6,0.1-1.2,0.1-1.7c0.1-0.9,0.1-1.7,0.3-2.6c0-0.6,0.1-1.3,0.3-1.9
		c0.1-0.9,0.1-1.7,0.3-2.5c0.1-0.6,0.1-1.3,0.3-1.9c0.1-0.9,0.3-1.6,0.4-2.5c0.1-0.6,0.3-1.3,0.4-1.9c0.1-0.7,0.3-1.6,0.4-2.3
		c0.1-0.6,0.3-1.3,0.4-1.9c0.1-0.7,0.4-1.6,0.6-2.3c0.1-0.6,0.3-1.3,0.6-1.9c0.1-0.7,0.4-1.6,0.6-2.3c0.1-0.6,0.4-1.3,0.6-1.9
		c0.3-0.7,0.4-1.5,0.7-2.2c0.1-0.6,0.4-1.3,0.7-1.9c0.3-0.7,0.6-1.5,0.9-2.2c0.3-0.6,0.4-1.2,0.7-1.9c0.3-0.7,0.6-1.5,0.9-2.2
		c0.3-0.6,0.6-1.2,0.7-1.9c0.3-0.7,0.6-1.5,1-2.2c0.3-0.6,0.6-1.2,0.9-1.7c0.3-0.7,0.7-1.5,1-2s0.6-1.2,0.9-1.7
		c0.4-0.7,0.7-1.3,1.2-2c0.3-0.6,0.6-1.2,1-1.7c0.4-0.7,0.7-1.3,1.2-2c0.3-0.6,0.7-1.2,1-1.7c0.4-0.7,0.9-1.3,1.3-2
		c0.3-0.6,0.7-1,1-1.6c0.4-0.6,0.9-1.3,1.3-1.9s0.7-1,1.2-1.6s0.9-1.3,1.5-1.9c0.4-0.6,0.7-1,1.2-1.6s1-1.2,1.5-1.9
		c0.4-0.4,0.9-1,1.2-1.5c0.6-0.6,1-1.2,1.6-1.7c0.4-0.4,0.9-1,1.3-1.5c0.6-0.6,1.2-1.2,1.6-1.7c0.4-0.4,0.9-0.9,1.3-1.5
		c0.6-0.6,1.2-1.2,1.7-1.7c0.4-0.4,0.9-0.9,1.3-1.3c0.6-0.6,1.2-1.2,1.7-1.6c0.4-0.4,0.9-0.9,1.5-1.3c0.6-0.6,1.3-1.2,1.9-1.6
		c0.4-0.4,0.9-0.7,1.5-1.2c0.7-0.6,1.3-1,2-1.6c0.4-0.4,0.9-0.7,1.5-1.2c0.7-0.6,1.5-1,2.2-1.6c0.4-0.3,0.9-0.7,1.3-1
		c0.7-0.6,1.6-1.2,2.5-1.6c0.4-0.3,0.7-0.6,1.2-0.9c1-0.7,2.2-1.3,3.2-2c0.1-0.1,0.3-0.1,0.4-0.3c1.3-0.7,2.5-1.5,3.8-2.2
		c0.4-0.3,0.9-0.4,1.3-0.7c0.9-0.4,1.7-0.9,2.6-1.3c0.6-0.3,1.2-0.6,1.7-0.9c0.7-0.3,1.5-0.7,2.2-1c13.5,12.9,31.7,20.2,50.4,20.2
		s36.8-7.3,50.4-20.2c26.5,12.2,48.1,34.2,59.9,60.9c1.6,3.8,6.1,5.5,9.9,3.8C471.4,479.5,473.2,475,471.4,471.3L471.4,471.3z"/>
</g>
</svg>
